<svg width="57" height="57" viewBox="0 0 57 57" fill="none" xmlns="http://www.w3.org/2000/svg">
<g clip-path="url(#clip0)">
<path d="M31.6341 22.062H25.0271C24.6051 22.861 24.3251 23.465 24.2461 23.615H32.2601C32.0791 23.081 31.8711 22.564 31.6341 22.062Z" fill="white" fill-opacity="0.9"/>
<path d="M21.6779 25.9089C21.0429 25.9089 20.4899 25.9899 19.6299 26.2079L19.4049 27.4869L19.5479 27.4499L19.7939 27.3879C20.1619 27.2899 20.7149 27.2309 21.2069 27.2309C22.0049 27.2309 22.3129 27.3709 22.3129 27.7459C22.3129 27.8499 22.2919 27.9279 22.2509 28.1149C21.9849 28.0869 21.7389 28.0709 21.5549 28.0709C19.6509 28.0709 18.5449 28.8799 18.5449 30.2599C18.5449 31.1779 19.1799 31.8109 20.1019 31.8109C20.8799 31.8109 21.4749 31.5919 21.9039 31.1249L21.8629 31.7129H23.2959L23.3159 31.5589L23.3369 31.3639L23.3779 31.0759L23.4389 30.7159L23.8079 28.6979C23.9109 28.0659 23.9309 27.8529 23.9309 27.5729C23.9309 26.4869 23.1529 25.9089 21.6779 25.9089ZM20.8189 30.6069C20.4299 30.6069 20.2049 30.3789 20.2049 30.0279C20.2049 29.4539 20.6969 29.1639 21.6589 29.1639C21.7819 29.1639 21.8639 29.1669 22.0489 29.1859C22.0069 30.0259 21.5149 30.6069 20.8189 30.6069Z" fill="white" fill-opacity="0.9"/>
<path d="M16.293 24.7319L14.388 29.0569L14.265 24.7319H11.582L10.25 31.7159H11.806L12.83 26.3799L13.117 31.7159H14.674L17.029 26.3459L16.005 31.7159H17.725L19.077 24.7319H16.293Z" fill="white" fill-opacity="0.9"/>
<path d="M47.568 31.193C47.567 31.155 47.547 31.116 47.527 31.095C47.486 31.075 47.445 31.073 47.425 31.073H47.261V31.465H47.343V31.312H47.404L47.466 31.465H47.568L47.507 31.295C47.548 31.278 47.568 31.236 47.568 31.193ZM47.445 31.237C47.425 31.245 47.404 31.245 47.404 31.245H47.342V31.143H47.385C47.405 31.143 47.446 31.143 47.446 31.152C47.467 31.16 47.467 31.176 47.467 31.191C47.467 31.208 47.465 31.228 47.445 31.237Z" fill="white" fill-opacity="0.9"/>
<path d="M51.164 36.1869C51.162 36.1479 51.143 36.1089 51.122 36.0889C51.081 36.0689 51.04 36.0669 51.019 36.0669H50.856V36.4589H50.938V36.3049H50.999L51.061 36.4589H51.164L51.102 36.2879C51.143 36.2729 51.164 36.2309 51.164 36.1869ZM51.04 36.2309C51.019 36.2389 50.999 36.2389 50.999 36.2389H50.937V36.1379H50.978C50.999 36.1379 51.04 36.1379 51.04 36.1459C51.061 36.1539 51.061 36.1709 51.061 36.1849C51.061 36.2029 51.061 36.2209 51.04 36.2309Z" fill="white" fill-opacity="0.9"/>
<path d="M55.026 9.93896H1.454C0.65 9.93896 0 10.59 0 11.393V45.088C0 45.891 0.65 46.542 1.454 46.542H55.026C55.83 46.542 56.48 45.891 56.48 45.088V11.393C56.48 10.59 55.83 9.93896 55.026 9.93896ZM51.409 36.518C51.367 36.594 51.31 36.652 51.236 36.693C51.162 36.734 51.084 36.755 51.004 36.755C50.922 36.755 50.844 36.734 50.77 36.693C50.697 36.652 50.639 36.594 50.596 36.518C50.555 36.445 50.534 36.367 50.534 36.286C50.534 36.205 50.555 36.128 50.597 36.052C50.638 35.976 50.698 35.919 50.772 35.878C50.847 35.839 50.923 35.818 51.003 35.818C51.082 35.818 51.158 35.839 51.232 35.878C51.307 35.919 51.366 35.976 51.407 36.052C51.449 36.128 51.469 36.206 51.469 36.286C51.469 36.366 51.451 36.447 51.409 36.518ZM52.457 28.241C52.459 36.246 45.973 42.738 37.967 42.74C34.223 42.741 30.809 41.322 28.237 38.991C25.665 41.318 22.258 42.736 18.52 42.736C10.519 42.736 4.025 36.243 4.025 28.241C4.025 20.271 10.468 13.797 18.427 13.745C18.458 13.745 18.489 13.745 18.52 13.745C22.258 13.745 25.666 15.163 28.238 17.49C30.809 15.162 34.219 13.743 37.96 13.742C45.966 13.739 52.457 20.228 52.459 28.234C52.457 28.236 52.457 28.237 52.457 28.241Z" fill="white" fill-opacity="0.9"/>
<path d="M29.673 18.9871H26.919C26.549 19.4871 26.201 20.0191 25.886 20.5391H30.799C30.458 19.9971 30.081 19.4791 29.673 18.9871Z" fill="white" fill-opacity="0.9"/>
<path d="M32.7191 27.25C33.0681 27.25 33.5181 27.28 33.9691 27.333L34.2151 26.02C33.7641 25.958 33.0881 25.908 32.6781 25.908C30.7541 25.908 30.0761 26.782 30.0771 27.827C30.0771 28.543 30.4871 29.038 31.4081 29.41C32.1031 29.693 32.2071 29.777 32.2071 30.037C32.2071 30.389 31.9011 30.549 31.2251 30.549C30.6911 30.549 30.2211 30.479 29.6671 30.325L29.4221 31.635L29.5041 31.65L29.8111 31.706C29.9131 31.726 30.0771 31.743 30.2821 31.757C30.6911 31.787 30.9971 31.804 31.2231 31.804C33.0671 31.804 33.9071 31.205 33.9071 29.91C33.9071 29.13 33.5591 28.675 32.6781 28.329C31.9611 28.042 31.8791 27.977 31.8791 27.711C31.8791 27.406 32.1651 27.25 32.7191 27.25Z" fill="white" fill-opacity="0.9"/>
<path d="M41.6929 26.0231C41.6099 26.0031 41.5479 25.9921 41.5479 25.9891C41.4869 25.9801 41.4249 25.9751 41.3629 25.9751C40.8089 25.9751 40.3999 26.2271 39.8679 26.8981L40.0319 26.0361H38.4749L37.4299 31.7161H39.1509C39.7659 28.2431 40.0309 27.6331 40.8499 27.6331C40.9119 27.6331 40.9729 27.6381 41.0549 27.6471L41.2599 27.6891L41.8769 26.0851C41.7339 26.0301 41.7129 26.0301 41.6929 26.0231Z" fill="white" fill-opacity="0.9"/>
<path d="M36.5279 27.417H37.4089L37.6549 26.035H36.7749L37.0209 24.731H35.3209L34.5219 29.067L34.4399 29.516L34.3369 30.075C34.3159 30.255 34.2959 30.425 34.2959 30.584C34.2959 31.39 34.7669 31.832 35.6479 31.832C36.0369 31.832 36.4059 31.776 36.8769 31.647L37.1019 30.387C36.9809 30.424 36.8369 30.442 36.6519 30.442C36.2429 30.442 36.0569 30.316 36.0569 30.022C36.0569 29.97 36.0569 29.891 36.0779 29.787L36.5279 27.417Z" fill="white" fill-opacity="0.9"/>
<path d="M47.4039 30.8279C47.1579 30.8279 46.9529 31.0269 46.9529 31.2699C46.9529 31.5159 47.1579 31.7149 47.4039 31.7149C47.6499 31.7149 47.8549 31.5159 47.8549 31.2699C47.8549 31.0279 47.6499 30.8279 47.4039 30.8279ZM47.4039 31.6089C47.2199 31.6089 47.0559 31.4579 47.0559 31.2699C47.0559 31.0839 47.2199 30.9339 47.4039 30.9339C47.5899 30.9339 47.7319 31.0839 47.7319 31.2699C47.7319 31.4579 47.5899 31.6089 47.4039 31.6089Z" fill="white" fill-opacity="0.9"/>
<path d="M44.537 25.874C42.489 25.874 41.158 27.239 41.158 29.25C41.158 30.691 41.935 31.869 43.883 31.869C45.643 31.869 46.954 31.03 47.221 29.142C47.262 28.812 47.262 28.789 47.262 28.437C47.262 26.995 46.32 25.874 44.537 25.874ZM45.377 29.093C45.234 29.978 44.436 30.485 44.067 30.485C43.452 30.497 43.084 29.978 43.084 29.207C43.084 28.295 43.616 27.26 44.497 27.26C45.193 27.26 45.438 27.823 45.438 28.415C45.438 28.661 45.418 28.885 45.377 29.093Z" fill="white" fill-opacity="0.9"/>
<path d="M29.337 29.361C29.482 28.785 29.544 28.377 29.544 27.957C29.544 26.698 28.642 25.895 27.23 25.895C25.509 25.895 24.24 27.33 24.24 29.277C24.239 30.952 25.243 31.823 27.168 31.823C27.762 31.823 28.335 31.748 28.909 31.594L29.195 30.172C28.581 30.422 28.028 30.533 27.413 30.533C26.43 30.533 25.918 30.198 25.918 29.54C25.918 29.487 25.918 29.448 25.939 29.361H29.337ZM27.209 27.195C27.721 27.195 28.008 27.464 28.008 27.925C28.008 28.001 28.008 28.095 28.008 28.217L26.103 28.215C26.267 27.555 26.657 27.195 27.209 27.195Z" fill="white" fill-opacity="0.9"/>
<path d="M24.8181 34.3621C25.0691 34.9001 25.3621 35.4131 25.6741 35.9141H30.8171C31.1291 35.4151 31.4111 34.8981 31.6611 34.3621H24.8181Z" fill="white" fill-opacity="0.9"/>
<path d="M26.7529 37.4031C27.2119 37.9661 27.6979 38.5031 28.2349 38.9871C28.2469 38.9761 28.2599 38.9671 28.2719 38.9551H28.2739C28.8019 38.4741 29.2949 37.9561 29.7459 37.4031H26.7529Z" fill="white" fill-opacity="0.9"/>
</g>
<defs>
<clipPath id="clip0">
<rect width="56.48" height="56.48" fill="white"/>
</clipPath>
</defs>
</svg>
