<svg width="57" height="57" viewBox="0 0 57 57" fill="none" xmlns="http://www.w3.org/2000/svg">
<g clip-path="url(#clip0)">
<path d="M15.0511 25.812C13.9931 25.812 13.1821 26.152 13.1821 26.152L12.9581 27.482C12.9581 27.482 13.6271 27.21 14.6401 27.21C15.2151 27.21 15.6351 27.274 15.6351 27.741C15.6351 28.025 15.5841 28.13 15.5841 28.13C15.5841 28.13 15.1311 28.093 14.9211 28.093C13.5861 28.093 12.1841 28.661 12.1841 30.38C12.1841 31.734 13.1031 32.043 13.6741 32.043C14.7631 32.043 15.2331 31.337 15.2571 31.335L15.2061 31.925H16.5651L17.1711 27.675C17.1701 25.87 15.5971 25.812 15.0511 25.812ZM14.2891 30.75C13.8101 30.75 13.6851 30.385 13.6851 30.167C13.6851 29.745 13.9141 29.237 15.0451 29.237C15.3091 29.238 15.3371 29.265 15.3811 29.273C15.4111 29.533 15.2191 30.75 14.2891 30.75Z" fill="white" fill-opacity="0.9"/>
<path d="M19.9591 27.237C20.1761 27.237 21.0131 27.306 21.0131 27.306L21.2081 25.944C21.2081 25.944 20.6661 25.823 19.7841 25.823C18.6421 25.823 17.4841 26.279 17.4841 27.838C17.4841 29.606 19.4161 29.426 19.4161 30.172C19.4161 30.668 18.8761 30.709 18.4601 30.709C17.7391 30.709 17.0911 30.463 17.0891 30.473L16.8831 31.824C16.9201 31.834 17.3201 32.012 18.6151 32.012C18.9621 32.012 20.9491 32.102 20.9491 30.051C20.9491 28.133 19.1101 28.512 19.1101 27.741C19.1101 27.357 19.4091 27.237 19.9591 27.237Z" fill="white" fill-opacity="0.9"/>
<path d="M23.2061 27.4111H24.0231L24.2201 25.9591H23.4501L23.6071 25.0591H22.0641C22.0301 25.0921 21.1531 30.1351 21.1531 30.7471C21.1531 31.6581 21.6641 32.0621 22.3831 32.0551C22.9461 32.0511 23.3851 31.8951 23.5401 31.8521L23.7331 30.5401C23.6271 30.5401 23.4721 30.5861 23.3351 30.5861C22.7981 30.5861 22.7391 30.2991 22.7731 30.0881L23.2061 27.4111Z" fill="white" fill-opacity="0.9"/>
<path d="M29.673 18.9871H26.919C26.549 19.4871 26.201 20.0191 25.886 20.5391H30.799C30.458 19.9971 30.081 19.4791 29.673 18.9871Z" fill="white" fill-opacity="0.9"/>
<path d="M51.1611 36.4451C51.1311 36.4001 51.1061 36.3661 51.0861 36.3451C51.0751 36.3351 51.0611 36.3241 51.0431 36.3191C51.0861 36.3161 51.1221 36.3001 51.1481 36.2731C51.1731 36.2461 51.1871 36.2141 51.1871 36.1771C51.1871 36.1511 51.1791 36.1261 51.1641 36.1031C51.1491 36.0801 51.1271 36.0631 51.1001 36.0541C51.0751 36.0441 51.0321 36.0391 50.9731 36.0391H50.7991V36.5441H50.8811V36.3301H50.9281C50.9561 36.3301 50.9791 36.3361 50.9921 36.3481C51.0131 36.3651 51.0431 36.4041 51.0781 36.4651L51.1221 36.5451H51.2231L51.1611 36.4451ZM50.9791 36.2631H50.8791V36.1111H50.9731C51.0121 36.1111 51.0381 36.1141 51.0531 36.1201C51.0691 36.1261 51.0791 36.1351 51.0881 36.1461C51.0961 36.1581 51.1001 36.1711 51.1001 36.1851C51.1001 36.2081 51.0921 36.2281 51.0751 36.2421C51.0581 36.2551 51.0251 36.2631 50.9791 36.2631Z" fill="white" fill-opacity="0.9"/>
<path d="M31.6341 22.062H25.0271C24.6051 22.861 24.3251 23.465 24.2461 23.615H32.2601C32.0791 23.081 31.8711 22.564 31.6341 22.062Z" fill="white" fill-opacity="0.9"/>
<path d="M10.293 24.583L8.77203 29.093L8.69303 24.583H6.44103L5.20703 31.932H6.69603L7.63503 26.392L7.77303 31.932H8.83603L10.819 26.392L9.94003 31.932H11.52L12.737 24.583H10.293Z" fill="white" fill-opacity="0.9"/>
<path d="M40.069 25.812C39.009 25.812 38.199 26.152 38.199 26.152L37.9739 27.482C37.9739 27.482 38.6439 27.21 39.6559 27.21C40.2309 27.21 40.652 27.274 40.652 27.741C40.652 28.025 40.5989 28.13 40.5989 28.13C40.5989 28.13 40.147 28.093 39.935 28.093C38.601 28.093 37.2 28.661 37.2 30.38C37.2 31.734 38.1199 32.043 38.6899 32.043C39.7779 32.043 40.2479 31.337 40.2729 31.335L40.222 31.925H41.58L42.186 27.675C42.189 25.87 40.615 25.812 40.069 25.812ZM39.3089 30.75C38.8289 30.75 38.705 30.385 38.705 30.167C38.705 29.745 38.9339 29.237 40.0649 29.237C40.3279 29.238 40.356 29.265 40.401 29.273C40.43 29.533 40.2369 30.75 39.3089 30.75Z" fill="white" fill-opacity="0.9"/>
<path d="M51.2099 31.255C51.1689 31.179 51.1089 31.121 51.0339 31.081C50.9599 31.04 50.8839 31.02 50.8039 31.02C50.7269 31.021 50.6499 31.041 50.5739 31.081C50.4989 31.121 50.4409 31.179 50.3989 31.255C50.3569 31.33 50.3359 31.408 50.3359 31.489C50.3359 31.57 50.3569 31.647 50.3989 31.721C50.4399 31.795 50.4979 31.854 50.5719 31.896C50.6469 31.937 50.7239 31.958 50.8039 31.958C50.8859 31.958 50.9639 31.937 51.0369 31.896C51.1109 31.854 51.1689 31.795 51.2099 31.721C51.2529 31.647 51.2719 31.57 51.2719 31.489C51.2719 31.406 51.2519 31.328 51.2099 31.255ZM51.1449 31.682C51.1109 31.744 51.0629 31.791 50.9999 31.828C50.9379 31.862 50.8739 31.88 50.8069 31.88C50.7389 31.88 50.6739 31.862 50.6129 31.828C50.5499 31.793 50.5029 31.745 50.4669 31.682C50.4309 31.619 50.4149 31.555 50.4149 31.488C50.4149 31.421 50.4319 31.356 50.4689 31.293C50.5039 31.231 50.5509 31.183 50.6149 31.148C50.6789 31.113 50.7419 31.098 50.8069 31.098C50.8719 31.098 50.9359 31.114 50.9969 31.148C51.0609 31.183 51.1079 31.23 51.1429 31.293C51.1779 31.356 51.1969 31.421 51.1969 31.488C51.1969 31.555 51.1799 31.62 51.1449 31.682Z" fill="white" fill-opacity="0.9"/>
<path d="M50.9631 31.6479C50.9341 31.6009 50.9081 31.5679 50.8891 31.5479C50.8771 31.5369 50.8641 31.5279 50.8461 31.5219C50.8891 31.5189 50.9241 31.5029 50.9501 31.4759C50.9751 31.4499 50.9901 31.4159 50.9901 31.3799C50.9901 31.3549 50.9821 31.3289 50.9661 31.3059C50.9501 31.2839 50.9291 31.2669 50.9041 31.2569C50.8791 31.2469 50.8351 31.2419 50.7761 31.2419H50.6001V31.7459H50.6821V31.5319H50.7291C50.7581 31.5319 50.7811 31.5379 50.7951 31.5489C50.8161 31.5669 50.8441 31.6049 50.8811 31.6679L50.9241 31.7469H51.0251L50.9631 31.6479ZM50.7831 31.4629H50.6841V31.3099H50.7761C50.8161 31.3099 50.8421 31.3129 50.8581 31.3179C50.8711 31.3249 50.8831 31.3319 50.8911 31.3449C50.9001 31.3579 50.9041 31.3689 50.9041 31.3859C50.9041 31.4079 50.8951 31.4269 50.8801 31.4409C50.8611 31.4579 50.8301 31.4629 50.7831 31.4629Z" fill="white" fill-opacity="0.9"/>
<path d="M45.3129 25.885C44.6219 25.885 44.1089 26.828 44.1089 26.828L44.2469 25.961H42.8089L41.8459 31.943H43.4299C43.8809 29.387 43.9629 27.314 45.0339 27.693C45.2229 26.705 45.4049 26.322 45.6099 25.905C45.6099 25.906 45.5139 25.885 45.3129 25.885Z" fill="white" fill-opacity="0.9"/>
<path d="M49.293 24.5909L48.96 26.6559C48.96 26.6559 48.38 25.8529 47.47 25.8529C46.055 25.8539 44.877 27.5589 44.877 29.5169C44.877 30.7819 45.506 32.0209 46.79 32.0209C47.715 32.0209 48.227 31.3759 48.227 31.3759L48.16 31.9269H49.661L50.841 24.5879L49.293 24.5909ZM47.336 30.5209C46.78 30.5209 46.52 30.0549 46.52 29.3229C46.52 28.1259 47.057 27.3369 47.736 27.3369C48.29 27.3379 48.575 27.7189 48.575 28.6169C48.575 29.4319 48.172 30.5209 47.336 30.5209Z" fill="white" fill-opacity="0.9"/>
<path d="M55.026 9.93896H1.454C0.65 9.93896 0 10.59 0 11.393V45.088C0 45.891 0.65 46.542 1.454 46.542H55.026C55.83 46.542 56.48 45.891 56.48 45.088V11.393C56.48 10.59 55.83 9.93896 55.026 9.93896ZM51.409 36.518C51.367 36.594 51.31 36.652 51.236 36.693C51.162 36.734 51.084 36.755 51.004 36.755C50.922 36.755 50.844 36.734 50.77 36.693C50.697 36.652 50.639 36.594 50.596 36.518C50.555 36.445 50.534 36.367 50.534 36.286C50.534 36.205 50.555 36.128 50.597 36.052C50.638 35.976 50.698 35.919 50.772 35.878C50.847 35.839 50.923 35.818 51.003 35.818C51.082 35.818 51.158 35.839 51.232 35.878C51.307 35.919 51.366 35.976 51.407 36.052C51.449 36.128 51.469 36.206 51.469 36.286C51.469 36.366 51.451 36.447 51.409 36.518ZM52.457 28.241C52.459 36.246 45.973 42.738 37.967 42.74C34.223 42.741 30.809 41.322 28.237 38.991C25.665 41.318 22.258 42.736 18.52 42.736C10.519 42.736 4.025 36.243 4.025 28.241C4.025 20.271 10.468 13.797 18.427 13.745C18.458 13.745 18.489 13.745 18.52 13.745C22.258 13.745 25.666 15.163 28.238 17.49C30.809 15.162 34.219 13.743 37.96 13.742C45.966 13.739 52.457 20.228 52.459 28.234C52.457 28.236 52.457 28.237 52.457 28.241Z" fill="white" fill-opacity="0.9"/>
<path d="M26.7529 37.406C27.2119 37.968 27.6979 38.504 28.2349 38.99C28.2469 38.979 28.2599 38.969 28.2719 38.959C28.2719 38.959 28.2709 38.959 28.2709 38.958H28.2739C28.8019 38.477 29.2949 37.959 29.7459 37.406H26.7529Z" fill="white" fill-opacity="0.9"/>
<path d="M28.7271 29.4499C28.7271 29.4499 28.9301 28.4499 28.9301 28.0429C28.9301 27.0259 28.4241 25.7859 26.7301 25.7859C25.1781 25.7869 24.0291 27.4589 24.0291 29.3489C24.0291 31.5299 25.4681 32.0479 26.6951 32.0479C27.8271 32.0479 28.3251 31.7939 28.3251 31.7939L28.5971 30.3059C28.5971 30.3059 27.7361 30.6859 26.9581 30.6859C25.3011 30.6859 25.5911 29.4499 25.5911 29.4499H28.7271ZM26.7351 27.1709C27.6061 27.1709 27.4451 28.1499 27.4451 28.2279H25.7321C25.7321 28.1269 25.8941 27.1709 26.7351 27.1709Z" fill="white" fill-opacity="0.9"/>
<path d="M35.9651 25.9909C36.7501 25.9909 37.3811 26.4319 37.3811 26.4319L37.6331 24.7969C37.6331 24.7969 36.6991 24.4189 35.8951 24.4189C34.1141 24.4189 32.3811 25.9649 32.3811 28.8679C32.3811 30.7929 33.3161 32.0639 35.1581 32.0639C35.6781 32.0639 36.5081 31.8529 36.5081 31.8529L36.7841 30.1689C36.7841 30.1689 36.0281 30.5479 35.5081 30.5479C34.4121 30.5469 33.9731 29.7109 33.9731 28.8149C33.9731 26.9919 34.9151 25.9909 35.9651 25.9909Z" fill="white" fill-opacity="0.9"/>
<path d="M24.8181 34.3611C25.0691 34.9001 25.3611 35.4131 25.6741 35.9131H30.8171C31.1291 35.4151 31.4101 34.8971 31.6611 34.3611H24.8181Z" fill="white" fill-opacity="0.9"/>
<path d="M32.3529 25.8871C31.6619 25.8871 31.1499 26.8301 31.1499 26.8301L31.2889 25.9631H29.8519L28.8889 31.9451H30.4729C30.9219 29.3901 31.0059 27.3161 32.0769 27.6951C32.2649 26.7061 32.4459 26.3231 32.6509 25.9051C32.6509 25.9051 32.5549 25.8851 32.3529 25.8871Z" fill="white" fill-opacity="0.9"/>
</g>
<defs>
<clipPath id="clip0">
<rect width="56.48" height="56.48" fill="white"/>
</clipPath>
</defs>
</svg>
