<svg width="57" height="57" viewBox="0 0 57 57" fill="none" xmlns="http://www.w3.org/2000/svg">
<g clip-path="url(#clip0)">
<path d="M12.121 24.861C11.892 24.711 11.551 24.635 11.103 24.635L10.72 24.637C10.469 24.635 10.212 24.837 10.163 25.081L9.81004 26.601C9.75504 26.847 9.91204 27.048 10.166 27.048H10.452C11.087 27.048 11.579 26.919 11.932 26.659C12.285 26.401 12.466 26.034 12.458 25.559C12.46 25.245 12.347 25.01 12.121 24.861Z" fill="white" fill-opacity="0.9"/>
<path d="M18.3709 28.364C18.3019 28.366 17.7729 28.426 17.5049 28.459C17.2049 28.502 16.9449 28.562 16.7339 28.633L16.2379 28.971C16.1219 29.117 16.0669 29.303 16.0669 29.542L16.2929 29.98C16.4459 30.066 16.6719 30.108 16.9599 30.108C17.1499 30.108 17.3559 30.062 17.5719 29.974L18.0319 29.737L18.2139 29.495C18.2859 29.213 18.4349 28.586 18.4519 28.508L18.3709 28.364Z" fill="white" fill-opacity="0.9"/>
<path d="M55.026 9.93896H1.454C0.65 9.93896 0 10.59 0 11.393V45.087C0 45.89 0.65 46.542 1.454 46.542H55.026C55.83 46.542 56.48 45.891 56.48 45.088V11.393C56.48 10.59 55.83 9.93896 55.026 9.93896ZM13.484 27.695C12.688 28.281 11.58 28.573 10.148 28.575H9.814C9.557 28.575 9.306 28.777 9.253 29.019L8.851 30.757C8.794 31.005 8.543 31.203 8.289 31.203H7.119C6.865 31.203 6.706 30.999 6.766 30.757L8.411 23.594C8.471 23.348 8.72 23.151 8.974 23.147L11.418 23.146C11.946 23.151 12.403 23.183 12.799 23.255C13.189 23.329 13.529 23.453 13.817 23.629C14.093 23.803 14.316 24.036 14.456 24.318C14.612 24.6 14.681 24.953 14.681 25.373C14.681 26.333 14.286 27.109 13.484 27.695ZM20.746 26.781L20.702 27.082L19.848 30.774C19.798 30.996 19.578 31.185 19.345 31.212L19.329 31.218H19.16H18.262H18.241L18.237 31.214C18.014 31.193 17.876 31.004 17.924 30.776V30.774L17.926 30.767L17.97 30.579L17.964 30.572L17.523 30.863L17.043 31.131L16.477 31.325C16.303 31.367 16.058 31.392 15.742 31.392C15.243 31.392 14.825 31.255 14.509 30.972C14.195 30.683 14.033 30.314 14.033 29.862C14.033 29.382 14.144 28.976 14.367 28.638C14.598 28.302 14.928 28.04 15.374 27.844C15.789 27.655 16.288 27.515 16.858 27.436C17.44 27.352 17.92 27.291 18.585 27.249L18.753 27.145L18.774 26.98C18.774 26.726 18.656 26.551 18.421 26.448C18.183 26.348 17.825 26.298 17.357 26.298C17.039 26.294 16.639 26.359 16.26 26.445C15.863 26.535 15.754 26.594 15.56 26.652C15.47 26.683 15.253 26.698 15.334 26.322L15.477 25.733C15.477 25.733 15.547 25.288 15.992 25.191C16.207 25.143 16.241 25.134 16.592 25.08C17.067 25.007 17.537 24.97 18.008 24.97C18.961 24.97 19.659 25.094 20.1 25.343C20.543 25.591 20.769 25.979 20.767 26.5L20.746 26.781ZM22.627 34.055L21.415 34.057C21.163 34.057 21.08 33.857 21.234 33.611L22.271 31.803C22.271 31.803 22.354 31.7 22.28 31.11C22.12 30.044 21.324 25.512 21.324 25.512C21.266 25.267 21.422 25.066 21.674 25.066L22.723 25.064C23.044 25.064 23.302 25.275 23.36 25.523L23.882 28.666L24.076 28.668C24.239 28.379 25.915 25.503 25.915 25.503C26.075 25.261 26.399 25.056 26.651 25.056C26.651 25.056 27.778 25.059 28.055 25.056C28.471 25.05 28.023 25.724 28.023 25.724L23.359 33.611C23.209 33.857 22.877 34.055 22.627 34.055ZM34.744 27.726C33.945 28.309 32.832 28.604 31.4 28.604H31.066C30.814 28.6 30.562 28.805 30.504 29.047L30.108 30.788C30.05 31.031 29.794 31.231 29.546 31.228L28.373 31.231C28.124 31.232 27.96 31.03 28.02 30.787L29.666 23.62C29.726 23.377 29.972 23.179 30.226 23.175L32.673 23.173C33.198 23.175 33.66 23.212 34.048 23.281C34.443 23.353 34.783 23.477 35.067 23.654C35.346 23.833 35.565 24.062 35.711 24.346C35.861 24.626 35.934 24.98 35.936 25.4C35.936 26.359 35.535 27.133 34.744 27.726ZM42.002 26.786L41.959 27.089L41.103 30.778C41.055 31.001 40.834 31.19 40.604 31.218L40.588 31.224H40.42C40.178 31.224 39.668 31.224 39.521 31.224H39.5L39.498 31.218C39.271 31.197 39.131 31.009 39.186 30.78L39.184 30.777L39.189 30.773L39.228 30.585L39.221 30.576L38.783 30.871L38.3 31.138L37.735 31.329C37.561 31.374 37.315 31.393 37.002 31.398C36.502 31.398 36.088 31.256 35.77 30.975C35.454 30.689 35.291 30.318 35.291 29.864C35.291 29.387 35.402 28.979 35.626 28.643C35.855 28.307 36.19 28.046 36.632 27.848C37.05 27.658 37.552 27.52 38.119 27.44C38.697 27.356 39.177 27.295 39.847 27.254L40.015 27.148L40.033 26.983C40.033 26.731 39.917 26.554 39.679 26.452C39.441 26.351 39.083 26.301 38.617 26.301C38.297 26.299 37.896 26.363 37.518 26.448C37.123 26.54 37.016 26.597 36.823 26.655C36.725 26.684 36.514 26.701 36.594 26.325L36.737 25.737C36.737 25.737 36.804 25.291 37.251 25.195C37.468 25.148 37.503 25.137 37.853 25.086C38.325 25.01 38.798 24.973 39.269 24.973C40.218 24.973 40.915 25.099 41.36 25.348C41.806 25.596 42.029 25.982 42.029 26.503L42.002 26.786ZM45.752 23.679L44.184 30.78L44.129 30.864C44.036 31.064 43.838 31.226 43.623 31.226H42.535L42.515 31.201C42.308 31.169 42.173 31.002 42.222 30.784L42.22 30.779L42.267 30.574L43.733 23.912L43.785 23.68L43.844 23.589C43.939 23.393 44.133 23.234 44.348 23.234H45.395C45.65 23.234 45.803 23.433 45.749 23.677L45.752 23.679ZM47.83 22.911H47.438V23.432L47.441 23.572L47.468 23.666L47.53 23.726L47.65 23.745L47.748 23.731L47.821 23.709H47.83V23.88L47.713 23.903L47.602 23.912L47.336 23.817L47.245 23.517V22.911H47.113V22.749H47.245V22.424H47.438V22.749H47.83V22.911ZM49.725 23.15V23.887H49.536V23.237L49.524 23.098L49.499 22.988L49.433 22.923L49.306 22.9L49.147 22.941L48.984 23.044L48.987 23.1L48.989 23.16V23.889H48.799V23.239L48.791 23.098L48.764 22.989L48.7 22.924L48.571 22.901L48.414 22.94L48.255 23.039V23.889H48.067V22.75H48.255V22.877L48.437 22.761L48.625 22.719L48.823 22.766L48.945 22.902L49.155 22.761L49.36 22.719L49.637 22.832L49.727 23.15H49.725Z" fill="white" fill-opacity="0.9"/>
<path d="M39.6279 28.3699C39.5589 28.3689 39.0319 28.4309 38.7679 28.4649C38.4649 28.5079 38.2059 28.5669 37.9969 28.6389C37.7829 28.7229 37.6089 28.8359 37.4959 28.9769C37.3839 29.1229 37.3279 29.3089 37.3279 29.5489L37.5569 29.9859C37.7029 30.0729 37.9259 30.1149 38.2229 30.1149C38.4099 30.1149 38.6159 30.0689 38.8309 29.9819L39.2879 29.7449L39.4759 29.5029C39.5459 29.2179 39.6979 28.5929 39.7099 28.5149L39.6279 28.3699Z" fill="white" fill-opacity="0.9"/>
<path d="M33.3719 24.8879C33.1409 24.7369 32.8049 24.6629 32.3559 24.6609L31.9749 24.6629C31.7229 24.6609 31.4669 24.8649 31.4149 25.1079L31.0609 26.6269C31.0039 26.8709 31.1669 27.0749 31.4199 27.0729H31.7109C32.3439 27.0729 32.8349 26.9429 33.1889 26.6889C33.5389 26.4279 33.7169 26.0639 33.7149 25.5849C33.7089 25.2729 33.5999 25.0379 33.3719 24.8879Z" fill="white" fill-opacity="0.9"/>
</g>
<defs>
<clipPath id="clip0">
<rect width="56.48" height="56.48" fill="white"/>
</clipPath>
</defs>
</svg>
