<svg width="57" height="57" viewBox="0 0 57 57" fill="none" xmlns="http://www.w3.org/2000/svg">
<g clip-path="url(#clip0)">
<path d="M55.026 9.93896H1.454C0.65 9.93896 0 10.59 0 11.393V45.088C0 45.891 0.65 46.542 1.454 46.542H55.026C55.83 46.542 56.48 45.891 56.48 45.088V11.393C56.48 10.59 55.83 9.93896 55.026 9.93896ZM4.373 21H10.401C11.214 21.031 11.869 21.29 12.095 22.159L13.406 28.464C12.118 25.166 9.014 22.422 4.323 21.286L4.373 21ZM11.667 35.38L8.185 23.484C10.688 25.086 12.82 27.628 13.571 29.397L13.977 30.866L17.785 21.137H21.905L15.782 35.377L11.667 35.38ZM24.933 35.39H21.045L23.476 21.122H27.366L24.933 35.39ZM31.699 35.604C29.956 35.586 28.277 35.241 27.367 34.842L27.914 31.649L28.415 31.876C29.692 32.409 30.519 32.625 32.076 32.625C33.193 32.625 34.39 32.188 34.401 31.232C34.408 30.607 33.9 30.161 32.386 29.461C30.91 28.779 28.956 27.635 28.98 25.586C29.001 22.813 31.709 20.878 35.552 20.878C37.058 20.878 38.265 21.188 39.035 21.477L38.51 24.57L38.159 24.405C37.443 24.117 36.522 23.839 35.249 23.859C33.727 23.859 33.021 24.493 33.021 25.086C33.013 25.754 33.845 26.194 35.205 26.856C37.448 27.874 38.485 29.109 38.471 30.732C38.441 33.692 35.788 35.604 31.699 35.604ZM48.549 35.396C48.549 35.396 48.194 33.756 48.076 33.258C47.51 33.258 43.542 33.252 43.096 33.252C42.945 33.637 42.279 35.396 42.279 35.396H38.196L43.969 22.321C44.379 21.392 45.074 21.137 46.006 21.137H49.01L52.157 35.395L48.549 35.396Z" fill="white" fill-opacity="0.9"/>
<path d="M46.5421 26.2151L46.2801 24.9851C46.0821 25.5221 45.7411 26.3851 45.7631 26.3471C45.7631 26.3471 44.5341 29.5141 44.2141 30.3351H47.4431C47.2871 29.6201 46.5421 26.2151 46.5421 26.2151Z" fill="white" fill-opacity="0.9"/>
</g>
<defs>
<clipPath id="clip0">
<rect width="56.48" height="56.48" fill="white"/>
</clipPath>
</defs>
</svg>
