<svg width="57" height="57" viewBox="0 0 57 57" fill="none" xmlns="http://www.w3.org/2000/svg">
<g clip-path="url(#clip0)">
<path d="M55.026 9.93896H1.454C0.65 9.93896 0 10.59 0 11.393V45.088C0 45.891 0.65 46.542 1.454 46.542H55.026C55.83 46.542 56.48 45.891 56.48 45.088V11.393C56.48 10.59 55.83 9.93896 55.026 9.93896ZM52.184 26.254L51.405 26.957L50.702 26.176L51.482 25.473L52.184 26.254ZM48.172 25.573L47.117 24.401L48.289 23.346L49.344 24.518L48.172 25.573ZM49.368 25.702L50.424 26.873L49.252 27.928L48.197 26.757L49.368 25.702ZM47.219 25.314L45.657 26.72L44.252 25.158L45.814 23.752L47.219 25.314ZM46.93 26.417L48.336 27.979L46.774 29.384L45.368 27.822L46.93 26.417ZM48.041 29.117L49.447 30.679L47.885 32.087L46.479 30.525L48.041 29.117ZM49.198 29.232L50.37 28.176L51.426 29.348L50.254 30.403L49.198 29.232ZM51.188 23.932L50.407 24.635L49.704 23.854L50.485 23.151L51.188 23.932ZM8.19 30.846H7.38L6.361 27.107H6.308L5.319 30.846H4.509L3.295 25.534H4.135L4.974 29.498H5.027L6.001 25.534H6.668L7.71 29.498H7.763L8.528 25.534H9.405L8.19 30.846ZM12.838 29.117H10.396C10.396 30.015 10.763 30.414 11.535 30.414C11.939 30.414 12.314 30.271 12.726 30.024V30.593C12.389 30.787 11.939 30.938 11.4 30.938C10.141 30.938 9.624 30.159 9.624 28.974C9.624 27.835 10.201 27.012 11.325 27.012C12.262 27.012 12.839 27.619 12.839 28.842L12.838 29.117ZM14.981 30.937C14.584 30.937 13.969 30.809 13.519 30.57V25.34L14.298 25.153V27.289C14.524 27.169 14.905 27.012 15.311 27.012C16.24 27.012 16.742 27.657 16.742 28.856C16.742 30.257 16.068 30.937 14.981 30.937ZM22.724 30.846H22.722H21.913V26.994H21.846L20.317 30.846H19.838L18.309 27.084H18.242V30.846H17.568V25.534H18.474L20.153 29.723H20.191L21.795 25.534H22.724V30.846ZM25.256 30.937C24.23 30.937 23.547 30.254 23.547 28.973C23.547 27.661 24.267 27.011 25.256 27.011C26.245 27.011 26.965 27.663 26.965 28.973C26.965 30.257 26.283 30.937 25.256 30.937ZM30.824 30.846H30.045V28.305C30.045 27.714 29.754 27.609 29.37 27.609C29.07 27.609 28.688 27.744 28.456 27.879V30.846H27.677V27.564C28.014 27.362 28.726 27.01 29.588 27.01C30.487 27.01 30.824 27.362 30.824 28.134V30.846ZM34.736 29.117H32.293C32.293 30.015 32.66 30.414 33.434 30.414C33.838 30.414 34.213 30.271 34.624 30.024V30.593C34.286 30.787 33.838 30.938 33.297 30.938C32.038 30.938 31.523 30.159 31.523 28.974C31.523 27.835 32.1 27.012 33.223 27.012C34.161 27.012 34.738 27.619 34.738 28.842L34.736 29.117ZM37.096 30.885C36.721 31.918 36.264 32.458 35.404 32.458V31.844C35.914 31.844 36.227 31.44 36.408 30.885L34.97 27.137H35.794L36.753 29.895H36.798L37.652 27.137H38.454L37.096 30.885ZM49.803 33.952C48.848 34.497 47.741 34.808 46.566 34.808C42.949 34.808 39.998 31.858 39.998 28.241C39.998 24.624 42.949 21.673 46.566 21.673C47.596 21.673 48.574 21.913 49.444 22.339C49.581 22.404 49.717 22.476 49.852 22.554L49.248 23.095L48.34 22.156L46.807 23.524L45.898 22.53L43.041 25.104L44.872 27.123L44.152 27.755L45.956 29.776L45.24 30.408L47.818 33.277L49.346 31.869L50.668 33.379C50.406 33.581 50.12 33.773 49.803 33.952ZM51.284 32.768L50.228 31.598L51.4 30.542L52.455 31.713L51.284 32.768ZM52.402 29.276L51.699 28.495L52.48 27.792L53.183 28.573L52.402 29.276Z" fill="white" fill-opacity="0.9"/>
<path d="M25.256 27.5359C24.762 27.5359 24.334 27.9619 24.334 28.9739C24.334 30.0009 24.724 30.4129 25.256 30.4129C25.788 30.4129 26.178 30.0009 26.178 28.9739C26.178 27.9609 25.765 27.5359 25.256 27.5359Z" fill="white" fill-opacity="0.9"/>
<path d="M15.108 27.5959C14.81 27.5959 14.592 27.6779 14.292 27.8429V30.2939C14.532 30.3989 14.793 30.4139 14.981 30.4139C15.536 30.4139 15.956 30.0689 15.956 28.8549C15.956 27.9029 15.61 27.5959 15.108 27.5959Z" fill="white" fill-opacity="0.9"/>
<path d="M33.1999 27.5129C32.7419 27.5129 32.3899 27.8649 32.3059 28.6139H34.0239C33.9869 27.8279 33.6039 27.5129 33.1999 27.5129Z" fill="white" fill-opacity="0.9"/>
<path d="M11.3019 27.5129C10.8449 27.5129 10.4919 27.8649 10.4099 28.6139H12.1259C12.0889 27.8279 11.7069 27.5129 11.3019 27.5129Z" fill="white" fill-opacity="0.9"/>
</g>
<defs>
<clipPath id="clip0">
<rect width="56.48" height="56.48" fill="white"/>
</clipPath>
</defs>
</svg>
