<svg width="100" height="100" viewBox="0 0 100 100" fill="none" xmlns="http://www.w3.org/2000/svg">
<path d="M71.6644 41.6676C56.0166 41.6676 43.3311 54.3532 43.3311 70.001C43.3311 85.6488 56.0166 98.3343 71.6644 98.3343C87.3122 98.3343 99.9977 85.6488 99.9977 70.001C99.9806 54.3605 87.3049 41.6847 71.6644 41.6676ZM71.6644 95.001C57.8574 95.001 46.6644 83.8079 46.6644 70.001C46.6644 56.194 57.8574 45.001 71.6644 45.001C85.4714 45.001 96.6644 56.194 96.6644 70.001C96.6489 83.8014 85.4648 94.9855 71.6644 95.001Z" fill="#2B388F"/>
<path d="M73.3226 65.3081V55.0013H69.9892V65.3081C68.5773 65.8119 67.4665 66.9227 66.9627 68.3347H59.9893V71.668H66.9627C67.7334 73.862 69.9184 75.2325 72.2296 74.9712C74.5408 74.7092 76.3638 72.8863 76.6258 70.5751C76.887 68.2639 75.5166 66.0788 73.3226 65.3081ZM71.6559 71.668C70.7355 71.668 69.9892 70.9217 69.9892 70.0013C69.9892 69.0809 70.7355 68.3347 71.6559 68.3347C72.5763 68.3347 73.3226 69.0809 73.3226 70.0013C73.3226 70.9217 72.5763 71.668 71.6559 71.668Z" fill="#2B388F"/>
<path d="M50 68.3315H53.3333V71.6648H50V68.3315Z" fill="#2B388F"/>
<path d="M70.0049 88.3336H73.3382V91.6669H70.0049V88.3336Z" fill="#2B388F"/>
<path d="M90.0107 68.3315H93.3441V71.6648H90.0107V68.3315Z" fill="#2B388F"/>
<path d="M70.0049 48.3328H73.3382V51.6661H70.0049V48.3328Z" fill="#2B388F"/>
<path d="M3.33333 73.3339V25.0005H80V40.0005H83.3333V16.6672C83.3276 12.0668 79.6004 8.33957 75 8.33387H63.3333V6.66721C63.3333 3.90598 61.0946 1.66721 58.3333 1.66721C55.5721 1.66721 53.3333 3.90598 53.3333 6.66721V8.33387H30V6.66721C30 3.90598 27.7612 1.66721 25 1.66721C22.2388 1.66721 20 3.90598 20 6.66721V8.33387H8.33333C3.73291 8.33957 0.00569662 12.0668 0 16.6672V73.3339C0.00569662 77.9343 3.73291 81.6615 8.33333 81.6672H41.6667V78.3339H8.33333C5.5721 78.3339 3.33333 76.0951 3.33333 73.3339ZM56.6667 6.66721C56.6667 5.7468 57.4129 5.00054 58.3333 5.00054C59.2537 5.00054 60 5.7468 60 6.66721V13.3339C60 14.2543 59.2537 15.0005 58.3333 15.0005C57.4129 15.0005 56.6667 14.2543 56.6667 13.3339V6.66721ZM23.3333 6.66721C23.3333 5.7468 24.0796 5.00054 25 5.00054C25.9204 5.00054 26.6667 5.7468 26.6667 6.66721V13.3339C26.6667 14.2543 25.9204 15.0005 25 15.0005C24.0796 15.0005 23.3333 14.2543 23.3333 13.3339V6.66721ZM8.33333 11.6672H20V13.3339C20 16.0951 22.2388 18.3339 25 18.3339C27.7612 18.3339 30 16.0951 30 13.3339V11.6672H53.3333V13.3339C53.3333 16.0951 55.5721 18.3339 58.3333 18.3339C61.0946 18.3339 63.3333 16.0951 63.3333 13.3339V11.6672H75C77.7612 11.6672 80 13.906 80 16.6672V21.6672H3.33333V16.6672C3.33333 13.906 5.5721 11.6672 8.33333 11.6672Z" fill="#2B388F"/>
<path d="M23.3226 38.3359C23.3226 36.4951 21.8301 35.0026 19.9893 35.0026H13.3226C11.4818 35.0026 9.98926 36.4951 9.98926 38.3359V45.0025C9.98926 46.8434 11.4818 48.3359 13.3226 48.3359H19.9893C21.8301 48.3359 23.3226 46.8434 23.3226 45.0025V38.3359ZM13.3226 45.0025V38.3359H19.9893V45.0025H13.3226Z" fill="#2B388F"/>
<path d="M40.0072 38.3359C40.0072 36.4951 38.5146 35.0026 36.6738 35.0026H30.0072C28.1663 35.0026 26.6738 36.4951 26.6738 38.3359V45.0025C26.6738 46.8434 28.1663 48.3359 30.0072 48.3359H36.6738C38.5146 48.3359 40.0072 46.8434 40.0072 45.0025V38.3359ZM30.0072 45.0025V38.3359H36.6738V45.0025H30.0072Z" fill="#2B388F"/>
<path d="M56.6644 43.3359V38.3359C56.6644 36.4951 55.1718 35.0026 53.331 35.0026H46.6644C44.8236 35.0026 43.3311 36.4951 43.3311 38.3359V45.0025C43.3311 46.8434 44.8236 48.3359 46.6644 48.3359H49.9977V45.0025H46.6644V38.3359H53.331V43.3359H56.6644Z" fill="#2B388F"/>
<path d="M19.9893 55.0013H13.3226C11.4818 55.0013 9.98926 56.4938 9.98926 58.3346V65.0013C9.98926 66.8421 11.4818 68.3346 13.3226 68.3346H19.9893C21.8301 68.3346 23.3226 66.8421 23.3226 65.0013V58.3346C23.3226 56.4938 21.8301 55.0013 19.9893 55.0013ZM13.3226 65.0013V58.3346H19.9893V65.0013H13.3226Z" fill="#2B388F"/>
<path d="M36.6738 55.0013H30.0072C28.1663 55.0013 26.6738 56.4938 26.6738 58.3346V65.0013C26.6738 66.8421 28.1663 68.3346 30.0072 68.3346H36.6738C38.5146 68.3346 40.0072 66.8421 40.0072 65.0013V58.3346C40.0072 56.4938 38.5146 55.0013 36.6738 55.0013ZM30.0072 65.0013V58.3346H36.6738V65.0013H30.0072Z" fill="#2B388F"/>
<path d="M73.3226 40.0026V38.3359C73.3226 36.4951 71.8301 35.0026 69.9893 35.0026H63.3226C61.4818 35.0026 59.9893 36.4951 59.9893 38.3359V40.0026H63.3226V38.3359H69.9893V40.0026H73.3226Z" fill="#2B388F"/>
</svg>
