<svg width="79" height="100" viewBox="0 0 79 100" fill="none" xmlns="http://www.w3.org/2000/svg">
<path d="M54.0232 0H0V100H78.3332V24.31L54.0232 0ZM54.9999 5.69L72.6432 23.3333H54.9999V5.69ZM3.33333 96.6667V3.33333H51.6666V26.6667H74.9999V96.6667H3.33333Z" fill="#2B388F"/>
<path d="M60.0003 34.9987H33.3337C32.4137 34.9987 31.667 35.7437 31.667 36.6653C31.667 37.587 32.4137 38.332 33.3337 38.332H60.0003C60.9203 38.332 61.667 37.587 61.667 36.6653C61.667 35.7437 60.9203 34.9987 60.0003 34.9987Z" fill="#2B388F"/>
<path d="M27.296 30.3662L20.1277 36.1013L17.8493 33.8229C17.1977 33.1712 16.1443 33.1712 15.4927 33.8229C14.841 34.4746 14.841 35.5279 15.4927 36.1796L18.826 39.5129C19.1493 39.8363 19.576 40.0013 20.0043 40.0013C20.371 40.0013 20.7393 39.8813 21.0443 39.6363L29.3777 32.9696C30.0977 32.3929 30.2127 31.3446 29.6377 30.6262C29.0643 29.9062 28.0143 29.7912 27.296 30.3662Z" fill="#2B388F"/>
<path d="M60.0003 53.3336H33.3337C32.4137 53.3336 31.667 54.0786 31.667 55.0003C31.667 55.922 32.4137 56.667 33.3337 56.667H60.0003C60.9203 56.667 61.667 55.922 61.667 55.0003C61.667 54.0786 60.9203 53.3336 60.0003 53.3336Z" fill="#2B388F"/>
<path d="M27.296 48.6967L20.1277 54.4317L17.8493 52.1534C17.1977 51.5017 16.1443 51.5017 15.4927 52.1534C14.841 52.8051 14.841 53.8584 15.4927 54.5101L18.826 57.8434C19.1493 58.1667 19.576 58.3317 20.0043 58.3317C20.371 58.3317 20.7393 58.2117 21.0443 57.9667L29.3777 51.3001C30.0977 50.7234 30.2127 49.6751 29.6377 48.9567C29.0643 48.2367 28.0143 48.1217 27.296 48.6967Z" fill="#2B388F"/>
<path d="M60.0003 71.6664H33.3337C32.4137 71.6664 31.667 72.4114 31.667 73.333C31.667 74.2547 32.4137 74.9997 33.3337 74.9997H60.0003C60.9203 74.9997 61.667 74.2547 61.667 73.333C61.667 72.4114 60.9203 71.6664 60.0003 71.6664Z" fill="#2B388F"/>
<path d="M27.296 67.0317L20.1277 72.7668L17.8493 70.4884C17.1977 69.8367 16.1443 69.8367 15.4927 70.4884C14.841 71.1401 14.841 72.1934 15.4927 72.8451L18.826 76.1785C19.1493 76.5018 19.576 76.6668 20.0043 76.6668C20.371 76.6668 20.7393 76.5468 21.0443 76.3018L29.3777 69.6351C30.0977 69.0584 30.2127 68.01 29.6377 67.2917C29.0643 66.5717 28.0143 66.4567 27.296 67.0317Z" fill="#2B388F"/>
</svg>
