<svg width="100" height="100" viewBox="0 0 100 100" fill="none" xmlns="http://www.w3.org/2000/svg">
<path d="M57.8125 44.1406C58.8905 44.1406 59.7656 43.2655 59.7656 42.1875C59.7656 41.1095 58.8905 40.2344 57.8125 40.2344C56.7345 40.2344 55.8594 41.1095 55.8594 42.1875C55.8594 43.2655 56.7345 44.1406 57.8125 44.1406Z" fill="#2B388F"/>
<path d="M57.8125 55.8594C58.8905 55.8594 59.7656 54.9843 59.7656 53.9062C59.7656 52.8282 58.8905 51.9531 57.8125 51.9531C56.7345 51.9531 55.8594 52.8282 55.8594 53.9062C55.8594 54.9843 56.7345 55.8594 57.8125 55.8594Z" fill="#2B388F"/>
<path d="M98.0469 16.7969H81.25C80.1712 16.7969 79.2969 17.6712 79.2969 18.75C79.2969 21.981 76.6685 24.6094 73.4375 24.6094C70.2065 24.6094 67.5781 21.981 67.5781 18.75C67.5781 17.6712 66.7038 16.7969 65.625 16.7969H34.375C33.2962 16.7969 32.4219 17.6712 32.4219 18.75C32.4219 21.981 29.7935 24.6094 26.5625 24.6094C23.3315 24.6094 20.7031 21.981 20.7031 18.75C20.7031 17.6712 19.8288 16.7969 18.75 16.7969H1.95312C0.874328 16.7969 0 17.6712 0 18.75V81.25C0 82.3288 0.874328 83.2031 1.95312 83.2031H98.0469C99.1257 83.2031 100 82.3288 100 81.25V18.75C100 17.6712 99.1257 16.7969 98.0469 16.7969ZM96.0938 79.2969H3.90625V20.7031H16.993C17.9001 25.1549 21.8468 28.5156 26.5625 28.5156C31.2782 28.5156 35.2242 25.1549 36.132 20.7031H63.868C64.7758 25.1549 68.7218 28.5156 73.4375 28.5156C78.1532 28.5156 82.0999 25.1549 83.007 20.7031H96.0938V79.2969Z" fill="#2B388F"/>
<path d="M35.0227 53.3676C37.0209 51.5778 38.2812 48.9807 38.2812 46.0938C38.2812 40.7089 33.9005 36.3281 28.5156 36.3281C23.1308 36.3281 18.75 40.7089 18.75 46.0938C18.75 48.9845 20.0134 51.5846 22.0161 53.3745C16.6374 55.8456 12.8906 61.2808 12.8906 67.5781V69.5312C12.8906 70.61 13.765 71.4844 14.8438 71.4844H42.1875C43.2663 71.4844 44.1406 70.61 44.1406 69.5312V67.5781C44.1406 61.1702 40.3206 55.7968 35.0227 53.3676ZM22.6562 46.0938C22.6562 42.8627 25.2846 40.2344 28.5156 40.2344C31.7467 40.2344 34.375 42.8627 34.375 46.0938C34.375 49.3248 31.7467 51.9531 28.5156 51.9531C25.2846 51.9531 22.6562 49.3248 22.6562 46.0938ZM16.7969 67.5781C16.7969 61.116 22.0535 55.8594 28.5156 55.8594C34.98 55.8594 40.2344 61.0893 40.2344 67.5781H16.7969Z" fill="#2B388F"/>
<path d="M86.3281 51.9531H65.625C64.5462 51.9531 63.6719 52.8275 63.6719 53.9062C63.6719 54.985 64.5462 55.8594 65.625 55.8594H86.3281C87.4069 55.8594 88.2812 54.985 88.2812 53.9062C88.2812 52.8275 87.4069 51.9531 86.3281 51.9531Z" fill="#2B388F"/>
<path d="M63.6719 42.1875C63.6719 43.2663 64.5462 44.1406 65.625 44.1406H86.3281C87.4069 44.1406 88.2812 43.2663 88.2812 42.1875C88.2812 41.1087 87.4069 40.2344 86.3281 40.2344H65.625C64.5462 40.2344 63.6719 41.1087 63.6719 42.1875Z" fill="#2B388F"/>
<path d="M86.3281 63.6719H57.8125C56.7337 63.6719 55.8594 64.5462 55.8594 65.625C55.8594 66.7038 56.7337 67.5781 57.8125 67.5781H86.3281C87.4069 67.5781 88.2812 66.7038 88.2812 65.625C88.2812 64.5462 87.4069 63.6719 86.3281 63.6719Z" fill="#2B388F"/>
</svg>
