<svg width="100" height="100" viewBox="0 0 100 100" fill="none" xmlns="http://www.w3.org/2000/svg">
<g clip-path="url(#clip0)">
<path d="M93.3489 51.2957C92.9465 50.4724 92.9465 49.5283 93.3489 48.7052L97.0785 41.0754C99.1551 36.8272 97.5098 31.7637 93.3328 29.5476L85.8309 25.5671C85.0216 25.1378 84.4667 24.3738 84.3083 23.4716L82.8411 15.1066C82.0241 10.4492 77.716 7.31956 73.0349 7.98186L64.6262 9.1713C63.7186 9.29943 62.8211 9.00763 62.1627 8.37072L56.059 2.46607C52.6604 -0.821803 47.3363 -0.821998 43.9378 2.46607L37.834 8.37131C37.1754 9.00841 36.2779 9.29962 35.3705 9.17189L26.9618 7.98244C22.2792 7.31975 17.9726 10.4498 17.1556 15.1072L15.6884 23.4718C15.53 24.3741 14.9751 25.138 14.1659 25.5675L6.66404 29.5479C2.48711 31.7639 0.841805 36.8278 2.91836 41.076L6.64783 48.7056C7.05017 49.5289 7.05017 50.473 6.64783 51.2961L2.91816 58.9257C0.84161 63.1739 2.48691 68.2374 6.66384 70.4536L14.1657 74.434C14.9751 74.8633 15.53 75.6273 15.6884 76.5295L17.1556 84.8945C17.8993 89.1343 21.5348 92.1077 25.7131 92.1073C26.1247 92.1073 26.5422 92.0784 26.962 92.0191L35.3707 90.8296C36.2775 90.7009 37.1756 90.9933 37.8342 91.6302L43.9378 97.5348C45.6374 99.179 47.8175 100.001 49.9983 100.001C52.1786 100 54.36 99.1786 56.0589 97.5348L62.1627 91.6302C62.8213 90.9933 63.719 90.7023 64.6262 90.8296L73.0349 92.0191C77.7181 92.6815 82.0241 89.5517 82.8411 84.8943L84.3085 76.5297C84.4669 75.6274 85.0218 74.8635 85.8309 74.434L93.3328 70.4536C97.5098 68.2375 99.1551 63.1737 97.0785 58.9255L93.3489 51.2957ZM90.6295 65.3585L83.1276 69.3389C80.7359 70.6082 79.0954 72.8657 78.6277 75.5328L77.1605 83.8976C76.8841 85.4734 75.4273 86.5318 73.8427 86.3082L65.434 85.1187C62.7524 84.7388 60.0989 85.6019 58.1526 87.4845L52.0487 93.389C50.8991 94.5011 49.0978 94.5011 47.9478 93.389L41.8441 87.4843C40.1992 85.8931 38.0488 85.0308 35.8039 85.0308C35.3926 85.0308 34.9779 85.0597 34.5627 85.1185L26.154 86.308C24.5708 86.5318 23.1128 85.4732 22.8362 83.8974L21.3688 75.5324C20.9009 72.8653 19.2606 70.6077 16.8687 69.3387L9.36675 65.3583C7.95348 64.6085 7.39684 62.8954 8.09938 61.4581L11.829 53.8283C13.0181 51.3955 13.0181 48.6052 11.829 46.1725L8.09938 38.5426C7.39684 37.1053 7.95348 35.3922 9.36675 34.6424L16.8687 30.662C19.2604 29.3927 20.9009 27.1353 21.3686 24.4681L22.8358 16.1033C23.1124 14.5275 24.569 13.4689 26.1536 13.6928L34.5623 14.8822C37.243 15.2617 39.8974 14.399 41.8437 12.5164L47.9476 6.61175C49.0972 5.49964 50.8985 5.49964 52.0485 6.61175L58.1522 12.5164C60.0985 14.3992 62.7526 15.2617 65.4336 14.8822L73.8423 13.6928C75.4257 13.4687 76.8837 14.5275 77.1601 16.1033L78.6273 24.4683C79.0952 27.1355 80.7355 29.3931 83.1274 30.662L90.6293 34.6424C92.0426 35.3922 92.5993 37.1053 91.8967 38.5426L88.1671 46.1723C86.978 48.6049 86.978 51.3955 88.1671 53.8281L91.8967 61.4577C92.5995 62.8954 92.0428 64.6087 90.6295 65.3585Z" fill="#2B388F"/>
<path d="M71.0729 28.9284C69.9469 27.8022 68.1208 27.8022 66.9946 28.9284L28.9306 66.9926C27.8044 68.1188 27.8044 69.9447 28.9306 71.0709C29.4936 71.634 30.2317 71.9156 30.9696 71.9156C31.7075 71.9156 32.4458 71.6342 33.0087 71.0709L71.0727 33.0069C72.1993 31.8805 72.1993 30.0547 71.0729 28.9284Z" fill="#2B388F"/>
<path d="M38.4646 24.0454C32.6342 24.0454 27.8906 28.7889 27.8906 34.6193C27.8906 40.4498 32.6342 45.1933 38.4646 45.1933C44.295 45.1933 49.0385 40.4498 49.0385 34.6193C49.0385 28.7889 44.295 24.0454 38.4646 24.0454ZM38.4646 39.4256C35.8144 39.4256 33.6584 37.2695 33.6584 34.6192C33.6584 31.969 35.8144 29.8129 38.4646 29.8129C41.1148 29.8129 43.271 31.969 43.271 34.6192C43.2708 37.2695 41.1148 39.4256 38.4646 39.4256Z" fill="#2B388F"/>
<path d="M61.5398 54.8048C55.7094 54.8048 50.9658 59.5483 50.9658 65.3788C50.9658 71.2092 55.7094 75.9527 61.5398 75.9527C67.3702 75.9527 72.1138 71.2092 72.1138 65.3788C72.1138 59.5483 67.3702 54.8048 61.5398 54.8048ZM61.5398 70.185C58.8896 70.185 56.7334 68.029 56.7334 65.3788C56.7334 62.7286 58.8894 60.5726 61.5398 60.5726C64.19 60.5726 66.346 62.7286 66.346 65.3788C66.346 68.029 64.19 70.185 61.5398 70.185Z" fill="#2B388F"/>
</g>
<defs>
<clipPath id="clip0">
<rect width="100" height="100" fill="white"/>
</clipPath>
</defs>
</svg>
