<svg width="20" height="20" viewBox="0 0 20 20" fill="none" xmlns="http://www.w3.org/2000/svg">
<g clip-path="url(#clip0)">
<path d="M0.625541 9.37528H8.54201C8.887 9.37528 9.16699 9.09529 9.16699 8.7503C9.16699 8.40531 8.887 8.12532 8.54201 8.12532H0.625541C0.280551 8.12532 0.00056076 8.40531 0.00056076 8.7503C0.00056076 9.09529 0.280551 9.37528 0.625541 9.37528Z" fill="#2B388F" stroke="white" stroke-width="0.5"/>
<path d="M3.75017 12.5003C3.91023 12.5003 4.07014 12.4394 4.1919 12.317C4.43603 12.0728 4.43603 11.677 4.1919 11.4328L1.50857 8.74965L4.1919 6.06633C4.43603 5.8222 4.43603 5.4264 4.1919 5.18227C3.94761 4.93798 3.55181 4.93798 3.30768 5.18227L0.182778 8.30716C-0.0613556 8.5513 -0.0613556 8.9471 0.182778 9.19123L3.30768 12.3161C3.43021 12.4394 3.59011 12.5003 3.75017 12.5003Z" fill="#2B388F" stroke="white" stroke-width="0.5"/>
<path d="M13.3335 20.0002C13.5119 20.0002 13.6811 19.9751 13.8501 19.9226L18.8651 18.2519C19.5474 18.0135 20 17.3777 20 16.667V1.66744C20 0.748283 19.2525 0.000778198 18.3333 0.000778198C18.1551 0.000778198 17.9859 0.0258018 17.8167 0.0782904L12.8019 1.74908C12.1194 1.98741 11.667 2.62322 11.667 3.33396V18.3335C11.667 19.2526 12.4143 20.0002 13.3335 20.0002ZM18.3333 1.25074C18.5625 1.25074 18.75 1.43826 18.75 1.66744V16.667C18.75 16.8444 18.6309 17.0094 18.4609 17.0686L13.4694 18.7319C13.4336 18.7435 13.3869 18.7502 13.3335 18.7502C13.1043 18.7502 12.9169 18.5627 12.9169 18.3335V3.33396C12.9169 3.1565 13.0361 2.99156 13.2061 2.93236L18.1975 1.26905C18.2334 1.25745 18.2801 1.25074 18.3333 1.25074Z" fill="#2B388F" stroke="white" stroke-width="0.5"/>
<path d="M7.29278 6.66715C7.63777 6.66715 7.91776 6.38716 7.91776 6.04217V2.29229C7.91776 1.71812 8.38513 1.2506 8.9593 1.2506H18.334C18.679 1.2506 18.959 0.970612 18.959 0.625621C18.959 0.280631 18.679 0.000640869 18.334 0.000640869H8.9593C7.69515 0.000640869 6.6678 1.02814 6.6678 2.29229V6.04217C6.6678 6.38716 6.94779 6.66715 7.29278 6.66715Z" fill="#2B388F" stroke="white" stroke-width="0.5"/>
<path d="M8.9577 17.5002H12.291C12.636 17.5002 12.916 17.2202 12.916 16.8752C12.916 16.5302 12.636 16.2502 12.291 16.2502H8.9577C8.38353 16.2502 7.91617 15.7827 7.91617 15.2085V11.4587C7.91617 11.1137 7.63618 10.8337 7.29119 10.8337C6.9462 10.8337 6.66621 11.1137 6.66621 11.4587V15.2085C6.66621 16.4727 7.69355 17.5002 8.9577 17.5002Z" fill="#2B388F" stroke="white" stroke-width="0.5"/>
</g>
<defs>
<clipPath id="clip0">
<rect width="20" height="20" fill="white" transform="matrix(-1 0 0 1 20 0)"/>
</clipPath>
</defs>
</svg>
