<svg width="30" height="30" viewBox="0 0 30 30" fill="none" xmlns="http://www.w3.org/2000/svg">
<g clip-path="url(#clip0)">
<path d="M28.8122 6.61938L15.191 0.0436359C15.0703 -0.0146063 14.9296 -0.0146063 14.8089 0.0436359L1.18771 6.61938C1.03583 6.69268 0.939331 6.84649 0.939331 7.01512V22.9848C0.939331 23.1534 1.03583 23.3072 1.18771 23.3805L14.8089 29.9563C14.8692 29.9854 14.9346 30 15 30C15.0653 30 15.1306 29.9854 15.191 29.9563L28.8122 23.3805C28.9641 23.3072 29.0606 23.1534 29.0606 22.9848V7.01518C29.0606 6.84643 28.964 6.69274 28.8122 6.61938ZM15 0.927405L27.6103 7.01512L23.9548 8.77985C23.9317 8.76221 23.9073 8.74592 23.8804 8.73297L11.3557 2.68668L15 0.927405ZM10.3633 3.18356L22.9553 9.26242L20.3763 10.5075L7.78947 4.43108L10.3633 3.18356ZM23.2499 10.0961V14.6984L20.8409 15.8614V11.2591L23.2499 10.0961ZM28.1817 22.709L15.4394 28.8603V13.8667L18.4788 12.3994C18.6974 12.2938 18.789 12.0312 18.6835 11.8125C18.578 11.594 18.3153 11.5023 18.0967 11.6079L15 13.1029L13.7814 12.5146C13.5628 12.409 13.3002 12.5007 13.1946 12.7193C13.0891 12.9378 13.1807 13.2006 13.3993 13.3061L14.5605 13.8667V28.8603L1.81824 22.7089V7.71526L11.5214 12.3995C11.5829 12.4293 11.648 12.4434 11.7121 12.4434C11.8754 12.4434 12.0324 12.3518 12.1081 12.1949C12.2136 11.9763 12.122 11.7136 11.9035 11.608L2.38959 7.01512L6.75511 4.90762L19.9559 11.2805C19.9579 11.2831 19.96 11.2856 19.962 11.2882V16.5616C19.962 16.7128 20.0398 16.8534 20.1679 16.9338C20.239 16.9785 20.3202 17.001 20.4015 17.001C20.4667 17.001 20.532 16.9865 20.5926 16.9573L23.8804 15.3701C24.0323 15.2968 24.1288 15.143 24.1288 14.9743V9.67188L28.1817 7.71532V22.709Z" fill="black"/>
<path d="M5.44487 21.0046L3.44594 20.0397C3.22727 19.934 2.96465 20.0258 2.85912 20.2443C2.75359 20.4629 2.84523 20.7256 3.06379 20.8311L5.06272 21.7961C5.1243 21.8259 5.1894 21.8399 5.25344 21.8399C5.4168 21.8399 5.57371 21.7484 5.64948 21.5914C5.75506 21.3728 5.66342 21.1102 5.44487 21.0046Z" fill="black"/>
<path d="M7.28455 19.8072L3.44871 17.9554C3.23009 17.8498 2.96742 17.9415 2.86189 18.1601C2.75642 18.3786 2.84806 18.6414 3.06662 18.7469L6.90246 20.5987C6.96404 20.6284 7.02914 20.6425 7.09318 20.6425C7.25654 20.6425 7.41345 20.551 7.48922 20.394C7.59474 20.1754 7.5031 19.9126 7.28455 19.8072Z" fill="black"/>
</g>
<defs>
<clipPath id="clip0">
<rect width="30" height="30" fill="white"/>
</clipPath>
</defs>
</svg>
