<svg width="30" height="30" viewBox="0 0 30 30" fill="none" xmlns="http://www.w3.org/2000/svg">
<g clip-path="url(#clip0)">
<path d="M25.2045 4.51167H4.67836C2.06658 4.51167 -0.0585938 6.63639 -0.0585938 9.24863V12.4065C-0.0585938 13.6706 0.439226 14.8617 1.344 15.759C1.79032 16.2021 2.04667 16.8649 2.04667 17.5758V21.3391C2.04667 23.6691 3.94182 25.5638 6.27138 25.5638H24.0709C26.1473 25.5638 27.8362 23.8749 27.8362 21.7992V17.696C27.8362 16.9237 28.1194 16.2016 28.6334 15.6621C29.4766 14.7775 29.9415 13.6212 29.9415 12.4065V9.24863C29.9415 6.63639 27.8163 4.51167 25.2045 4.51167ZM24.0567 5.5643C24.0908 5.5643 24.1146 5.57415 24.121 5.57964C24.6978 6.09485 24.8225 6.78951 24.5019 7.70436C24.4952 7.72267 24.4799 7.7879 24.3925 7.77577C24.3078 7.77256 24.2913 7.71488 24.2863 7.69589C24.102 7.02847 23.78 6.37157 23.3284 5.7426C23.3021 5.70575 23.2989 5.66639 23.3192 5.62633C23.3337 5.59795 23.3636 5.5643 23.4225 5.5643H24.0567ZM19.1135 5.5643C19.1476 5.5643 19.1714 5.57415 19.1778 5.57964C19.7546 6.09485 19.8794 6.78951 19.5582 7.7039C19.5518 7.72221 19.5429 7.78813 19.4488 7.776C19.3642 7.77279 19.3477 7.71488 19.3424 7.69589C19.1582 7.02847 18.8361 6.3718 18.3845 5.7426C18.3582 5.70598 18.355 5.66639 18.3756 5.62633C18.3898 5.59795 18.4198 5.5643 18.4788 5.5643H19.1135ZM6.27138 24.5117C4.52249 24.5117 3.0993 23.0885 3.0993 21.3396V17.5763C3.0993 16.5864 2.72988 15.6516 2.08558 15.0121C1.38131 14.3131 0.994037 13.388 0.994037 12.4065V9.24863C0.994037 7.21752 2.64657 5.5643 4.67813 5.5643H12.4478C13.9678 5.5643 15.2047 6.80119 15.2047 8.32119V12.4065C15.2047 13.388 14.8172 14.3133 14.1136 15.0117C13.4592 15.6608 13.0994 16.4838 13.0994 17.3296V21.647C13.0994 23.2265 11.8147 24.5112 10.2352 24.5112H6.27138V24.5117ZM28.8889 12.4065C28.8889 13.3491 28.5272 14.2479 27.871 14.937C27.17 15.6727 26.7836 16.6527 26.7836 17.6965V21.7996C26.7836 23.2954 25.5666 24.5117 24.0709 24.5117H12.8978C13.6673 23.7959 14.152 22.7786 14.152 21.6474V17.3302C14.152 16.767 14.4015 16.2092 14.8547 15.7596C15.7593 14.8617 16.2573 13.6706 16.2573 12.4065V8.32119C16.2573 7.23629 15.7993 6.2585 15.0694 5.5643H17.3262C17.2987 5.84057 17.3614 6.12163 17.5303 6.35624C17.9094 6.88427 18.1779 7.42901 18.3289 7.97581C18.4651 8.46837 18.9009 8.81055 19.4147 8.82794C19.4289 8.8284 19.4431 8.8284 19.4573 8.8284C19.9595 8.8284 20.3868 8.52742 20.5532 8.05203C20.8848 7.10629 20.8542 6.26354 20.4836 5.56362H22.27C22.2426 5.83988 22.3051 6.12095 22.4742 6.35578C22.853 6.88381 23.1215 7.42832 23.2725 7.97512C23.411 8.47523 23.8367 8.80986 24.3579 8.82725C24.3721 8.82794 24.3863 8.82794 24.4009 8.82794C24.9031 8.82794 25.3304 8.52742 25.4973 8.05157V8.05088C25.8269 7.10995 25.7978 6.27201 25.4332 5.5746C27.3574 5.69362 28.8889 7.29351 28.8889 9.2484V12.4065Z" fill="black"/>
<path d="M24.6783 15.5644H19.9414C19.6509 15.5644 19.4152 15.7995 19.4152 16.0906C19.4152 16.3818 19.6509 16.6171 19.9414 16.6171H24.6783C24.9687 16.6171 25.2047 16.3818 25.2047 16.0906C25.2045 15.7995 24.9687 15.5644 24.6783 15.5644Z" fill="black"/>
<path d="M17.8362 15.5644H16.7835C16.4931 15.5644 16.2573 15.7995 16.2573 16.0906C16.2573 16.3818 16.4931 16.6171 16.7835 16.6171H17.8362C18.1268 16.6171 18.3626 16.3818 18.3626 16.0906C18.3626 15.7995 18.1268 15.5644 17.8362 15.5644Z" fill="black"/>
<path d="M5.83993 18.8313L6.62934 18.0416C6.83511 17.8359 6.83511 17.5033 6.62934 17.2975C6.42358 17.0918 6.09079 17.0918 5.88525 17.2975L5.09561 18.0869C4.88984 18.2927 4.88984 18.6255 5.09561 18.8313C5.19838 18.9338 5.33319 18.9853 5.46777 18.9853C5.60258 18.9853 5.73716 18.9338 5.83993 18.8313Z" fill="black"/>
<path d="M9.72733 15.2449C9.88618 15.2449 10.043 15.1733 10.1462 15.0371C10.3224 14.8059 10.2778 14.4759 10.0466 14.2996L9.15833 13.6233C8.9267 13.447 8.59665 13.4917 8.42087 13.7233C8.24463 13.9542 8.28926 14.2843 8.52043 14.4605L9.40873 15.1369C9.50417 15.2094 9.61632 15.2449 9.72733 15.2449Z" fill="black"/>
<path d="M6.21412 21.3112C5.98249 21.1347 5.65244 21.1801 5.47665 21.411C5.30042 21.6422 5.34505 21.9722 5.57622 22.1485L6.46451 22.8248C6.55973 22.8976 6.67188 22.9321 6.78312 22.9321C6.94196 22.9321 7.09875 22.8605 7.20197 22.7243C7.37821 22.4931 7.33358 22.1631 7.10241 21.9869L6.21412 21.3112Z" fill="black"/>
<path d="M11.063 19.8042C10.9804 19.5255 10.6872 19.37 10.4084 19.4497L9.33841 19.7676C9.05986 19.8507 8.90101 20.1439 8.9841 20.4222C9.05208 20.6511 9.2615 20.7985 9.48833 20.7985C9.53777 20.7985 9.58835 20.7912 9.63893 20.777L10.709 20.4591C10.9873 20.3758 11.1461 20.0828 11.063 19.8042Z" fill="black"/>
<path d="M3.64352 9.35735L4.43293 8.56794C4.6387 8.36218 4.6387 8.02961 4.43293 7.82385C4.22717 7.61808 3.89437 7.61808 3.68884 7.82385L2.8992 8.61326C2.69343 8.81902 2.69343 9.15182 2.8992 9.35735C3.00196 9.46012 3.13678 9.51162 3.27136 9.51162C3.40617 9.51162 3.54075 9.46012 3.64352 9.35735Z" fill="black"/>
<path d="M4.90605 12.5139L4.01776 11.8375C3.78613 11.6611 3.45631 11.7064 3.2803 11.9373C3.10406 12.1685 3.14892 12.4985 3.37986 12.6748L4.26838 13.3511C4.3636 13.4241 4.47575 13.4589 4.58676 13.4589C4.7456 13.4589 4.90262 13.3875 5.00561 13.2511C5.18231 13.0202 5.13768 12.6901 4.90605 12.5139Z" fill="black"/>
<path d="M13.1093 13.1449C13.1383 13.1449 13.1676 13.1422 13.1972 13.1373C13.4835 13.0891 13.6771 12.8176 13.6281 12.5313L13.4425 11.4301C13.394 11.1433 13.1251 10.9518 12.8362 10.9987C12.5499 11.047 12.356 11.3187 12.4052 11.605L12.5908 12.7059C12.6341 12.9632 12.8573 13.1449 13.1093 13.1449Z" fill="black"/>
<path d="M8.86663 10.3306C8.78401 10.0522 8.49081 9.89638 8.21203 9.97603L7.142 10.2939C6.86345 10.377 6.7046 10.6702 6.78769 10.9485C6.85567 11.1774 7.06509 11.3248 7.29192 11.3248C7.34136 11.3248 7.39194 11.3175 7.44252 11.3033L8.51255 10.9854C8.79087 10.9021 8.94995 10.6091 8.86663 10.3306Z" fill="black"/>
<path d="M10.2772 8.68694L11.3182 9.09115C11.3809 9.11518 11.445 9.12617 11.5088 9.12617C11.7192 9.12617 11.9188 8.99891 11.9993 8.7904C12.1046 8.51894 11.9703 8.2143 11.6993 8.10902L10.6583 7.70482C10.3873 7.59999 10.082 7.73411 9.97715 8.00465C9.87187 8.27633 10.0062 8.5812 10.2772 8.68694Z" fill="black"/>
</g>
<defs>
<clipPath id="clip0">
<rect width="30" height="30" fill="white"/>
</clipPath>
</defs>
</svg>
