<svg width="30" height="30" viewBox="0 0 30 30" fill="none" xmlns="http://www.w3.org/2000/svg">
<path d="M28.5484 16.4516V10.1613C28.5484 9.36097 27.8971 8.70968 27.0968 8.70968H26.129C25.756 8.70968 25.4187 8.85532 25.1613 9.0871C24.9039 8.85484 24.5666 8.70968 24.1935 8.70968H23.2258C22.8527 8.70968 22.5155 8.85532 22.2581 9.0871C22.0006 8.85484 21.6634 8.70968 21.2903 8.70968H20.3226C19.5223 8.70968 18.871 9.36097 18.871 10.1613V16.3703C17.7547 15.5966 16.1255 14.9381 13.74 14.6594L14.5021 9.32419C14.5113 9.25984 14.5161 9.19452 14.5161 9.12919C14.5161 8.36419 13.8939 7.74194 13.1289 7.74194H8.70968V3.3871C8.70968 3.12048 8.92694 2.90323 9.19355 2.90323H13.0645C13.8648 2.90323 14.5161 2.25194 14.5161 1.45161C14.5161 0.65129 13.8648 0 13.0645 0H8.70968C7.10855 0 5.80645 1.3021 5.80645 2.90323V7.74194H1.38726C0.622258 7.74194 0 8.36419 0 9.12919C0 9.19452 0.00483871 9.25984 0.0140323 9.32565L1.18016 17.4876C0.0299999 18.8574 0 20.2084 0 20.3226C0 21.1665 0.545806 21.8777 1.30016 22.1424C1.09065 22.4516 0.967742 22.8247 0.967742 23.2258C0.967742 23.7416 1.17339 24.2076 1.50339 24.555C0.608226 25.05 0 26.0032 0 27.0968C0 28.6979 1.3021 30 2.90323 30H17.4194H18.3871H30V19.8387V19.3548V17.9032C30 17.1029 29.3487 16.4516 28.5484 16.4516ZM25.6452 10.1613C25.6452 9.89468 25.8624 9.67742 26.129 9.67742H27.0968C27.3634 9.67742 27.5806 9.89468 27.5806 10.1613V16.4516H25.6452V10.1613ZM22.7419 10.1613C22.7419 9.89468 22.9592 9.67742 23.2258 9.67742H24.1935C24.4602 9.67742 24.6774 9.89468 24.6774 10.1613V16.4516H22.7419V10.1613ZM19.8387 10.1613C19.8387 9.89468 20.056 9.67742 20.3226 9.67742H21.2903C21.5569 9.67742 21.7742 9.89468 21.7742 10.1613V16.4516H19.8387V10.1613ZM12.0968 0.967742H13.0645C13.3311 0.967742 13.5484 1.185 13.5484 1.45161C13.5484 1.71823 13.3311 1.93548 13.0645 1.93548H12.0968V0.967742ZM10.1613 0.967742H11.129V1.93548H10.1613V0.967742ZM6.77419 2.90323C6.77419 1.83581 7.64226 0.967742 8.70968 0.967742H9.19355V1.93548C8.39323 1.93548 7.74194 2.58677 7.74194 3.3871V7.74194H6.77419V2.90323ZM1.04177 9.67742L0.972097 9.19016C0.969194 9.16984 0.967742 9.14952 0.967742 9.12919C0.967742 8.8979 1.15597 8.70968 1.38726 8.70968H5.80645H8.70968H13.1289C13.3602 8.70968 13.5484 8.8979 13.5484 9.12919C13.5484 9.14952 13.5469 9.16984 13.5445 9.18871L13.4744 9.67742H12.0968V10.6452H13.336L13.0597 12.5806H1.45645L1.18016 10.6452H11.129V9.67742H1.04177ZM12.9218 13.5484L12.7756 14.5723C12.2574 14.5365 11.7116 14.5161 11.129 14.5161H10.1613C5.94484 14.5161 3.48194 15.4979 2.03855 16.6544L1.59484 13.5484H12.9218ZM0.967742 20.3226C0.967742 20.2742 1.07274 15.4839 10.1613 15.4839H11.129C20.1547 15.4839 20.3202 20.1281 20.3226 20.3226C20.3226 20.8563 19.8885 21.2903 19.3548 21.2903H18.871H18.3871H2.90323H1.93548C1.40177 21.2903 0.967742 20.8563 0.967742 20.3226ZM2.90323 24.1935C2.36952 24.1935 1.93548 23.7595 1.93548 23.2258C1.93548 22.6921 2.36952 22.2581 2.90323 22.2581H18.3871C18.9208 22.2581 19.3548 22.6921 19.3548 23.2258C19.3548 23.7595 18.9208 24.1935 18.3871 24.1935H2.90323ZM16.3674 25.1613L14.3821 27.4776L9.0871 25.1613H16.3674ZM18.3871 29.0323H17.4194H2.90323C1.83581 29.0323 0.967742 28.1642 0.967742 27.0968C0.967742 26.0294 1.83581 25.1613 2.90323 25.1613H6.67306L14.6502 28.6515L17.6419 25.1613H18.3871C19.4545 25.1613 20.3226 26.0294 20.3226 27.0968C20.3226 28.1642 19.4545 29.0323 18.3871 29.0323ZM19.7874 24.555C20.1169 24.2076 20.3226 23.7416 20.3226 23.2258C20.3226 22.8716 20.22 22.544 20.0535 22.2581H27.0968V27.0968H21.2903C21.2903 26.7571 21.2284 26.4324 21.121 26.129H24.1935V25.1613H20.5452C20.3284 24.9198 20.0734 24.7132 19.7874 24.555ZM29.0323 19.3548H28.0645V20.3226H29.0323V29.0323H20.5452C20.7963 28.7526 20.9932 28.4255 21.121 28.0645H28.0645V21.2903H21.0213C21.1877 21.0044 21.2903 20.6768 21.2903 20.3226H27.0968V19.3548H21.1263C20.969 18.8168 20.6584 18.1185 20.0526 17.4194H28.5484C28.815 17.4194 29.0323 17.6361 29.0323 17.9032V19.3548Z" fill="black"/>
<path d="M26.129 25.1613H25.1613V26.129H26.129V25.1613Z" fill="black"/>
<path d="M7.25803 16.4516H6.29028V17.4194H7.25803V16.4516Z" fill="black"/>
<path d="M9.19357 17.4194H8.22583V18.3871H9.19357V17.4194Z" fill="black"/>
<path d="M11.129 16.4516H10.1613V17.4194H11.129V16.4516Z" fill="black"/>
<path d="M14.0323 17.9032H13.0646V18.871H14.0323V17.9032Z" fill="black"/>
<path d="M16.4516 16.4516H15.4839V17.4194H16.4516V16.4516Z" fill="black"/>
<path d="M4.35483 18.3871H3.38708V19.3548H4.35483V18.3871Z" fill="black"/>
</svg>
