<svg width="30" height="30" viewBox="0 0 30 30" fill="none" xmlns="http://www.w3.org/2000/svg">
<path d="M27.4492 7.36453C26.0813 6.27428 24.1504 5.38166 21.7103 4.71158C17.0175 3.42287 11.7255 3.28377 9.66803 3.28377C4.33705 3.28377 0 7.62088 0 12.9519V17.0481C0 22.3792 4.33705 26.7162 9.66803 26.7162C12.1262 26.7162 13.9723 25.9462 15.9268 25.1309C17.9481 24.2878 20.0381 23.4161 22.9775 23.4161C26.8497 23.4161 30 20.2657 30 16.3935V12.2972C30 10.3731 29.1418 8.71348 27.4492 7.36453ZM26.9558 17.3814C27.1777 17.6171 27.5485 17.6282 27.7841 17.4064C28.1815 17.0322 28.5311 16.6153 28.8281 16.1664V16.3935C28.8281 19.6196 26.2035 22.2442 22.9775 22.2442C19.8035 22.2442 17.6034 23.1619 15.4757 24.0493C13.6325 24.8181 11.8916 25.5444 9.66803 25.5444C5.16686 25.5444 1.47258 22.0256 1.18992 17.5945C2.83523 20.587 6.01857 22.6198 9.66803 22.6198C12.1262 22.6198 13.9723 21.8498 15.9268 21.0345C17.9481 20.1914 20.0381 19.3196 22.9775 19.3196C23.1959 19.3196 23.4165 19.3093 23.6333 19.2891C23.9555 19.2589 24.1922 18.9732 24.162 18.651C24.1318 18.3289 23.8458 18.0922 23.524 18.1223C23.3433 18.1392 23.1595 18.1478 22.9775 18.1478C19.8035 18.1478 17.6034 19.0655 15.4757 19.953C13.6325 20.7218 11.8916 21.448 9.66803 21.448C4.98322 21.448 1.17188 17.6367 1.17188 12.9519C1.17188 8.26711 4.98322 4.4557 9.66803 4.4557C11.678 4.4557 16.8446 4.59076 21.4 5.84168C26.3289 7.19525 28.8281 9.36721 28.8281 12.2972C28.8281 13.8966 28.1548 15.4478 26.9808 16.5531C26.7452 16.7749 26.734 17.1458 26.9558 17.3814Z" fill="black"/>
<path d="M26.474 17.7554C26.3362 17.4626 25.9871 17.3369 25.6944 17.4747C25.6902 17.4766 25.6846 17.4794 25.6804 17.4814C25.391 17.6262 25.2737 17.9781 25.4184 18.2675C25.5211 18.4729 25.728 18.5916 25.943 18.5916C26.0298 18.5916 26.118 18.5722 26.201 18.5313C26.4883 18.3911 26.6106 18.0456 26.474 17.7554Z" fill="black"/>
<path d="M13.8977 5.7927L13.8676 5.79023C13.5445 5.76504 13.2626 6.00516 13.2369 6.32777C13.2111 6.65033 13.4518 6.9327 13.7743 6.95848L13.8043 6.96082C13.8202 6.96211 13.8359 6.96275 13.8516 6.96275C14.154 6.96275 14.4105 6.73014 14.4351 6.42352C14.4609 6.1009 14.2203 5.81854 13.8977 5.7927Z" fill="black"/>
<path d="M27.2904 10.7187C26.7092 9.57007 25.416 8.57737 23.4467 7.76831C21.8532 7.11364 20.1106 6.70009 18.9293 6.46835C18.2213 6.32954 17.4794 6.20555 16.7241 6.09997C16.4038 6.05473 16.1075 6.27856 16.0627 6.59913C16.0178 6.91964 16.2413 7.21571 16.5618 7.26053C17.296 7.36319 18.0166 7.4836 18.7038 7.61837C22.7286 8.40768 25.4771 9.73055 26.2447 11.2477C26.406 11.5665 26.4844 11.9098 26.4844 12.2972C26.4844 14.2308 24.9112 15.804 22.9775 15.804C21.0223 15.804 19.1237 16.1235 17.1731 16.7809C16.333 17.0641 15.5173 17.4026 14.7284 17.73C14.2066 17.9465 13.6671 18.1705 13.1316 18.3734C11.7801 18.8856 10.7442 19.1041 9.66802 19.1041C6.27556 19.1041 3.51556 16.3442 3.51556 12.9518C3.51556 9.55934 6.27556 6.79934 9.66802 6.79934C10.3298 6.79934 11.0017 6.81188 11.6649 6.83661C11.7775 6.84077 11.8901 6.84528 12.0029 6.85026C12.3259 6.86491 12.5998 6.61401 12.6141 6.29069C12.6284 5.96743 12.3778 5.69374 12.0545 5.6795C11.9391 5.6744 11.8237 5.66977 11.7085 5.6655C11.0309 5.64024 10.3443 5.62747 9.66796 5.62747C5.62933 5.62747 2.34363 8.91311 2.34363 12.9518C2.34363 16.9904 5.62927 20.276 9.66796 20.276C10.8946 20.276 12.0547 20.0347 13.5468 19.4692C14.0994 19.2598 14.6475 19.0323 15.1776 18.8123C15.9483 18.4925 16.7452 18.1617 17.5474 17.8914C19.3754 17.2753 21.1516 16.9758 22.9775 16.9758C25.5574 16.976 27.6562 14.8771 27.6562 12.2973C27.6562 11.7217 27.5365 11.2054 27.2904 10.7187Z" fill="black"/>
<path d="M10.2292 7.9582C8.59114 7.9582 7.25842 9.1667 7.25842 10.6522C7.25842 12.1376 8.59114 13.3461 10.2292 13.3461C11.8673 13.3461 13.1999 12.1376 13.1999 10.6522C13.1999 9.1667 11.8673 7.9582 10.2292 7.9582ZM10.2292 12.1742C9.23725 12.1742 8.4303 11.4914 8.4303 10.6521C8.4303 9.81287 9.23725 9.13002 10.2292 9.13002C11.2211 9.13002 12.0281 9.81281 12.0281 10.6521C12.0281 11.4914 11.2211 12.1742 10.2292 12.1742Z" fill="black"/>
</svg>
