<svg width="30" height="30" viewBox="0 0 30 30" fill="none" xmlns="http://www.w3.org/2000/svg">
<g clip-path="url(#clip0)">
<path d="M2.50009 11H27.5001C27.5036 11 27.5066 10.9994 27.5101 11C27.7861 11 28.0101 10.776 28.0101 10.5C28.0101 10.3495 27.9436 10.215 27.8386 10.1235C27.3586 9.54597 24.1496 6.13446 15.5001 6.00597V5.92897C16.3601 5.7055 17.0001 4.92895 17.0001 3.99995C17.0001 2.89692 16.1031 1.99997 15.0001 1.99997C13.8971 1.99997 13.0001 2.89698 13.0001 3.99995C13.0001 4.92895 13.6402 5.70544 14.5001 5.92897V6.00649C5.25604 6.14401 2.22657 10.0315 2.10007 10.2C1.98657 10.3515 1.96805 10.554 2.05255 10.7235C2.13757 10.893 2.31059 11 2.50009 11ZM14 4.00001C14 3.44852 14.4485 2.99999 15.0001 2.99999C15.5515 2.99999 16.0001 3.44847 16.0001 4.00001C16.0001 4.55149 15.5516 5.00003 15.0001 5.00003C14.4486 4.99997 14 4.55149 14 4.00001ZM15.0001 7.00001C21.4291 7.00001 24.8041 8.8845 26.2391 10H3.75007C5.16909 8.8855 8.52704 7.00001 15.0001 7.00001Z" fill="black"/>
<path d="M25 12.5C25 12.224 24.776 12 24.5 12C24.224 12 24 12.224 24 12.5V13.5C24 13.776 24.224 14 24.5 14C24.776 14 25 13.776 25 13.5V12.5Z" fill="black"/>
<path d="M24.5 15C24.224 15 24 15.224 24 15.5V19.5C24 19.776 24.224 20 24.5 20C24.776 20 25 19.776 25 19.5V15.5C25 15.224 24.776 15 24.5 15Z" fill="black"/>
<path d="M28.5 12H26.5C26.224 12 26 12.224 26 12.5V25.5C26 26.327 25.327 27 24.5 27H5.50002C4.67303 27 4.00002 26.327 4.00002 25.5V12.5C4.00002 12.224 3.77602 12 3.50004 12H1.5C0.673008 12 0 12.673 0 13.5V17.5C0 18.327 0.673008 19 1.5 19C1.77598 19 1.99998 18.776 1.99998 18.5C1.99998 18.2241 1.77598 18 1.5 18C1.22449 18 1.00002 17.7755 1.00002 17.5V13.5C1.00002 13.2245 1.22449 13 1.5 13H3V25.5C3 26.8785 4.12148 28 5.50002 28H24.5C25.8785 28 27.0001 26.8785 27.0001 25.5V13H28.5001C28.7756 13 29 13.2245 29 13.5V17.5C29 17.7755 28.7756 18 28.5001 18C28.2241 18 28.0001 18.224 28.0001 18.5C28.0001 18.776 28.2241 19 28.5001 19C29.3271 19 30.0001 18.327 30.0001 17.5V13.5C30 12.673 29.327 12 28.5 12Z" fill="black"/>
</g>
<defs>
<clipPath id="clip0">
<rect width="30" height="30" fill="white"/>
</clipPath>
</defs>
</svg>
