<svg width="30" height="30" viewBox="0 0 30 30" fill="none" xmlns="http://www.w3.org/2000/svg">
<path d="M8.4375 15.9375C7.32498 15.9375 6.23745 16.2674 5.31242 16.8855C4.38739 17.5036 3.66642 18.3821 3.24068 19.4099C2.81494 20.4377 2.70354 21.5687 2.92059 22.6599C3.13763 23.751 3.67336 24.7533 4.46003 25.54C5.2467 26.3266 6.24898 26.8624 7.34012 27.0794C8.43126 27.2964 9.56226 27.1851 10.5901 26.7593C11.6179 26.3336 12.4964 25.6126 13.1145 24.6876C13.7326 23.7625 14.0625 22.675 14.0625 21.5625C14.0609 20.0711 13.4677 18.6413 12.4132 17.5868C11.3587 16.5323 9.92885 15.9391 8.4375 15.9375ZM8.4375 26.25C7.5104 26.25 6.60412 25.9751 5.83327 25.46C5.06241 24.9449 4.4616 24.2128 4.10682 23.3563C3.75203 22.4998 3.6592 21.5573 3.84007 20.648C4.02094 19.7387 4.46738 18.9035 5.12294 18.2479C5.7785 17.5924 6.61373 17.1459 7.52302 16.9651C8.4323 16.7842 9.3748 16.877 10.2313 17.2318C11.0879 17.5866 11.8199 18.1874 12.335 18.9583C12.8501 19.7291 13.125 20.6354 13.125 21.5625C13.1236 22.8053 12.6293 23.9968 11.7506 24.8755C10.8718 25.7543 9.68029 26.2486 8.4375 26.25Z" fill="black"/>
<path d="M8.4375 17.3438C7.60311 17.3438 6.78746 17.5912 6.09369 18.0547C5.39992 18.5183 4.85919 19.1772 4.53989 19.9481C4.22058 20.7189 4.13703 21.5672 4.29981 22.3855C4.4626 23.2039 4.86439 23.9556 5.45439 24.5456C6.0444 25.1356 6.79611 25.5374 7.61446 25.7002C8.43282 25.863 9.28107 25.7794 10.0519 25.4601C10.8228 25.1408 11.4817 24.6001 11.9453 23.9063C12.4088 23.2125 12.6563 22.3969 12.6563 21.5625C12.655 20.444 12.2101 19.3717 11.4192 18.5808C10.6283 17.7899 9.556 17.345 8.4375 17.3438ZM8.4375 24.8438C7.78853 24.8438 7.15414 24.6513 6.61454 24.2908C6.07494 23.9302 5.65437 23.4177 5.40602 22.8182C5.15767 22.2186 5.09269 21.5589 5.2193 20.9224C5.34591 20.2859 5.65842 19.7012 6.11731 19.2423C6.5762 18.7834 7.16086 18.4709 7.79736 18.3443C8.43386 18.2177 9.09361 18.2827 9.69318 18.531C10.2928 18.7794 10.8052 19.1999 11.1658 19.7395C11.5263 20.2791 11.7188 20.9135 11.7188 21.5625C11.7178 22.4324 11.3717 23.2665 10.7566 23.8816C10.1415 24.4967 9.30744 24.8428 8.4375 24.8438Z" fill="black"/>
<path d="M8.4375 18.75C7.69181 18.7507 6.97687 19.0473 6.44958 19.5746C5.9223 20.1019 5.62574 20.8168 5.625 21.5625C5.625 21.6868 5.67439 21.806 5.76229 21.894C5.8502 21.9819 5.96943 22.0312 6.09375 22.0312C6.21807 22.0312 6.3373 21.9819 6.42521 21.894C6.51311 21.806 6.5625 21.6868 6.5625 21.5625C6.5625 21.0652 6.76004 20.5883 7.11167 20.2367C7.46331 19.885 7.94022 19.6875 8.4375 19.6875C8.56182 19.6875 8.68105 19.6381 8.76896 19.5502C8.85686 19.4623 8.90625 19.3431 8.90625 19.2188C8.90625 19.0944 8.85686 18.9752 8.76896 18.8873C8.68105 18.7994 8.56182 18.75 8.4375 18.75Z" fill="black"/>
<path d="M19.6875 21.5625C19.6875 21.0652 19.885 20.5883 20.2367 20.2367C20.5883 19.885 21.0652 19.6875 21.5625 19.6875C21.6868 19.6875 21.806 19.6381 21.894 19.5502C21.9819 19.4623 22.0312 19.3431 22.0312 19.2188C22.0312 19.0944 21.9819 18.9752 21.894 18.8873C21.806 18.7994 21.6868 18.75 21.5625 18.75C20.8168 18.7507 20.1019 19.0473 19.5746 19.5746C19.0473 20.1019 18.7507 20.8168 18.75 21.5625C18.75 21.6868 18.7994 21.806 18.8873 21.894C18.9752 21.9819 19.0944 22.0312 19.2188 22.0312C19.3431 22.0312 19.4623 21.9819 19.5502 21.894C19.6381 21.806 19.6875 21.6868 19.6875 21.5625Z" fill="black"/>
<path d="M28.125 11.7188H26.8345L27.6455 8.07047C27.6607 8.00191 27.6603 7.93081 27.6444 7.86241C27.6285 7.79401 27.5974 7.73007 27.5534 7.6753C27.5095 7.62054 27.4537 7.57635 27.3904 7.54601C27.3271 7.51566 27.2577 7.49994 27.1875 7.5H25.2263C25.2818 7.34988 25.3109 7.1913 25.3125 7.03125V6.5625C25.3125 6.18954 25.1643 5.83185 24.9006 5.56813C24.6369 5.30441 24.2792 5.15625 23.9062 5.15625H16.4062C16.0333 5.15625 15.6756 5.30441 15.4119 5.56813C15.1482 5.83185 15 6.18954 15 6.5625V7.03125C15.0016 7.24277 15.0513 7.45116 15.1453 7.64062C15.1305 7.65095 15.1164 7.66222 15.1031 7.67438C15.0589 7.72894 15.0276 7.79274 15.0113 7.86105C14.9951 7.92937 14.9944 8.00045 15.0094 8.06906L15.8217 11.7188H13.7095L14.5205 8.07047C14.5357 8.00191 14.5353 7.93081 14.5194 7.86241C14.5035 7.79401 14.4724 7.73007 14.4284 7.6753C14.3845 7.62054 14.3287 7.57635 14.2654 7.54601C14.2021 7.51566 14.1327 7.49994 14.0625 7.5H13.5075C13.563 7.34988 13.5922 7.1913 13.5938 7.03125V6.5625C13.5938 6.18954 13.4456 5.83185 13.1819 5.56813C12.9181 5.30441 12.5605 5.15625 12.1875 5.15625H12.1012C12.1568 5.00613 12.1859 4.84755 12.1875 4.6875V4.21875C12.1859 4.0587 12.1568 3.90012 12.1012 3.75H12.1875C12.5605 3.75 12.9181 3.60184 13.1819 3.33812C13.4456 3.0744 13.5938 2.71671 13.5938 2.34375V1.875C13.5938 1.50204 13.4456 1.14435 13.1819 0.880631C12.9181 0.616908 12.5605 0.46875 12.1875 0.46875H4.6875C4.31454 0.46875 3.95685 0.616908 3.69313 0.880631C3.42941 1.14435 3.28125 1.50204 3.28125 1.875V2.34375C3.2828 2.5038 3.31198 2.66238 3.3675 2.8125H3.28125C2.90829 2.8125 2.5506 2.96066 2.28688 3.22438C2.02316 3.4881 1.875 3.84579 1.875 4.21875V4.6875C1.875 5.06046 2.02316 5.41815 2.28688 5.68187C2.5506 5.94559 2.90829 6.09375 3.28125 6.09375H3.3675C3.31198 6.24387 3.2828 6.40245 3.28125 6.5625V7.03125C3.2828 7.1913 3.31198 7.34988 3.3675 7.5H2.34375C2.27352 7.49994 2.20418 7.51566 2.14084 7.54601C2.0775 7.57635 2.02179 7.62054 1.97783 7.6753C1.93386 7.73007 1.90277 7.79401 1.88683 7.86241C1.8709 7.93081 1.87054 8.00191 1.88578 8.07047L2.69672 11.7188H1.875C1.75068 11.7188 1.63145 11.7681 1.54354 11.856C1.45564 11.944 1.40625 12.0632 1.40625 12.1875V29.0625C1.40625 29.1868 1.45564 29.306 1.54354 29.394C1.63145 29.4819 1.75068 29.5312 1.875 29.5312H28.125C28.2493 29.5312 28.3685 29.4819 28.4565 29.394C28.5444 29.306 28.5938 29.1868 28.5938 29.0625V12.1875C28.5938 12.0632 28.5444 11.944 28.4565 11.856C28.3685 11.7681 28.2493 11.7188 28.125 11.7188ZM27.6562 14.5312H15.4688V12.6562H27.6562V14.5312ZM15.9375 6.5625C15.9375 6.43818 15.9869 6.31895 16.0748 6.23104C16.1627 6.14314 16.2819 6.09375 16.4062 6.09375H23.9062C24.0306 6.09375 24.1498 6.14314 24.2377 6.23104C24.3256 6.31895 24.375 6.43818 24.375 6.5625V7.03125C24.375 7.15557 24.3256 7.2748 24.2377 7.36271C24.1498 7.45061 24.0306 7.5 23.9062 7.5H16.4062C16.2819 7.5 16.1627 7.45061 16.0748 7.36271C15.9869 7.2748 15.9375 7.15557 15.9375 7.03125V6.5625ZM16.0533 8.4375H26.603L25.875 11.7188H16.7812L16.0533 8.4375ZM4.21875 2.34375V1.875C4.21875 1.75068 4.26814 1.63145 4.35604 1.54354C4.44395 1.45564 4.56318 1.40625 4.6875 1.40625H12.1875C12.3118 1.40625 12.431 1.45564 12.519 1.54354C12.6069 1.63145 12.6562 1.75068 12.6562 1.875V2.34375C12.6562 2.46807 12.6069 2.5873 12.519 2.67521C12.431 2.76311 12.3118 2.8125 12.1875 2.8125H4.6875C4.56318 2.8125 4.44395 2.76311 4.35604 2.67521C4.26814 2.5873 4.21875 2.46807 4.21875 2.34375ZM2.8125 4.6875V4.21875C2.8125 4.09443 2.86189 3.9752 2.94979 3.88729C3.0377 3.79939 3.15693 3.75 3.28125 3.75H10.7812C10.9056 3.75 11.0248 3.79939 11.1127 3.88729C11.2006 3.9752 11.25 4.09443 11.25 4.21875V4.6875C11.25 4.81182 11.2006 4.93105 11.1127 5.01896C11.0248 5.10686 10.9056 5.15625 10.7812 5.15625H3.28125C3.15693 5.15625 3.0377 5.10686 2.94979 5.01896C2.86189 4.93105 2.8125 4.81182 2.8125 4.6875ZM4.21875 7.03125V6.5625C4.21875 6.43818 4.26814 6.31895 4.35604 6.23104C4.44395 6.14314 4.56318 6.09375 4.6875 6.09375H12.1875C12.3118 6.09375 12.431 6.14314 12.519 6.23104C12.6069 6.31895 12.6562 6.43818 12.6562 6.5625V7.03125C12.6562 7.15557 12.6069 7.2748 12.519 7.36271C12.431 7.45061 12.3118 7.5 12.1875 7.5H4.6875C4.56318 7.5 4.44395 7.45061 4.35604 7.36271C4.26814 7.2748 4.21875 7.15557 4.21875 7.03125ZM9.375 8.4375H10.7812V10.3125H9.375V8.4375ZM2.92828 8.4375H8.4375V10.7812C8.4375 10.9056 8.48689 11.0248 8.57479 11.1127C8.6627 11.2006 8.78193 11.25 8.90625 11.25H11.25C11.3743 11.25 11.4935 11.2006 11.5815 11.1127C11.6694 11.0248 11.7188 10.9056 11.7188 10.7812V8.4375H13.478L12.75 11.7188H3.65625L2.92828 8.4375ZM2.34375 12.6562H14.5312V14.5312H2.34375V12.6562ZM2.34375 15.4688H14.5312V28.5938H2.34375V15.4688ZM27.6562 28.5938H15.4688V15.4688H27.6562V28.5938Z" fill="black"/>
<path d="M21.5625 27.1875C22.675 27.1875 23.7625 26.8576 24.6876 26.2395C25.6126 25.6214 26.3336 24.7429 26.7593 23.7151C27.1851 22.6873 27.2964 21.5563 27.0794 20.4651C26.8624 19.374 26.3266 18.3717 25.54 17.585C24.7533 16.7984 23.751 16.2626 22.6599 16.0456C21.5687 15.8285 20.4377 15.9399 19.4099 16.3657C18.3821 16.7914 17.5036 17.5124 16.8855 18.4374C16.2674 19.3624 15.9375 20.45 15.9375 21.5625C15.9391 23.0538 16.5323 24.4836 17.5868 25.5382C18.6413 26.5927 20.0711 27.1859 21.5625 27.1875ZM21.5625 16.875C22.4896 16.875 23.3959 17.1499 24.1667 17.665C24.9376 18.1801 25.5384 18.9121 25.8932 19.7687C26.248 20.6252 26.3408 21.5677 26.1599 22.477C25.9791 23.3863 25.5326 24.2215 24.8771 24.8771C24.2215 25.5326 23.3863 25.9791 22.477 26.1599C21.5677 26.3408 20.6252 26.248 19.7687 25.8932C18.9121 25.5384 18.1801 24.9376 17.665 24.1667C17.1499 23.3959 16.875 22.4896 16.875 21.5625C16.8764 20.3197 17.3707 19.1282 18.2494 18.2494C19.1282 17.3707 20.3197 16.8764 21.5625 16.875Z" fill="black"/>
<path d="M21.2648 25.7709C21.3664 25.7781 21.4678 25.7816 21.569 25.7813C22.6741 25.7788 23.7341 25.3426 24.5208 24.5665C25.3075 23.7905 25.7581 22.7366 25.7756 21.6316C25.7931 20.5267 25.3761 19.459 24.6143 18.6584C23.8526 17.8578 22.807 17.3883 21.7025 17.3509C20.5981 17.3134 19.5231 17.7111 18.7089 18.4583C17.8947 19.2054 17.4063 20.2424 17.349 21.346C17.2916 22.4496 17.6698 23.5316 18.4021 24.3591C19.1345 25.1867 20.1624 25.6937 21.2648 25.7709ZM18.2892 21.3309C18.3477 20.5036 18.7174 19.7292 19.3238 19.1634C19.9302 18.5976 20.7284 18.2824 21.5578 18.2813C21.6361 18.2813 21.7148 18.2836 21.7922 18.2897C22.4395 18.3355 23.0587 18.5723 23.5715 18.9701C24.0843 19.3678 24.4676 19.9087 24.673 20.5244C24.8784 21.14 24.8966 21.8027 24.7253 22.4286C24.5541 23.0546 24.201 23.6157 23.7109 24.041C23.2207 24.4664 22.6154 24.7368 21.9716 24.8181C21.3277 24.8995 20.6742 24.788 20.0937 24.4979C19.5131 24.2079 19.0317 23.7521 18.7101 23.1884C18.3886 22.6247 18.2415 21.9783 18.2873 21.3309H18.2892Z" fill="black"/>
<path d="M25.3125 8.90625H21.0938C20.9694 8.90625 20.8502 8.95564 20.7623 9.04354C20.6744 9.13145 20.625 9.25068 20.625 9.375C20.625 9.49932 20.6744 9.61855 20.7623 9.70646C20.8502 9.79436 20.9694 9.84375 21.0938 9.84375H25.3125C25.4368 9.84375 25.556 9.79436 25.644 9.70646C25.7319 9.61855 25.7812 9.49932 25.7812 9.375C25.7812 9.25068 25.7319 9.13145 25.644 9.04354C25.556 8.95564 25.4368 8.90625 25.3125 8.90625Z" fill="black"/>
<path d="M17.3438 13.125H16.4062C16.2819 13.125 16.1627 13.1744 16.0748 13.2623C15.9869 13.3502 15.9375 13.4694 15.9375 13.5938C15.9375 13.7181 15.9869 13.8373 16.0748 13.9252C16.1627 14.0131 16.2819 14.0625 16.4062 14.0625H17.3438C17.4681 14.0625 17.5873 14.0131 17.6752 13.9252C17.7631 13.8373 17.8125 13.7181 17.8125 13.5938C17.8125 13.4694 17.7631 13.3502 17.6752 13.2623C17.5873 13.1744 17.4681 13.125 17.3438 13.125Z" fill="black"/>
<path d="M3.75 13.125H3.28125C3.15693 13.125 3.0377 13.1744 2.94979 13.2623C2.86189 13.3502 2.8125 13.4694 2.8125 13.5938C2.8125 13.7181 2.86189 13.8373 2.94979 13.9252C3.0377 14.0131 3.15693 14.0625 3.28125 14.0625H3.75C3.87432 14.0625 3.99355 14.0131 4.08146 13.9252C4.16936 13.8373 4.21875 13.7181 4.21875 13.5938C4.21875 13.4694 4.16936 13.3502 4.08146 13.2623C3.99355 13.1744 3.87432 13.125 3.75 13.125Z" fill="black"/>
<path d="M13.5938 27.1875H11.25C11.1257 27.1875 11.0065 27.2369 10.9185 27.3248C10.8306 27.4127 10.7812 27.5319 10.7812 27.6562C10.7812 27.7806 10.8306 27.8998 10.9185 27.9877C11.0065 28.0756 11.1257 28.125 11.25 28.125H13.5938C13.7181 28.125 13.8373 28.0756 13.9252 27.9877C14.0131 27.8998 14.0625 27.7806 14.0625 27.6562C14.0625 27.5319 14.0131 27.4127 13.9252 27.3248C13.8373 27.2369 13.7181 27.1875 13.5938 27.1875Z" fill="black"/>
<path d="M26.7188 27.1875H24.375C24.2507 27.1875 24.1315 27.2369 24.0435 27.3248C23.9556 27.4127 23.9062 27.5319 23.9062 27.6562C23.9062 27.7806 23.9556 27.8998 24.0435 27.9877C24.1315 28.0756 24.2507 28.125 24.375 28.125H26.7188C26.8431 28.125 26.9623 28.0756 27.0502 27.9877C27.1381 27.8998 27.1875 27.7806 27.1875 27.6562C27.1875 27.5319 27.1381 27.4127 27.0502 27.3248C26.9623 27.2369 26.8431 27.1875 26.7188 27.1875Z" fill="black"/>
</svg>
