<svg width="42" height="30" viewBox="0 0 42 30" fill="none" xmlns="http://www.w3.org/2000/svg">
<path d="M33.2251 9.59149H30.6413L31.4198 0.653204C31.4213 0.637012 31.4215 0.621061 31.4216 0.60511C31.4216 0.603747 31.4218 0.602464 31.4218 0.601101C31.4218 0.600861 31.4218 0.600701 31.4218 0.60046C31.4218 0.357182 31.275 0.142761 31.0593 0.0495377C31.0574 0.0487361 31.0557 0.0477744 31.0538 0.0469728C31.0404 0.0413618 31.0266 0.036552 31.0126 0.0319029C31.0074 0.0302196 31.0024 0.0281354 30.9972 0.0265322C30.9859 0.0230855 30.9741 0.0203602 30.9625 0.0175546C30.9544 0.0156309 30.9465 0.0133064 30.9382 0.0117033C30.9281 0.00969936 30.9175 0.00841704 30.9071 0.00689404C30.8973 0.00545121 30.8877 0.00376765 30.8778 0.00288592C30.8761 0.00272561 30.8746 0.00240472 30.8729 0.0022444C30.8623 0.00128251 30.8519 0.00144287 30.8414 0.00104209C30.8344 0.000801614 30.8275 0 30.8204 0H30.8129C30.8122 0 30.8116 0 30.811 0H18.5172C18.1853 0 17.916 0.269329 17.916 0.601182C17.916 0.932232 18.1853 1.20236 18.5172 1.20236H30.1651L28.9687 14.9394C28.9685 14.9404 28.9685 14.9414 28.9684 14.9425L28.6665 18.4086H7.77672L8.12613 14.8017H12.1036C12.4357 14.8017 12.7048 14.5325 12.7048 14.2005C12.7048 13.8685 12.4357 13.5993 12.1036 13.5993H8.24268L8.98045 5.98472H15.3109C15.643 5.98472 15.9121 5.71555 15.9121 5.38354C15.9121 5.05153 15.643 4.78236 15.3109 4.78236H9.097L9.44392 1.20236H16.1125C16.4435 1.20236 16.7136 0.932232 16.7136 0.601182C16.7136 0.269329 16.4435 0 16.1125 0H8.89829C8.89797 0 8.89773 8.01135e-05 8.89741 8.01135e-05C8.61501 -4.40357e-08 8.37005 0.198791 8.31081 0.474373C8.31041 0.476377 8.30969 0.4783 8.30929 0.480304C8.30624 0.495294 8.30424 0.510604 8.30224 0.525994C8.30167 0.530884 8.30063 0.535533 8.30015 0.540422C8.30007 0.541384 8.29983 0.542266 8.29975 0.543228L7.88902 4.78236H0.601181C0.269089 4.78236 0 5.05153 0 5.38354C0 5.71555 0.269089 5.98472 0.601181 5.98472H7.77247L7.0347 13.5993H4.88977C4.55768 13.5993 4.28859 13.8685 4.28859 14.2005C4.28859 14.5325 4.55768 14.8017 4.88977 14.8017H6.91824L6.51649 18.9475C6.51641 18.9481 6.51641 18.9488 6.51633 18.9493L5.89518 25.3602C5.8951 25.361 5.89502 25.3618 5.89494 25.3624L5.8947 25.3647C5.8939 25.3731 5.89398 25.3812 5.8935 25.3896C5.89294 25.4006 5.89182 25.4115 5.89182 25.4227C5.89182 25.4232 5.8919 25.4236 5.8919 25.4242C5.8919 25.4397 5.89302 25.4549 5.89414 25.4701C5.89462 25.475 5.89446 25.48 5.89502 25.4848C5.89663 25.5004 5.89927 25.5157 5.90208 25.5309C5.90288 25.5354 5.90328 25.54 5.90416 25.5444C5.90649 25.5559 5.90977 25.567 5.91282 25.5783C5.9149 25.5863 5.91659 25.5944 5.91899 25.6022C5.91971 25.6043 5.92068 25.6064 5.92132 25.6086C5.95041 25.6981 5.99979 25.7784 6.06424 25.844C6.06544 25.8452 6.0664 25.8466 6.0676 25.8477C6.07402 25.8541 6.08099 25.8599 6.08772 25.866C6.12917 25.9039 6.17598 25.9362 6.2272 25.9614C6.23786 25.9667 6.24836 25.9722 6.25926 25.9768C6.26255 25.9783 6.26607 25.9792 6.26944 25.9805C6.28451 25.9865 6.29966 25.9923 6.31529 25.9972C6.31673 25.9976 6.3181 25.9978 6.31954 25.9983C6.33733 26.0036 6.35529 26.0082 6.37365 26.012C6.37605 26.0125 6.37853 26.0126 6.38086 26.0131C6.39833 26.0164 6.41589 26.0192 6.43376 26.021C6.43416 26.021 6.43448 26.0211 6.43489 26.0211C6.4546 26.0231 6.47416 26.024 6.49356 26.024C6.4938 26.024 6.49412 26.0239 6.49444 26.0239H9.17074C9.46628 28.2646 11.3873 30 13.7074 30C16.0274 30 17.9484 28.2646 18.2439 26.0239H27.8868C28.1824 28.2646 30.1033 30 32.4234 30C34.7434 30 36.6645 28.2646 36.9602 26.0239H39.6371C39.6375 26.0239 39.638 26.024 39.6384 26.024C39.6584 26.024 39.6781 26.0228 39.6977 26.0209C39.7012 26.0206 39.7046 26.0199 39.7081 26.0195C39.7237 26.0176 39.7393 26.0154 39.7545 26.0124C39.7611 26.0111 39.7674 26.0094 39.7739 26.0078C39.7857 26.0051 39.7976 26.0022 39.8091 25.9988C39.817 25.9965 39.8246 25.9937 39.8323 25.9911C39.8421 25.9877 39.852 25.9842 39.8617 25.9803C39.87 25.977 39.878 25.9734 39.8861 25.9698C39.8949 25.9657 39.9037 25.9615 39.9123 25.9571C39.9205 25.9529 39.9283 25.9486 39.9362 25.9441C39.9444 25.9393 39.9526 25.9343 39.9607 25.9292C39.9682 25.9244 39.9758 25.9195 39.983 25.9144C39.9911 25.9087 39.9989 25.9027 40.0069 25.8966C40.0134 25.8914 40.0201 25.8862 40.0265 25.8808C40.0348 25.8738 40.0425 25.8665 40.0504 25.8591C40.0558 25.8538 40.0615 25.8487 40.0668 25.8433C40.0752 25.8348 40.0831 25.8258 40.091 25.8167C40.0953 25.8118 40.0997 25.8071 40.1038 25.8021C40.1126 25.7912 40.1206 25.78 40.1286 25.7687C40.1313 25.7648 40.1344 25.7611 40.137 25.7571C40.1468 25.7424 40.156 25.7274 40.1645 25.7118C40.1652 25.7108 40.1658 25.71 40.1662 25.7089C40.1753 25.6923 40.1836 25.6752 40.1911 25.6575C40.1931 25.6525 40.1947 25.6473 40.1968 25.6422C40.2016 25.6298 40.2065 25.6174 40.2105 25.6045C40.2132 25.5961 40.2151 25.5876 40.2174 25.5791C40.2201 25.5691 40.2229 25.5592 40.2251 25.549C40.2271 25.54 40.2284 25.5307 40.2299 25.5214C40.2313 25.5133 40.2331 25.5054 40.2341 25.4971C40.2596 25.2929 40.7304 21.516 40.9406 19.0737C40.9409 19.0714 40.9409 19.069 40.9412 19.0667C41.0017 18.3626 41.0405 17.7698 41.0405 17.4068C41.0405 13.0975 37.5346 9.59149 33.2251 9.59149ZM30.5366 10.794H32.996L32.6819 14.4008H30.2224L30.5366 10.794ZM13.7076 28.7976C11.8466 28.7976 10.3325 27.2835 10.3325 25.4226C10.3325 23.5617 11.8466 22.0476 13.7076 22.0476C15.5685 22.0476 17.0825 23.5617 17.0825 25.4226C17.0825 27.2835 15.5685 28.7976 13.7076 28.7976ZM32.4234 28.7976C30.5625 28.7976 29.0485 27.2835 29.0485 25.4226C29.0485 23.5617 30.5625 22.0476 32.4234 22.0476C34.2844 22.0476 35.7984 23.5617 35.7984 25.4226C35.7984 27.2835 34.2844 28.7976 32.4234 28.7976ZM39.1059 24.8212H36.9603C36.6649 22.5804 34.7438 20.8449 32.4236 20.8449C30.1035 20.8449 28.1824 22.5805 27.887 24.8212H18.2442C17.9487 22.5804 16.0277 20.8449 13.7076 20.8449C11.3874 20.8449 9.46628 22.5805 9.17082 24.8212H7.15534L7.66025 19.6106H29.2174V19.6109C29.2177 19.6109 29.218 19.6109 29.2183 19.6109C29.2384 19.6109 29.2584 19.6098 29.2781 19.6078C29.2818 19.6075 29.2854 19.6067 29.2891 19.6062C29.3048 19.6044 29.3204 19.6021 29.3358 19.5991C29.3425 19.5977 29.349 19.5959 29.3555 19.5943C29.3676 19.5914 29.3796 19.5886 29.3913 19.5851C29.3993 19.5826 29.4069 19.5798 29.4147 19.577C29.4248 19.5735 29.4349 19.5701 29.4447 19.5661C29.4531 19.5626 29.4612 19.5588 29.4694 19.5549C29.4783 19.5508 29.4871 19.5467 29.4957 19.5422C29.5039 19.5379 29.5119 19.5333 29.52 19.5286C29.5283 19.5238 29.5364 19.5189 29.5445 19.5138C29.5522 19.5087 29.5596 19.5034 29.5671 19.4982C29.575 19.4925 29.5827 19.4868 29.5904 19.4808C29.5973 19.4752 29.6041 19.4695 29.6108 19.4637C29.6184 19.4571 29.6259 19.4504 29.6331 19.4434C29.6392 19.4376 29.6453 19.4315 29.6512 19.4254C29.6584 19.4178 29.6654 19.4101 29.6723 19.4021C29.6777 19.3959 29.683 19.3896 29.6881 19.3832C29.6948 19.3748 29.7011 19.3661 29.7073 19.3574C29.7121 19.3508 29.7166 19.3443 29.7211 19.3375C29.727 19.3285 29.7326 19.3192 29.738 19.3097C29.742 19.3027 29.7462 19.2956 29.7499 19.2884C29.755 19.2789 29.7593 19.2693 29.7639 19.2596C29.7674 19.2518 29.771 19.2442 29.7742 19.2362C29.7781 19.2267 29.7814 19.217 29.7849 19.2073C29.7878 19.1988 29.7909 19.1902 29.7936 19.1814C29.7962 19.1721 29.7984 19.1625 29.8008 19.1531C29.8031 19.1435 29.8057 19.1341 29.8075 19.1244C29.8094 19.1149 29.8105 19.1053 29.8119 19.0957C29.8134 19.0857 29.8151 19.076 29.816 19.0659C29.8162 19.0644 29.8165 19.0631 29.8166 19.0616L30.1179 15.6028H33.225C35.0669 15.6028 35.8977 16.5572 36.7771 17.5676C37.5027 18.4014 38.3129 19.3316 39.69 19.5585C39.5151 21.4078 39.2324 23.7817 39.1059 24.8212ZM39.7928 18.3538C38.8994 18.1716 38.3498 17.5436 37.6839 16.7786C36.8511 15.8219 35.8345 14.6544 33.8856 14.4369L34.1966 10.866C37.384 11.3374 39.8381 14.0907 39.8381 17.407C39.8381 17.6323 39.8213 17.9597 39.7928 18.3538Z" fill="#1C3AA9"/>
</svg>
