<svg width="40" height="40" viewBox="0 0 40 40" fill="none" xmlns="http://www.w3.org/2000/svg">
<path d="M37.958 20.6835C37.958 20.1849 38.3554 19.7875 38.854 19.7875C39.3514 19.7875 39.75 20.1921 39.75 20.6835V31.1079C39.75 35.0617 36.5341 38.2858 32.5722 38.2858H7.42784C3.47405 38.2858 0.25 35.0698 0.25 31.1079V20.5137C0.25 20.0151 0.647409 19.6177 1.14601 19.6177C1.64461 19.6177 2.04202 20.0151 2.04202 20.5137V31.1079C2.04202 34.0725 4.45419 36.4937 7.42784 36.4937H32.5722C35.5368 36.4937 37.958 34.0816 37.958 31.1079V20.6835Z" fill="black" stroke="white" stroke-width="0.5"/>
<path d="M19.3707 29.2587L19.3706 29.2586L12.0787 21.9752L12.0786 21.9751C11.7264 21.6228 11.7264 21.0596 12.0787 20.7073C12.431 20.3551 12.9942 20.3551 13.3465 20.7073L18.6776 26.0384L19.1044 26.4652V25.8616V2.61037C19.1044 2.11176 19.5018 1.71436 20.0004 1.71436C20.499 1.71436 20.8964 2.11176 20.8964 2.61037V25.8616V26.4659L21.3233 26.0383L26.6457 20.7073C26.998 20.3551 27.5613 20.3551 27.9136 20.7073C28.2659 21.0596 28.2659 21.6229 27.9136 21.9752L20.63 29.2587L20.63 29.2587L20.6267 29.2621C20.4569 29.4385 20.2266 29.5251 20.0004 29.5251C19.7784 29.5251 19.5448 29.4328 19.3707 29.2587Z" fill="black" stroke="white" stroke-width="0.5"/>
</svg>
