<svg width="105" height="30" viewBox="0 0 105 30" fill="none" xmlns="http://www.w3.org/2000/svg">
<path d="M36 6.52H32.6V13H31.91V5.9H36V6.52ZM38.2892 5.9H38.8792L41.8292 13H41.0892L40.1692 10.78H36.9792L36.0692 13H35.3192L38.2892 5.9ZM40.0092 10.23L38.5792 6.72L37.1292 10.23H40.0092ZM42.857 13V5.9H45.797C46.1037 5.9 46.3837 5.96667 46.637 6.1C46.897 6.22667 47.1204 6.39667 47.307 6.61C47.4937 6.81667 47.6404 7.05333 47.747 7.32C47.8537 7.58667 47.907 7.85667 47.907 8.13C47.907 8.42333 47.857 8.70667 47.757 8.98C47.657 9.24667 47.517 9.48333 47.337 9.69C47.157 9.89667 46.9404 10.0633 46.687 10.19C46.4404 10.3167 46.1637 10.38 45.857 10.38H43.557V13H42.857ZM43.557 9.76H45.827C46.0337 9.76 46.2204 9.71667 46.387 9.63C46.5604 9.53667 46.707 9.41667 46.827 9.27C46.947 9.11667 47.0404 8.94333 47.107 8.75C47.1737 8.55 47.207 8.34333 47.207 8.13C47.207 7.91 47.167 7.70333 47.087 7.51C47.0137 7.31 46.9104 7.13667 46.777 6.99C46.6504 6.84333 46.497 6.73 46.317 6.65C46.1437 6.56333 45.9604 6.52 45.767 6.52H43.557V9.76ZM50.8283 5.9H51.4183L54.3683 13H53.6283L52.7083 10.78H49.5183L48.6083 13H47.8583L50.8283 5.9ZM52.5483 10.23L51.1183 6.72L49.6683 10.23H52.5483ZM60.9961 5.9V13H60.3061V9.68H56.0961V13H55.3961V5.9H56.0961V9.06H60.3061V5.9H60.9961ZM67.8382 6.52H65.3082V13H64.6082V6.52H62.0782V5.9H67.8382V6.52ZM69.602 11.95L74.002 5.9H74.582V13H73.882V7.05L69.552 13H68.912V5.9H69.602V11.95ZM80.2024 13V10.15H78.3224L76.6024 13H75.7824L77.6024 10.04C77.3824 9.96667 77.1824 9.86333 77.0024 9.73C76.8291 9.59667 76.6791 9.44333 76.5524 9.27C76.4258 9.09 76.3258 8.89333 76.2524 8.68C76.1858 8.46667 76.1524 8.24333 76.1524 8.01C76.1524 7.74333 76.2058 7.48333 76.3124 7.23C76.4191 6.97667 76.5691 6.75333 76.7624 6.56C76.9558 6.36 77.1858 6.2 77.4524 6.08C77.7258 5.96 78.0258 5.9 78.3524 5.9H80.9024V13H80.2024ZM80.2024 6.52H78.3824C78.1691 6.52 77.9691 6.56 77.7824 6.64C77.5958 6.71333 77.4324 6.82 77.2924 6.96C77.1591 7.09333 77.0524 7.25 76.9724 7.43C76.8991 7.61 76.8624 7.80333 76.8624 8.01C76.8624 8.21 76.8958 8.40333 76.9624 8.59C77.0291 8.77 77.1224 8.93 77.2424 9.07C77.3691 9.21 77.5224 9.32333 77.7024 9.41C77.8824 9.49 78.0891 9.53 78.3224 9.53H80.2024V6.52ZM33.51 19.78C33.43 20.72 33.3267 21.5233 33.2 22.19C33.08 22.8567 32.9267 23.4033 32.74 23.83C32.56 24.25 32.34 24.56 32.08 24.76C31.8267 24.9533 31.5267 25.05 31.18 25.05L31.06 24.38C31.1933 24.3733 31.32 24.3467 31.44 24.3C31.5667 24.2533 31.6867 24.17 31.8 24.05C31.9133 23.9233 32.02 23.7533 32.12 23.54C32.22 23.32 32.3133 23.04 32.4 22.7C32.4867 22.3533 32.5633 21.9367 32.63 21.45C32.7033 20.9633 32.7667 20.3867 32.82 19.72L32.97 17.9H36.58V25H35.89V18.52H33.61L33.51 19.78ZM39.1739 25.07C39.0406 25.07 38.9039 25.0567 38.7639 25.03C38.6239 25.01 38.5006 24.97 38.3939 24.91V24.3C38.5072 24.3533 38.6272 24.3933 38.7539 24.42C38.8806 24.4467 39.0039 24.46 39.1239 24.46C39.2439 24.46 39.3539 24.4433 39.4539 24.41C39.5606 24.37 39.6606 24.3067 39.7539 24.22C39.8472 24.1333 39.9406 24.0167 40.0339 23.87C40.1339 23.7167 40.2339 23.5233 40.3339 23.29L37.7139 17.9H38.4539L40.6639 22.53L42.8039 17.9H43.5439L40.9739 23.33C40.8206 23.6567 40.6739 23.93 40.5339 24.15C40.3939 24.37 40.2539 24.55 40.1139 24.69C39.9739 24.8233 39.8272 24.92 39.6739 24.98C39.5272 25.04 39.3606 25.07 39.1739 25.07ZM48.2346 17.9H48.9346V25H48.2346V21.91C47.9813 22.0167 47.7146 22.0967 47.4346 22.15C47.1546 22.2033 46.8179 22.23 46.4246 22.23C46.0113 22.23 45.6613 22.1733 45.3746 22.06C45.0879 21.94 44.8546 21.7767 44.6746 21.57C44.5013 21.3567 44.3746 21.1 44.2946 20.8C44.2146 20.5 44.1746 20.1633 44.1746 19.79V17.9H44.8746V19.66C44.8746 20.0133 44.9013 20.3133 44.9546 20.56C45.0146 20.8067 45.1079 21.0067 45.2346 21.16C45.3679 21.3133 45.5379 21.4267 45.7446 21.5C45.9513 21.5667 46.2079 21.6 46.5146 21.6C46.8946 21.6 47.2346 21.5633 47.5346 21.49C47.8413 21.41 48.0746 21.31 48.2346 21.19V17.9ZM58.2479 17.9V25H50.7479V17.9H51.4379V24.38H54.1479V17.9H54.8479V24.38H57.5579V17.9H58.2479ZM64.8243 24.38V25H60.0543V17.9H64.7343V18.52H60.7543V21.08H64.2243V21.67H60.7543V24.38H64.8243ZM70.548 15.84C70.5347 16.16 70.398 16.4167 70.138 16.61C69.8847 16.7967 69.5314 16.89 69.078 16.89C68.6247 16.89 68.268 16.7967 68.008 16.61C67.7547 16.4167 67.6214 16.16 67.608 15.84H68.038C68.038 15.9267 68.0647 16.01 68.118 16.09C68.1714 16.17 68.2447 16.24 68.338 16.3C68.4314 16.36 68.5414 16.41 68.668 16.45C68.7947 16.4833 68.9347 16.5 69.088 16.5C69.3747 16.5 69.6114 16.44 69.798 16.32C69.9914 16.1933 70.1014 16.0333 70.128 15.84H70.548ZM66.848 23.95L71.248 17.9H71.828V25H71.128V19.05L66.798 25H66.158V17.9H66.848V23.95ZM81.6973 25H76.1873V17.9H76.8873V24.38H80.6073V17.9H81.3073V24.38H82.3173V26.86H81.6973V25ZM88.1837 24.38V25H83.4137V17.9H88.0937V18.52H84.1137V21.08H87.5837V21.67H84.1137V24.38H88.1837ZM95.1074 17.9V25H94.4174V21.68H90.2074V25H89.5074V17.9H90.2074V21.06H94.4174V17.9H95.1074ZM96.9295 17.9H97.6195V20.61H99.2995C99.6462 20.61 99.9595 20.66 100.24 20.76C100.526 20.8533 100.77 20.9933 100.97 21.18C101.176 21.3667 101.336 21.5967 101.45 21.87C101.563 22.1433 101.62 22.4533 101.62 22.8C101.62 23.14 101.56 23.4467 101.44 23.72C101.326 23.9933 101.166 24.2267 100.96 24.42C100.76 24.6067 100.516 24.75 100.23 24.85C99.9495 24.95 99.6395 25 99.2995 25H96.9295V17.9ZM97.6195 24.39H99.2995C99.5795 24.39 99.8195 24.35 100.02 24.27C100.226 24.19 100.396 24.08 100.53 23.94C100.663 23.7933 100.76 23.6233 100.82 23.43C100.886 23.2367 100.92 23.0267 100.92 22.8C100.92 22.5733 100.886 22.3633 100.82 22.17C100.76 21.9767 100.663 21.81 100.53 21.67C100.396 21.53 100.226 21.42 100.02 21.34C99.8195 21.26 99.5795 21.22 99.2995 21.22H97.6195V24.39ZM102.6 25V17.91H103.3V25H102.6Z" fill="#9E9E9E"/>
<g clip-path="url(#clip0)">
<path d="M25.2927 4.93356C24.3641 4.81614 23.4566 4.61015 22.5958 4.32153C22.3655 4.24439 22.1165 4.36845 22.0394 4.59847C21.9622 4.82873 22.0863 5.07775 22.3163 5.15489C23.2321 5.46205 24.1963 5.68086 25.1826 5.8056C26.6616 5.99283 27.7172 7.35788 27.5355 8.84836C27.2972 10.803 26.861 13.7206 26.1359 16.5194C25.346 19.5678 24.419 21.6889 23.3806 22.8237C21.2481 25.1539 18.5745 27.2194 16.7073 28.5416C15.7261 29.2365 14.4077 29.2365 13.4267 28.5416C11.5595 27.2194 8.88594 25.1539 6.75344 22.8237C5.71501 21.6889 4.7878 19.5678 3.99816 16.5194C3.27306 13.7206 2.83681 10.803 2.59832 8.84836C2.41681 7.35788 3.47219 5.99283 4.95145 5.8056C9.2153 5.26635 12.0413 3.12401 13.6613 1.42182C14.0305 1.03409 14.5297 0.820314 15.0669 0.820314C15.6041 0.820314 16.1033 1.03409 16.4727 1.42182C17.6398 2.64817 18.9888 3.64815 20.4823 4.39408C20.6992 4.50257 20.9634 4.41445 21.0719 4.19724C21.1801 3.98003 21.092 3.71613 20.875 3.60787C19.4729 2.90749 18.206 1.96816 17.1092 0.815965C16.5725 0.252 15.8472 -0.0585938 15.0669 -0.0585938C14.2866 -0.0585938 13.5613 0.252 13.0246 0.815965C11.503 2.41471 8.84818 4.42681 4.84113 4.93356C2.88327 5.18121 1.48572 6.98526 1.72582 8.95479C2.13506 12.3116 3.38109 20.4406 6.10502 23.4172C8.28993 25.8046 11.0164 27.9117 12.9186 29.2589C13.5611 29.714 14.3139 29.9415 15.0669 29.9415C15.8197 29.9412 16.5727 29.714 17.2152 29.2589C19.1174 27.9117 21.8439 25.8046 24.0288 23.4172C26.753 20.4406 27.9988 12.3116 28.408 8.95479C28.6481 6.98526 27.2505 5.18121 25.2927 4.93356Z" fill="black"/>
<path d="M14.0755 4.06954C11.8523 5.99329 9.25704 7.25238 6.36191 7.81176C5.4798 7.98228 4.88425 8.81633 5.00601 9.7108C5.21086 11.2148 5.62971 14.0275 6.13211 15.9666C7.04787 19.5019 7.93342 20.848 8.37974 21.3355C9.84687 22.9386 12.5692 25.0807 14.0613 26.2148C14.3575 26.4398 14.7122 26.5522 15.067 26.5522C15.4218 26.5522 15.7765 26.4398 16.0727 26.2148C17.5648 25.0807 20.2871 22.9386 21.7542 21.3355C22.2006 20.848 23.0861 19.5019 24.0019 15.9666C24.5045 14.0271 24.9231 11.2146 25.1282 9.7108C25.25 8.81633 24.6542 7.98228 23.7721 7.81176C20.8769 7.25238 18.2816 5.99329 16.0585 4.06954C15.4932 3.58042 14.6408 3.58042 14.0755 4.06954ZM24.2573 9.59201C24.055 11.0768 23.6423 13.8504 23.1511 15.7462C22.2253 19.32 21.3516 20.4735 21.106 20.7422C19.6323 22.3524 16.7232 24.6163 15.5408 25.5149C15.2618 25.7271 14.8722 25.7271 14.5932 25.5149C13.4108 24.6163 10.5017 22.3522 9.02816 20.7422C8.78234 20.4735 7.9087 19.32 6.98287 15.7462C6.49191 13.8508 6.07924 11.077 5.87691 9.59201C5.81786 9.15965 6.10419 8.75682 6.52854 8.67465C9.57702 8.08574 12.3096 6.76005 14.6507 4.73421C14.7692 4.63144 14.9182 4.57995 15.067 4.57995C15.2158 4.57995 15.3648 4.63144 15.4833 4.73421C17.8243 6.76005 20.557 8.08574 23.6054 8.67465C24.0298 8.75682 24.3161 9.15965 24.2573 9.59201Z" fill="black"/>
<path d="M12.6299 13.6563C12.2994 13.3871 11.1838 12.8314 10.385 13.8867C9.58645 14.9419 10.285 15.8624 10.6155 16.1316L11.8899 17.1684C12.0781 17.3216 12.355 17.2934 12.5081 17.105C12.6613 16.9167 12.6329 16.64 12.4447 16.4866L11.1703 15.4498C11.022 15.3289 10.6979 14.9355 11.0669 14.4413C11.4358 13.9474 11.9268 14.217 12.0751 14.3379L14.7139 16.485C14.888 16.6267 15.141 16.6143 15.3005 16.4562L19.162 12.6309C19.4428 12.3525 19.8974 12.3548 20.1757 12.6357C20.4538 12.9163 20.4515 13.3711 20.1709 13.6492L15.5715 18.2057C15.2073 18.5568 14.8063 18.4106 14.6148 18.2524L13.8846 17.6585C13.6963 17.5054 13.4195 17.5337 13.2662 17.7219C13.1131 17.91 13.1414 18.187 13.3298 18.3401L14.0599 18.9343C14.3435 19.165 14.701 19.2922 15.0668 19.2922C15.4905 19.2922 15.8894 19.1281 16.1902 18.8301L20.7893 14.2738C21.4144 13.6544 21.4192 12.6421 20.7998 12.017C20.1807 11.3922 19.1684 11.3873 18.5433 12.0065L14.9622 15.5541L12.6299 13.6563Z" fill="black"/>
</g>
<defs>
<clipPath id="clip0">
<rect width="30" height="30" fill="white"/>
</clipPath>
</defs>
</svg>
