<svg width="30" height="30" viewBox="0 0 30 30" fill="none" xmlns="http://www.w3.org/2000/svg">
<path d="M19.7648 15.6122L19.3571 15.893L19.825 16.0544C21.9107 16.7741 23.8228 17.9631 25.4299 19.5701C28.157 22.2974 29.6845 25.9032 29.7479 29.75H27.9039C27.7702 22.7481 22.0332 17.0938 15 17.0938C7.96676 17.0938 2.22982 22.7481 2.09613 29.75H0.252061C0.315529 25.9032 1.84296 22.2974 4.57019 19.5701C6.17725 17.9631 8.08932 16.7741 10.175 16.0544L10.6429 15.893L10.2353 15.6122C8.02742 14.0916 6.57812 11.5477 6.57812 8.67188C6.57812 4.02829 10.3564 0.25 15 0.25C19.6436 0.25 23.4219 4.02829 23.4219 8.67188C23.4219 11.5477 21.9726 14.0916 19.7648 15.6122ZM8.42188 8.67188C8.42188 12.2993 11.3726 15.25 15 15.25C18.6274 15.25 21.5781 12.2993 21.5781 8.67188C21.5781 5.04443 18.6274 2.09375 15 2.09375C11.3726 2.09375 8.42188 5.04443 8.42188 8.67188Z" fill="#222631" stroke="white" stroke-width="0.5"/>
</svg>
