<svg width="28" height="30" viewBox="0 0 28 30" fill="none" xmlns="http://www.w3.org/2000/svg">
<path d="M27.2533 13.2537C27.2533 5.94557 21.3078 0 13.9998 0C6.69172 0 0.746094 5.94557 0.746094 13.2537C0.746094 13.6878 1.09807 14.0398 1.53219 14.0398C1.96631 14.0398 2.31828 13.6877 2.31828 13.2537C2.31828 6.81246 7.55856 1.57225 13.9997 1.57225C20.4409 1.57225 25.6811 6.81252 25.6811 13.2537C25.6811 19.6948 20.4409 24.935 13.9997 24.935C13.4723 24.935 13.1931 24.3113 13.5445 23.918L14.586 22.7521C14.8753 22.4284 14.8472 21.9314 14.5235 21.6421C14.1997 21.3529 13.7027 21.381 13.4135 21.7047L10.6258 24.8251C10.1695 25.3359 10.1695 26.1063 10.6258 26.6171L13.4135 29.7376C13.5688 29.9115 13.7839 29.9999 14 29.9999C14.1864 29.9999 14.3735 29.934 14.5235 29.8001C14.8473 29.5109 14.8753 29.0139 14.586 28.6901L13.5445 27.5243C13.1931 27.131 13.4723 26.5072 13.9997 26.5072C21.3078 26.5072 27.2533 20.5617 27.2533 13.2537Z" fill="#1C3AA9"/>
</svg>
