<svg width="30" height="30" viewBox="0 0 30 30" fill="none" xmlns="http://www.w3.org/2000/svg">
<g clip-path="url(#clip0)">
<path d="M12.3935 5.03128C14.0729 3.35183 16.3059 2.42688 18.681 2.42688C21.0562 2.42688 23.2891 3.35183 24.9686 5.03128C26.648 6.71073 27.573 8.94377 27.573 11.3189C27.573 13.6941 26.648 15.927 24.9686 17.6065C23.2891 19.2859 21.0561 20.2109 18.681 20.2109C16.3059 20.2109 14.0729 19.2859 12.3935 17.6065C10.714 15.927 9.78907 13.694 9.78907 11.3189C9.78907 8.94369 10.714 6.71073 12.3935 5.03128ZM13.2304 16.7694C14.6863 18.2253 16.6221 19.0272 18.681 19.0272C20.74 19.0272 22.6757 18.2254 24.1316 16.7694C27.1371 13.764 27.1371 8.87369 24.1316 5.86825C22.6757 4.41236 20.74 3.61059 18.681 3.61059C16.6221 3.61059 14.6863 4.41236 13.2304 5.86825C10.225 8.87369 10.225 13.764 13.2304 16.7694Z" fill="black"/>
<path d="M15.0817 5.39026C15.361 5.22044 15.7251 5.30914 15.895 5.58842C16.0648 5.86769 15.9761 6.2318 15.6968 6.40163C15.3058 6.6394 14.9418 6.9257 14.6149 7.25264C14.4994 7.36825 14.3478 7.42601 14.1964 7.42601C14.045 7.42601 13.8935 7.36825 13.7779 7.25264C13.5468 7.0215 13.5468 6.64681 13.7779 6.41567C14.1715 6.02205 14.6102 5.67704 15.0817 5.39026Z" fill="black"/>
<path d="M23.1657 7.42606C23.0143 7.42606 22.8628 7.3683 22.7473 7.25269C21.4539 5.95929 19.6009 5.35543 17.7911 5.63732C17.468 5.68766 17.1656 5.46655 17.1152 5.14355C17.065 4.82055 17.286 4.518 17.6089 4.46765C19.791 4.12793 22.0246 4.85615 23.5842 6.41572C23.8154 6.64686 23.8154 7.02155 23.5842 7.25269C23.4687 7.3683 23.3172 7.42606 23.1657 7.42606Z" fill="black"/>
<path d="M21.7193 16.2028C22.0897 15.9719 22.4355 15.6968 22.7473 15.385C22.9784 15.1539 23.3532 15.1539 23.5842 15.385C23.8154 15.6162 23.8154 15.9908 23.5842 16.222C23.2089 16.5973 22.7922 16.9288 22.3455 17.2072C22.2481 17.268 22.1398 17.2969 22.033 17.2969C21.8355 17.2969 21.6424 17.198 21.5302 17.0181C21.3573 16.7408 21.4419 16.3758 21.7193 16.2028Z" fill="black"/>
<path d="M14.6149 15.385C15.8689 16.639 17.5993 17.2383 19.3628 17.0291C19.6874 16.9904 19.9818 17.2225 20.0202 17.5471C20.0587 17.8716 19.8268 18.166 19.5022 18.2045C19.2237 18.2376 18.9461 18.2538 18.6702 18.2538C16.8399 18.2538 15.092 17.5359 13.778 16.222C13.5468 15.9909 13.5468 15.6161 13.778 15.385C14.009 15.154 14.3838 15.154 14.6149 15.385Z" fill="black"/>
<path d="M0.717844 25.8066L7.88072 18.6437C8.11186 18.4126 8.48662 18.4126 8.71769 18.6437L9.00422 18.9303L9.70711 18.2274C6.28563 13.7899 6.60744 7.37683 10.673 3.31125C15.0883 -1.10408 22.2725 -1.10408 26.6878 3.31125C31.1031 7.7265 31.1031 14.9108 26.6878 19.326C24.4802 21.5336 21.5802 22.6375 18.6804 22.6375C16.2399 22.6375 13.7995 21.8555 11.7717 20.2919L11.0688 20.9948L11.3553 21.2813C11.4663 21.3923 11.5287 21.5429 11.5287 21.6998C11.5287 21.8568 11.4663 22.0074 11.3553 22.1183L4.19243 29.2812C3.71342 29.7602 3.08432 29.9996 2.45506 29.9996C1.82596 29.9996 1.19669 29.7601 0.717686 29.2812C-0.240175 28.3233 -0.240173 26.7646 0.717844 25.8066ZM25.8509 18.489C27.7662 16.5737 28.821 14.0272 28.821 11.3187C28.821 8.6101 27.7661 6.06354 25.8509 4.14829C23.9356 2.23305 21.3891 1.1782 18.6805 1.1782C15.9719 1.1782 13.4253 2.23305 11.5101 4.14829C9.59473 6.06362 8.53997 8.6101 8.53997 11.3187C8.53997 14.0272 9.59473 16.5738 11.5101 18.489C13.4254 20.4043 15.9719 21.4591 18.6804 21.4591C21.389 21.4591 23.9356 20.4044 25.8509 18.489ZM10.8709 19.5189C10.8043 19.4555 10.7384 19.3913 10.6731 19.326C10.6078 19.2607 10.5436 19.1947 10.4802 19.1282L9.84126 19.7672L10.2319 20.1578L10.8709 19.5189ZM1.55481 28.4443C2.05133 28.9407 2.85902 28.9407 3.35547 28.4443L10.0999 21.6999L8.2992 19.8992L1.55481 26.6436C1.05836 27.1401 1.05836 27.9478 1.55481 28.4443Z" fill="black"/>
</g>
<defs>
<clipPath id="clip0">
<rect width="30" height="30" fill="white" transform="matrix(-1 0 0 1 30 0)"/>
</clipPath>
</defs>
</svg>
