<svg width="30" height="30" viewBox="0 0 30 30" fill="none" xmlns="http://www.w3.org/2000/svg">
<g clip-path="url(#clip0)">
<path d="M25.2927 4.93356C24.3641 4.81614 23.4566 4.61015 22.5958 4.32153C22.3655 4.24439 22.1165 4.36845 22.0394 4.59847C21.9622 4.82873 22.0863 5.07775 22.3163 5.15489C23.2321 5.46205 24.1963 5.68086 25.1826 5.8056C26.6616 5.99283 27.7172 7.35788 27.5355 8.84836C27.2972 10.803 26.861 13.7206 26.1359 16.5194C25.346 19.5678 24.419 21.6889 23.3806 22.8237C21.2481 25.1539 18.5745 27.2194 16.7073 28.5416C15.7261 29.2365 14.4077 29.2365 13.4267 28.5416C11.5595 27.2194 8.88594 25.1539 6.75344 22.8237C5.71501 21.6889 4.7878 19.5678 3.99816 16.5194C3.27306 13.7206 2.83681 10.803 2.59832 8.84836C2.41681 7.35788 3.47219 5.99283 4.95145 5.8056C9.2153 5.26635 12.0413 3.12401 13.6613 1.42182C14.0305 1.03409 14.5297 0.820314 15.0669 0.820314C15.6041 0.820314 16.1033 1.03409 16.4727 1.42182C17.6398 2.64817 18.9888 3.64815 20.4823 4.39408C20.6992 4.50257 20.9634 4.41445 21.0719 4.19724C21.1801 3.98003 21.092 3.71613 20.875 3.60787C19.4729 2.90749 18.206 1.96816 17.1092 0.815965C16.5725 0.252 15.8472 -0.0585938 15.0669 -0.0585938C14.2866 -0.0585938 13.5613 0.252 13.0246 0.815965C11.503 2.41471 8.84818 4.42681 4.84113 4.93356C2.88327 5.18121 1.48572 6.98526 1.72582 8.95479C2.13506 12.3116 3.38109 20.4406 6.10502 23.4172C8.28993 25.8046 11.0164 27.9117 12.9186 29.2589C13.5611 29.714 14.3139 29.9415 15.0669 29.9415C15.8197 29.9412 16.5727 29.714 17.2152 29.2589C19.1174 27.9117 21.8439 25.8046 24.0288 23.4172C26.753 20.4406 27.9988 12.3116 28.408 8.95479C28.6481 6.98526 27.2505 5.18121 25.2927 4.93356Z" fill="black"/>
<path d="M14.0755 4.06954C11.8523 5.99329 9.25704 7.25238 6.36191 7.81176C5.4798 7.98228 4.88425 8.81633 5.00601 9.7108C5.21086 11.2148 5.62971 14.0275 6.13211 15.9666C7.04787 19.5019 7.93342 20.848 8.37974 21.3355C9.84687 22.9386 12.5692 25.0807 14.0613 26.2148C14.3575 26.4398 14.7122 26.5522 15.067 26.5522C15.4218 26.5522 15.7765 26.4398 16.0727 26.2148C17.5648 25.0807 20.2871 22.9386 21.7542 21.3355C22.2006 20.848 23.0861 19.5019 24.0019 15.9666C24.5045 14.0271 24.9231 11.2146 25.1282 9.7108C25.25 8.81633 24.6542 7.98228 23.7721 7.81176C20.8769 7.25238 18.2816 5.99329 16.0585 4.06954C15.4932 3.58042 14.6408 3.58042 14.0755 4.06954ZM24.2573 9.59201C24.055 11.0768 23.6423 13.8504 23.1511 15.7462C22.2253 19.32 21.3516 20.4735 21.106 20.7422C19.6323 22.3524 16.7232 24.6163 15.5408 25.5149C15.2618 25.7271 14.8722 25.7271 14.5932 25.5149C13.4108 24.6163 10.5017 22.3522 9.02816 20.7422C8.78234 20.4735 7.9087 19.32 6.98287 15.7462C6.49191 13.8508 6.07924 11.077 5.87691 9.59201C5.81786 9.15965 6.10419 8.75682 6.52854 8.67465C9.57702 8.08574 12.3096 6.76005 14.6507 4.73421C14.7692 4.63144 14.9182 4.57995 15.067 4.57995C15.2158 4.57995 15.3648 4.63144 15.4833 4.73421C17.8243 6.76005 20.557 8.08574 23.6054 8.67465C24.0298 8.75682 24.3161 9.15965 24.2573 9.59201Z" fill="black"/>
<path d="M12.6299 13.6563C12.2994 13.3871 11.1838 12.8314 10.385 13.8867C9.58645 14.9419 10.285 15.8624 10.6155 16.1316L11.8899 17.1684C12.0781 17.3216 12.355 17.2934 12.5081 17.105C12.6613 16.9167 12.6329 16.64 12.4447 16.4866L11.1703 15.4498C11.022 15.3289 10.6979 14.9355 11.0669 14.4413C11.4358 13.9474 11.9268 14.217 12.0751 14.3379L14.7139 16.485C14.888 16.6267 15.141 16.6143 15.3005 16.4562L19.162 12.6309C19.4428 12.3525 19.8974 12.3548 20.1757 12.6357C20.4538 12.9163 20.4515 13.3711 20.1709 13.6492L15.5715 18.2057C15.2073 18.5568 14.8063 18.4106 14.6148 18.2524L13.8846 17.6585C13.6963 17.5054 13.4195 17.5337 13.2662 17.7219C13.1131 17.91 13.1414 18.187 13.3298 18.3401L14.0599 18.9343C14.3435 19.165 14.701 19.2922 15.0668 19.2922C15.4905 19.2922 15.8894 19.1281 16.1902 18.8301L20.7893 14.2738C21.4144 13.6544 21.4192 12.6421 20.7998 12.017C20.1807 11.3922 19.1684 11.3873 18.5433 12.0065L14.9622 15.5541L12.6299 13.6563Z" fill="black"/>
</g>
<defs>
<clipPath id="clip0">
<rect width="30" height="30" fill="white"/>
</clipPath>
</defs>
</svg>
