<svg width="30" height="30" viewBox="0 0 30 30" fill="none" xmlns="http://www.w3.org/2000/svg">
<g clip-path="url(#clip0)">
<path d="M12.5793 23.6033C11.1245 23.6033 9.94092 24.7869 9.94092 26.2417C9.94092 27.6965 11.1245 28.8801 12.5793 28.8801C14.0342 28.8801 15.2178 27.6965 15.2178 26.2417C15.2177 24.7869 14.0341 23.6033 12.5793 23.6033ZM12.5793 27.4068C11.9368 27.4068 11.4141 26.8841 11.4141 26.2416C11.4141 25.599 11.9369 25.0763 12.5793 25.0763C13.2218 25.0763 13.7446 25.5991 13.7446 26.2416C13.7446 26.8842 13.2218 27.4068 12.5793 27.4068Z" fill="black"/>
<path d="M21.8337 23.6033C20.3789 23.6033 19.1953 24.7869 19.1953 26.2417C19.1953 27.6965 20.3789 28.8801 21.8337 28.8801C23.2886 28.8801 24.4722 27.6965 24.4722 26.2417C24.4721 24.7869 23.2885 23.6033 21.8337 23.6033ZM21.8337 27.4068C21.1912 27.4068 20.6685 26.8841 20.6685 26.2416C20.6685 25.599 21.1913 25.0763 21.8337 25.0763C22.4763 25.0763 22.999 25.5991 22.999 26.2416C22.999 26.8842 22.4762 27.4068 21.8337 27.4068Z" fill="black"/>
<path d="M22.4834 9.71222H11.9277C11.5209 9.71222 11.1912 10.042 11.1912 10.4488C11.1912 10.8556 11.521 11.1854 11.9277 11.1854H22.4834C22.8902 11.1854 23.22 10.8556 23.22 10.4488C23.22 10.0419 22.8902 9.71222 22.4834 9.71222Z" fill="black"/>
<path d="M21.909 13.5372H12.5025C12.0956 13.5372 11.7659 13.867 11.7659 14.2738C11.7659 14.6806 12.0956 15.0104 12.5025 15.0104H21.9089C22.3158 15.0104 22.6455 14.6806 22.6455 14.2738C22.6455 13.8671 22.3158 13.5372 21.909 13.5372Z" fill="black"/>
<path d="M29.6685 6.4303C29.3876 6.08553 28.9713 5.88784 28.5265 5.88784H5.58273L5.11937 3.63848C5.02263 3.16926 4.70259 2.77527 4.26308 2.58443L1.03005 1.18111C0.656804 1.01898 0.223034 1.19025 0.0611397 1.56337C-0.100931 1.93662 0.0703389 2.37045 0.443406 2.53234L3.67649 3.93572L7.24052 21.2362C7.38091 21.9175 7.98771 22.4121 8.68339 22.4121H26.3299C26.7367 22.4121 27.0664 22.0823 27.0664 21.6755C27.0664 21.2687 26.7367 20.9389 26.3299 20.9389H8.68345L8.24992 18.8344H26.4663C27.1619 18.8344 27.7687 18.3399 27.9091 17.6586L29.9694 7.65807C30.0591 7.2226 29.9494 6.775 29.6685 6.4303ZM26.4663 17.3614H7.94646L5.88624 7.36094L28.5265 7.361L26.4663 17.3614Z" fill="black"/>
</g>
<defs>
<clipPath id="clip0">
<rect width="30" height="30" fill="white"/>
</clipPath>
</defs>
</svg>
