<svg width="30" height="30" viewBox="0 0 30 30" fill="none" xmlns="http://www.w3.org/2000/svg">
<path d="M25.6083 4.39236C19.7592 -1.45679 10.2419 -1.45679 4.39288 4.39236C2.34069 6.44455 0.936918 9.02273 0.333178 11.8483C-0.254587 14.5996 -0.0620572 17.4501 0.889905 20.0914C1.00428 20.4086 1.35424 20.5731 1.67132 20.4588C1.98861 20.3444 2.15305 19.9946 2.03867 19.6774C1.16405 17.2505 0.987188 14.6315 1.52733 12.1033C2.08161 9.50884 3.37111 7.14089 5.25631 5.25569C10.6293 -0.117331 19.3718 -0.117331 24.7448 5.25569C27.3036 7.81454 28.736 11.2159 28.778 14.8333C28.82 18.4442 27.4743 21.8726 24.9891 24.4871C24.9597 24.518 24.9305 24.5491 24.9014 24.5803C24.85 24.6353 24.7986 24.6905 24.7448 24.7442C19.3718 30.1172 10.6293 30.1172 5.25631 24.7442C5.22772 24.7156 5.19984 24.6865 5.17226 24.6574C5.17084 24.601 5.16962 24.5455 5.16962 24.4907C5.16962 24.3678 5.17196 24.2454 5.17643 24.1234C5.17796 24.0826 5.18101 24.0422 5.18305 24.0015C5.18702 23.9204 5.19078 23.8393 5.19668 23.7586C5.20025 23.7104 5.20544 23.6628 5.20971 23.6149C5.21612 23.5421 5.22212 23.4694 5.23006 23.397C5.23566 23.3459 5.24298 23.2952 5.2494 23.2444C5.25804 23.1757 5.26629 23.1068 5.27646 23.0384C5.2842 22.9863 5.29336 22.9347 5.3019 22.8829C5.31279 22.8163 5.32337 22.7496 5.33569 22.6834C5.34535 22.631 5.35645 22.5791 5.36703 22.527C5.38016 22.4619 5.39308 22.3968 5.40753 22.3322C5.41923 22.2798 5.43226 22.2277 5.44477 22.1756C5.46004 22.112 5.4752 22.0484 5.49169 21.9853C5.50542 21.933 5.52028 21.8811 5.53473 21.8291C5.55213 21.7668 5.56943 21.7044 5.58805 21.6426C5.60362 21.5907 5.62031 21.5392 5.6368 21.4877C5.65633 21.4265 5.67587 21.3653 5.69653 21.3046C5.71403 21.2534 5.73235 21.2026 5.75066 21.1517C5.77234 21.0914 5.79412 21.0312 5.81691 20.9714C5.83624 20.9208 5.85629 20.8707 5.87644 20.8206C5.90015 20.7614 5.92406 20.7023 5.94889 20.6437C5.97006 20.5938 5.99183 20.5444 6.01381 20.4949C6.03956 20.4368 6.06561 20.3789 6.09247 20.3214C6.11537 20.2725 6.13878 20.2238 6.16249 20.1753C6.19037 20.1182 6.21856 20.0612 6.24746 20.0047C6.27198 19.9569 6.29691 19.9093 6.32225 19.8619C6.35217 19.8057 6.38259 19.7497 6.41363 19.6941C6.43978 19.6473 6.46624 19.6007 6.4931 19.5544C6.52506 19.4993 6.55752 19.4446 6.59059 19.39C6.61837 19.3442 6.64646 19.2986 6.67495 19.2533C6.70894 19.1993 6.74343 19.1457 6.77844 19.0925C6.80774 19.0478 6.83725 19.0033 6.86727 18.9592C6.90319 18.9062 6.93993 18.8539 6.97697 18.8017C7.0078 18.7583 7.03864 18.7149 7.07018 18.6721C7.10814 18.6204 7.14691 18.5692 7.18588 18.5183C7.21814 18.4762 7.2503 18.4341 7.28327 18.3925C7.32326 18.3419 7.36417 18.2919 7.40518 18.2422C7.43866 18.2015 7.47213 18.1608 7.50633 18.1206C7.54845 18.0711 7.5915 18.0224 7.63464 17.9737C7.66945 17.9344 7.70404 17.8951 7.73946 17.8564C7.78362 17.8082 7.8287 17.7608 7.87388 17.7135C7.9099 17.6757 7.94572 17.6377 7.98236 17.6004C8.02866 17.5534 8.07598 17.5074 8.12319 17.4612C8.16023 17.425 8.19697 17.3885 8.23462 17.3529C8.28326 17.3069 8.33302 17.262 8.38258 17.217C8.42043 17.1827 8.45778 17.148 8.49614 17.1143C8.54733 17.0692 8.59984 17.0254 8.65204 16.9814C8.6903 16.9491 8.72815 16.9163 8.76692 16.8846C8.82096 16.8404 8.87632 16.7976 8.93147 16.7544C8.96994 16.7244 9.00779 16.6937 9.04666 16.6642C9.10477 16.6201 9.16409 16.5776 9.22332 16.5348C9.26066 16.5078 9.2973 16.4801 9.33515 16.4535C9.40048 16.4076 9.46734 16.3634 9.53399 16.3189C9.56686 16.297 9.59901 16.2743 9.63209 16.2528C9.71899 16.1963 9.80742 16.1416 9.89646 16.0877C9.9103 16.0794 9.92373 16.0704 9.93767 16.0621C10.0407 16.0004 10.1451 15.9406 10.2507 15.8824C10.2868 15.8625 10.324 15.8439 10.3605 15.8245C10.4306 15.787 10.5005 15.7493 10.5718 15.7134C10.6175 15.6904 10.6643 15.6689 10.7104 15.6466C10.7686 15.6184 10.8266 15.5899 10.8856 15.5627C11.9922 16.6198 13.4684 17.2183 15.0007 17.2183C16.533 17.2183 18.0094 16.6197 19.116 15.5625C21.2763 16.5623 23.0443 18.3562 24.0042 20.5378C24.14 20.8463 24.5001 20.9866 24.8089 20.8508C25.1176 20.7149 25.2577 20.3546 25.1219 20.0461C24.0719 17.6598 22.244 15.7529 19.9303 14.6018C20.6016 13.6171 20.9648 12.4543 20.9648 11.2543C20.9648 7.96575 18.2893 5.29028 15.0007 5.29028C14.6636 5.29028 14.3902 5.56371 14.3902 5.90084C14.3902 6.23797 14.6636 6.5114 15.0007 6.5114C17.6161 6.5114 19.7436 8.6391 19.7436 11.2543C19.7436 12.4237 19.309 13.5498 18.52 14.4249C18.5199 14.425 18.5198 14.4251 18.5197 14.4252C17.6187 15.4242 16.3361 15.9972 15.0006 15.9972C13.6651 15.9972 12.3824 15.4242 11.4816 14.4252C11.4815 14.425 11.4813 14.4249 11.4811 14.4248C10.6921 13.5494 10.2576 12.4236 10.2576 11.2544C10.2576 9.97795 10.7573 8.78044 11.6648 7.88272C11.9046 7.64551 11.9066 7.25893 11.6694 7.01928C11.4323 6.77944 11.0457 6.77761 10.806 7.0146C9.66496 8.14312 9.03649 9.64886 9.03649 11.254C9.03649 12.4527 9.39875 13.6147 10.0689 14.599C10.0629 14.6019 10.0571 14.6052 10.0512 14.6082C10.0036 14.632 9.95711 14.6573 9.90989 14.6816C9.83754 14.719 9.76499 14.7563 9.69365 14.7953C9.64318 14.8227 9.59383 14.8516 9.54386 14.8798C9.47721 14.9176 9.41045 14.9551 9.34472 14.9941C9.29374 15.0244 9.24357 15.0558 9.1931 15.0868C9.13 15.1257 9.06691 15.1644 9.00474 15.2044C8.95396 15.2371 8.9041 15.2707 8.85393 15.3041C8.79359 15.3443 8.73334 15.3846 8.67392 15.426C8.62395 15.4608 8.5746 15.4963 8.52525 15.5318C8.46724 15.5736 8.40944 15.6156 8.35236 15.6585C8.30341 15.6952 8.25507 15.7325 8.20684 15.7699C8.15087 15.8134 8.09531 15.8571 8.04036 15.9016C7.99274 15.9401 7.94552 15.979 7.89851 16.0182C7.84447 16.0634 7.79085 16.1091 7.73773 16.1553C7.69163 16.1953 7.64584 16.2356 7.60045 16.2764C7.54805 16.3235 7.49635 16.3711 7.44496 16.4191C7.4006 16.4606 7.35633 16.5021 7.31257 16.5443C7.2618 16.5934 7.21183 16.6431 7.16197 16.6931C7.11943 16.7357 7.0769 16.7782 7.03518 16.8215C6.98582 16.8727 6.93739 16.9248 6.88905 16.9769C6.84865 17.0204 6.80795 17.0638 6.76826 17.1081C6.71993 17.1618 6.67291 17.2166 6.6257 17.2713C6.58774 17.3152 6.54948 17.3588 6.51223 17.4033C6.4643 17.4605 6.4179 17.519 6.37119 17.5772C6.33649 17.6205 6.30108 17.6633 6.26699 17.7071C6.21794 17.7702 6.17052 17.8345 6.1229 17.8986C6.09298 17.9389 6.06225 17.9785 6.03295 18.0192C5.9727 18.1027 5.9144 18.1873 5.8566 18.2724C5.84143 18.2948 5.82536 18.3166 5.8103 18.339C5.73835 18.4465 5.66844 18.5552 5.60036 18.6651C5.57686 18.703 5.55478 18.7418 5.53178 18.78C5.48772 18.8531 5.44345 18.9262 5.40102 19.0004C5.37456 19.0467 5.34953 19.0938 5.32378 19.1405C5.28664 19.2077 5.24929 19.2746 5.21368 19.3426C5.18722 19.393 5.16219 19.4439 5.13644 19.4947C5.10327 19.5603 5.06999 19.6257 5.03814 19.6919C5.0128 19.7446 4.98869 19.798 4.96416 19.851C4.93404 19.9164 4.90382 19.9817 4.87492 20.0478C4.85111 20.1022 4.82831 20.1572 4.80542 20.212C4.77784 20.2779 4.75047 20.3437 4.72421 20.4101C4.70213 20.4658 4.68097 20.5219 4.6598 20.578C4.63477 20.6445 4.61004 20.7112 4.58623 20.7782C4.56608 20.8351 4.54654 20.8923 4.52721 20.9496C4.50451 21.0168 4.48243 21.0843 4.46106 21.1522C4.44285 21.2099 4.42524 21.2678 4.40794 21.3258C4.38759 21.3943 4.36795 21.463 4.34892 21.532C4.33285 21.5902 4.31707 21.6485 4.30191 21.7071C4.2839 21.7768 4.2668 21.8468 4.25011 21.917C4.23617 21.9756 4.22233 22.0341 4.20941 22.093C4.19374 22.1641 4.17919 22.2356 4.16494 22.3073C4.15324 22.3659 4.14133 22.4245 4.13055 22.4834C4.11722 22.5565 4.10521 22.6299 4.0933 22.7035C4.08394 22.7615 4.07407 22.8194 4.06562 22.8776C4.05453 22.9535 4.04517 23.0299 4.0356 23.1062C4.02858 23.1628 4.02085 23.2192 4.01464 23.276C4.00589 23.356 3.99917 23.4365 3.99215 23.517C3.98747 23.5706 3.98188 23.624 3.97801 23.678C3.9715 23.7678 3.96722 23.8581 3.96285 23.9484C3.96071 23.9933 3.95735 24.0379 3.95572 24.0829C3.95084 24.2184 3.94809 24.3545 3.94809 24.491C3.94809 24.6385 3.95308 24.7779 3.95908 24.9319C3.96051 24.9675 3.96549 25.0021 3.97262 25.0359C3.97323 25.0385 3.97353 25.0411 3.97414 25.0438C3.98167 25.0771 3.99226 25.109 4.00498 25.14C4.0062 25.143 4.00732 25.1461 4.00864 25.1491C4.02177 25.1796 4.03744 25.2087 4.05514 25.2364C4.05738 25.2399 4.05952 25.2433 4.06176 25.2467C4.07997 25.2739 4.10022 25.2994 4.1223 25.3232C4.12393 25.3249 4.12505 25.3271 4.12668 25.3288L4.20727 25.4146C4.26813 25.4797 4.32898 25.5446 4.39248 25.608C7.31705 28.5326 11.1586 29.9949 15.0002 29.9949C18.8419 29.9949 22.6834 28.5326 25.608 25.608C25.6715 25.5446 25.7323 25.4796 25.7932 25.4146L25.8738 25.3288C28.5794 22.4825 30.0444 18.7504 29.9987 14.8196C29.9532 10.881 28.3938 7.17793 25.6083 4.39236Z" fill="black"/>
</svg>
