<svg width="57" height="57" viewBox="0 0 57 57" fill="none" xmlns="http://www.w3.org/2000/svg">
<g clip-path="url(#clip0)">
<path d="M5.93699 21.055C5.91999 21.095 5.89899 21.135 5.88599 21.177C5.72899 21.705 5.84999 22.188 6.27499 22.605C6.64599 22.969 7.15399 22.849 7.64099 22.854C7.64099 21.972 7.64099 21.116 7.64099 20.247C6.66999 20.125 6.25299 20.328 5.93699 21.055Z" fill="white" fill-opacity="0.9"/>
<path d="M6.26706 29.3359C6.26806 29.5169 6.27006 29.6799 6.26806 29.8439C6.26006 30.9069 6.26206 31.9729 5.96106 33.0119C5.81206 33.5299 5.56506 34.0279 5.36206 34.5329C6.11706 34.5329 6.92106 34.5329 7.73206 34.5329C7.73206 32.7799 7.73206 31.0539 7.73206 29.3359C7.23406 29.3359 6.75806 29.3359 6.26706 29.3359Z" fill="white" fill-opacity="0.9"/>
<path d="M13.726 29.546C13.583 29.304 13.372 29.117 13.016 29.101C12.652 29.083 12.435 29.271 12.272 29.5C11.889 30.039 11.777 30.638 11.717 31.276C12.527 31.276 13.296 31.276 14.092 31.276C14.095 30.671 14.043 30.088 13.726 29.546Z" fill="white" fill-opacity="0.9"/>
<path d="M25.5469 32.7131C25.3849 31.9321 24.7579 31.6191 23.8189 31.8181C23.7499 31.8331 23.6539 31.9221 23.6539 31.9771C23.6419 32.8071 23.6459 33.6391 23.6459 34.4821C24.5839 34.7051 25.3619 34.3441 25.5409 33.5861C25.6069 33.3051 25.6049 32.9951 25.5469 32.7131Z" fill="white" fill-opacity="0.9"/>
<path d="M55.026 9.93896H1.454C0.65 9.93896 0 10.59 0 11.393V45.087C0 45.89 0.65 46.542 1.454 46.542H55.026C55.83 46.542 56.48 45.891 56.48 45.088V11.393C56.48 10.59 55.83 9.93896 55.026 9.93896ZM23.046 23.482C23.093 22.981 23.239 22.504 23.609 22.092C24.09 21.558 24.972 21.457 25.616 21.88C25.529 21.99 25.449 22.091 25.371 22.188C25.343 22.192 25.326 22.199 25.311 22.195C24.531 21.984 24.062 22.173 23.826 22.812C23.652 23.279 23.615 23.761 23.716 24.24C23.908 25.164 24.639 25.484 25.701 25.13C25.799 25.56 25.743 25.613 25.242 25.73C24.533 25.897 23.842 25.649 23.445 25.121C23.065 24.616 22.994 24.057 23.046 23.482ZM5.781 20.119C6.108 19.83 6.506 19.68 6.986 19.682C7.326 19.683 7.665 19.682 8.006 19.682C8.376 19.683 8.377 19.682 8.377 19.979C8.377 21.766 8.377 23.553 8.377 25.339C8.377 25.447 8.377 25.553 8.377 25.679C8.137 25.679 7.916 25.679 7.661 25.679C7.661 24.946 7.661 24.212 7.661 23.484C7.239 23.403 7.217 23.411 7.038 23.687C6.65 24.289 6.253 24.887 5.879 25.494C5.781 25.651 5.672 25.719 5.46 25.7C5.3 25.686 5.136 25.697 4.923 25.697C5.446 24.909 5.945 24.157 6.447 23.403C4.953 23 4.658 21.112 5.781 20.119ZM9.747 36.799C9.399 36.799 9.063 36.799 8.697 36.799C8.697 36.308 8.697 35.825 8.697 35.326C7.382 35.326 6.095 35.326 4.782 35.326C4.782 35.809 4.782 36.292 4.782 36.793C4.41 36.793 4.066 36.793 3.701 36.793C3.701 36.054 3.701 35.314 3.701 34.57C3.727 34.563 3.753 34.545 3.774 34.549C4.174 34.615 4.331 34.431 4.462 34.153C4.858 33.306 5.056 32.427 5.129 31.531C5.211 30.522 5.235 29.509 5.285 28.48C6.459 28.48 7.663 28.48 8.906 28.48C8.906 30.506 8.906 32.514 8.906 34.542C9.191 34.542 9.458 34.542 9.747 34.542C9.747 35.304 9.747 36.046 9.747 36.799ZM10.149 25.692C9.923 25.692 9.728 25.692 9.512 25.692C9.512 24.395 9.512 23.101 9.512 21.784C9.721 21.784 9.911 21.784 10.13 21.784C10.13 22.31 10.13 22.831 10.13 23.368C10.535 23.368 10.91 23.368 11.312 23.368C11.312 22.842 11.312 22.321 11.312 21.789C11.536 21.789 11.731 21.789 11.945 21.789C11.945 23.09 11.945 24.385 11.945 25.694C11.736 25.694 11.541 25.694 11.316 25.694C11.316 25.109 11.316 24.532 11.316 23.942C10.919 23.942 10.549 23.942 10.149 23.942C10.149 24.523 10.149 25.099 10.149 25.692ZM11.915 35.271C11.371 35.004 11.044 34.588 10.851 34.11C10.209 32.528 10.281 30.96 11.119 29.437C11.405 28.918 11.83 28.48 12.527 28.291C13.198 28.109 13.736 28.24 14.183 28.69C14.688 29.2 14.932 29.808 15.055 30.441C15.152 30.947 15.157 31.468 15.205 32.003C14.034 32.003 12.909 32.003 11.749 32.003C11.759 32.647 11.75 33.255 11.983 33.845C12.285 34.613 12.977 34.905 14.036 34.689C14.363 34.622 14.671 34.5 15.014 34.396C15.08 34.554 15.154 34.738 15.227 34.917C14.303 35.565 12.828 35.719 11.915 35.271ZM15.994 26.422C15.824 26.422 15.647 26.422 15.437 26.422C15.437 26.166 15.437 25.904 15.437 25.627C14.688 25.627 13.972 25.627 13.224 25.627C13.224 25.889 13.224 26.151 13.224 26.426C13.014 26.426 12.835 26.426 12.635 26.426C12.635 26.024 12.635 25.62 12.635 25.196C12.952 25.238 13.013 25.037 13.095 24.849C13.427 24.087 13.456 23.29 13.49 22.494C13.5 22.265 13.491 22.037 13.491 21.783C14.188 21.783 14.847 21.783 15.534 21.783C15.534 22.914 15.534 24.036 15.534 25.173C15.698 25.179 15.834 25.185 15.994 25.191C15.994 25.594 15.994 26 15.994 26.422ZM16.858 22.383C16.966 22.193 17.12 22.006 17.303 21.86C17.79 21.469 18.403 21.545 18.757 22.021C19.16 22.563 19.238 23.159 19.196 23.795C18.551 23.795 17.919 23.795 17.261 23.795C17.247 24.22 17.236 24.626 17.465 25.004C17.66 25.327 18.026 25.441 18.539 25.337C18.723 25.3 18.899 25.236 19.082 25.183C19.29 25.405 19.282 25.5 18.981 25.605C18.711 25.699 18.424 25.78 18.137 25.81C17.543 25.873 17.031 25.619 16.807 25.122C16.654 24.784 16.555 24.419 16.51 24.06C16.438 23.482 16.553 22.914 16.858 22.383ZM20.851 35.38C20.478 35.38 20.118 35.38 19.729 35.38C19.729 34.345 19.729 33.315 19.729 32.255C19.199 32.255 18.697 32.255 18.195 32.255C17.665 32.255 17.665 32.253 17.665 32.697C17.664 33.501 17.665 34.305 17.665 35.109C17.665 35.194 17.665 35.28 17.665 35.38C17.281 35.38 16.922 35.38 16.547 35.38C16.547 33.079 16.547 30.785 16.547 28.478C16.911 28.478 17.263 28.478 17.651 28.478C17.651 29.421 17.651 30.349 17.651 31.3C18.367 31.3 19.027 31.3 19.721 31.3C19.721 30.358 19.721 29.421 19.721 28.474C20.073 28.474 20.394 28.468 20.713 28.481C20.765 28.483 20.818 28.56 20.86 28.609C20.877 28.629 20.863 28.665 20.863 28.694C20.863 30.855 20.863 33.015 20.864 35.177C20.864 35.239 20.856 35.304 20.851 35.38ZM22.16 25.601C22.092 25.593 22.02 25.508 21.978 25.444C21.656 24.968 21.341 24.489 21.022 24.01C20.977 23.942 20.926 23.877 20.807 23.804C20.767 23.956 20.697 24.108 20.691 24.26C20.675 24.703 20.685 25.146 20.685 25.599C20.464 25.599 20.275 25.599 20.065 25.599C20.065 24.336 20.065 23.07 20.065 21.784C20.271 21.784 20.459 21.784 20.676 21.784C20.676 22.329 20.676 22.863 20.676 23.464C20.772 23.371 20.822 23.33 20.862 23.283C21.214 22.864 21.579 22.452 21.908 22.02C22.058 21.824 22.225 21.735 22.498 21.772C22.566 21.781 22.636 21.773 22.757 21.773C22.693 21.857 22.653 21.914 22.607 21.97C22.232 22.42 21.863 22.873 21.477 23.316C21.373 23.435 21.379 23.522 21.46 23.642C21.888 24.283 22.306 24.926 22.754 25.609C22.529 25.609 22.342 25.624 22.16 25.601ZM26.916 34.028C26.552 34.86 25.775 35.266 24.756 35.34C24.076 35.391 23.387 35.35 22.674 35.35C22.674 33.012 22.674 30.752 22.674 28.478C22.99 28.478 23.298 28.478 23.638 28.478C23.638 29.302 23.638 30.132 23.638 30.951C24.117 30.951 24.569 30.923 25.013 30.957C26.14 31.048 26.846 31.613 27.033 32.542C27.133 33.047 27.129 33.549 26.916 34.028ZM32.201 29.167C31.173 29.167 30.142 29.167 29.089 29.167C29.089 31.252 29.089 33.309 29.089 35.379C28.74 35.379 28.413 35.379 28.066 35.379C28.066 33.082 28.066 30.784 28.066 28.471C29.457 28.471 30.821 28.471 32.203 28.471C32.203 28.702 32.203 28.921 32.201 29.167ZM35.959 35.38C35.959 33.871 35.959 32.362 35.959 30.843C35.255 32.368 34.557 33.878 33.862 35.386C33.482 35.386 33.135 35.386 32.764 35.386C32.764 33.083 32.764 30.786 32.764 28.474C33.135 28.474 33.495 28.474 33.883 28.474C33.883 29.902 33.883 31.318 33.883 32.733C33.901 32.736 33.917 32.739 33.936 32.742C34.131 32.325 34.33 31.91 34.523 31.493C34.963 30.541 35.406 29.592 35.842 28.639C35.903 28.502 35.984 28.451 36.164 28.458C36.51 28.473 36.858 28.463 37.219 28.463C37.219 30.78 37.219 33.074 37.22 35.38C36.804 35.38 36.397 35.38 35.959 35.38ZM52.48 35.247C52.24 35.444 51.945 35.511 51.625 35.511C50.15 35.513 48.678 35.511 47.205 35.511C45.723 35.511 44.241 35.513 42.76 35.511C42.018 35.509 41.482 35.173 41.275 34.587C41.248 34.507 41.239 34.418 41.239 34.333C41.237 32.609 41.242 30.886 41.235 29.162C41.232 28.554 41.577 28.128 42.196 27.832C44.298 26.831 46.4 25.83 48.501 24.827C48.845 24.663 49.195 24.55 49.591 24.692C49.935 24.817 50.083 25.058 50.085 25.347C50.091 27.172 50.109 28.997 50.075 30.82C50.064 31.383 49.703 31.831 49.034 32.055C47.55 32.553 46.063 33.041 44.578 33.534C44.207 33.657 43.835 33.777 43.466 33.907C43.349 33.949 43.231 34.008 43.14 34.081C43.071 34.14 42.983 34.261 43.011 34.31C43.056 34.382 43.193 34.459 43.292 34.459C43.522 34.46 43.76 34.435 43.984 34.386C45.985 33.952 47.983 33.507 49.983 33.066C50.626 32.923 51.163 32.36 51.165 31.81C51.171 30.761 51.175 29.712 51.161 28.664C51.159 28.449 51.23 28.36 51.499 28.388C51.638 28.403 51.777 28.388 51.917 28.39C52.376 28.396 52.69 28.621 52.757 28.996C52.776 29.1 52.778 29.212 52.778 29.318C52.78 30.999 52.78 32.678 52.779 34.36C52.779 34.677 52.793 34.995 52.48 35.247Z" fill="white" fill-opacity="0.9"/>
<path d="M47.5791 27.765C47.0831 27.828 46.7591 28.071 46.6091 28.457C46.4461 28.874 46.7081 29.205 47.1781 29.207C47.7401 29.208 48.3111 28.679 48.2401 28.222C48.1931 27.927 47.9071 27.724 47.5791 27.765Z" fill="white" fill-opacity="0.9"/>
<path d="M14.0719 22.2629C14.0289 23.2539 14.1099 24.2479 13.5129 25.1709C13.9849 25.1709 14.4229 25.1709 14.8889 25.1709C14.8889 24.1909 14.8889 23.2319 14.8889 22.2629C14.6089 22.2629 14.3449 22.2629 14.0719 22.2629Z" fill="white" fill-opacity="0.9"/>
<path d="M18.352 22.338C18.159 22.055 17.798 22.046 17.581 22.317C17.331 22.63 17.258 22.984 17.238 23.366C17.687 23.366 18.117 23.366 18.586 23.366C18.594 23 18.568 22.653 18.352 22.338Z" fill="white" fill-opacity="0.9"/>
</g>
<defs>
<clipPath id="clip0">
<rect width="56.48" height="56.48" fill="white"/>
</clipPath>
</defs>
</svg>
