<svg width="30" height="30" viewBox="0 0 30 30" fill="none" xmlns="http://www.w3.org/2000/svg">
<g clip-path="url(#clip0)">
<path d="M28.0078 6.23863H26.8348L26.8359 4.14162C26.8366 2.73376 25.692 1.58775 24.2839 1.58707L15.3813 1.58203C15.3809 1.58203 15.3806 1.58203 15.3802 1.58203C14.8734 1.58203 14.3969 1.77933 14.0385 2.13776L0.747757 15.4285C0.265503 15.9107 0 16.5518 0 17.2339C0 17.916 0.265503 18.5571 0.747757 19.0393L9.37294 27.6645C9.87076 28.1623 10.5247 28.4111 11.1784 28.4111C11.8323 28.4111 12.4862 28.1623 12.984 27.6645L21.3519 19.2966C21.5808 19.0677 21.5808 18.6967 21.3519 18.468C21.123 18.2391 20.752 18.2391 20.5231 18.468L12.1552 26.8359C11.6167 27.3745 10.7403 27.3745 10.2017 26.8359L1.57654 18.2108C1.31561 17.9498 1.17188 17.6028 1.17188 17.2339C1.17188 16.8649 1.31561 16.5179 1.57654 16.257L14.867 2.96654C15.0041 2.82944 15.1863 2.75391 15.3802 2.75391H15.3806L24.2832 2.75894C25.0449 2.75917 25.6645 3.37944 25.6641 4.14116L25.6613 9.05113H23.0221C22.7948 9.05113 22.589 8.95821 22.4403 8.80852C22.6854 8.70346 22.9152 8.55171 23.115 8.3519C23.9571 7.50961 23.9571 6.13953 23.115 5.29747C22.2727 4.45518 20.9026 4.45518 20.0603 5.29747C19.2183 6.13953 19.2183 7.50961 20.0603 8.3519C20.3725 8.66409 20.7575 8.86024 21.161 8.94104C21.4478 9.68971 22.1736 10.223 23.0221 10.223H25.6606L25.659 13.0318C25.659 13.2257 25.5835 13.4077 25.4464 13.5445L23.8378 15.1534C23.6089 15.3822 23.6089 15.7533 23.8378 15.9821C24.0665 16.2108 24.4375 16.2108 24.6664 15.9821L26.2752 14.3733C26.6331 14.0151 26.8307 13.539 26.8309 13.0325L26.8325 10.223H28.0078C29.1062 10.223 30 9.32945 30 8.23082C30 7.13242 29.1062 6.23863 28.0078 6.23863ZM20.8891 6.12602C21.0818 5.9333 21.3348 5.83717 21.5879 5.83717C21.8408 5.83717 22.0937 5.93353 22.2865 6.12602C22.3473 6.18713 22.3977 6.25465 22.4393 6.32584C21.7962 6.5229 21.2908 7.03766 21.1061 7.68631C21.0285 7.64305 20.955 7.58926 20.8891 7.52335C20.5039 7.13791 20.5039 6.51123 20.8891 6.12602ZM28.0078 9.05113H26.8332L26.8341 7.41051H28.0078C28.4601 7.41051 28.8281 7.77855 28.8281 8.23082C28.8281 8.68309 28.4601 9.05113 28.0078 9.05113Z" fill="#FF8D47"/>
<path d="M9.45787 16.3655C9.52997 16.6248 9.76549 16.7944 10.0218 16.7944C10.074 16.7944 10.1269 16.7876 10.1793 16.7729L16.1943 15.0987C16.506 15.0119 16.6885 14.6887 16.6017 14.377C16.515 14.0655 16.192 13.8831 15.8801 13.9698L9.86505 15.6438C9.55355 15.7308 9.37113 16.0538 9.45787 16.3655Z" fill="#FF8D47"/>
<path d="M12.1055 17.1387C11.7792 17.4651 11.5995 17.8988 11.5995 18.3605C11.5995 18.8219 11.7792 19.2556 12.1055 19.582C12.4425 19.9187 12.8847 20.0871 13.3271 20.0871C13.7695 20.0871 14.2119 19.9187 14.5489 19.582C15.2225 18.9084 15.2225 17.8123 14.5489 17.1387C13.8753 16.4651 12.7791 16.4651 12.1055 17.1387ZM13.7201 18.7532C13.5033 18.97 13.1508 18.97 12.9341 18.7532C12.829 18.6484 12.7714 18.5088 12.7714 18.3602C12.7714 18.2119 12.8293 18.0723 12.9341 17.9672C13.0426 17.859 13.185 17.8047 13.3271 17.8047C13.4695 17.8047 13.6118 17.859 13.7201 17.9672C13.9368 18.184 13.9368 18.5367 13.7201 18.7532Z" fill="#FF8D47"/>
<path d="M14.8391 13.6501C15.5127 12.9762 15.5127 11.8803 14.8391 11.2067C14.5128 10.8804 14.0788 10.7007 13.6174 10.7007C13.1559 10.7007 12.722 10.8804 12.3958 11.2067C11.7222 11.8803 11.7222 12.9762 12.3958 13.6501C12.7327 13.9867 13.1749 14.1552 13.6174 14.1552C14.0598 14.1552 14.5022 13.9867 14.8391 13.6501ZM13.2244 12.0353C13.3294 11.9302 13.4691 11.8726 13.6174 11.8726C13.7659 11.8726 13.9055 11.9302 14.0104 12.0353C14.2271 12.252 14.2271 12.6045 14.0104 12.8213C13.7938 13.038 13.4411 13.038 13.2244 12.8213C13.0079 12.6045 13.0079 12.252 13.2244 12.0353Z" fill="#FF8D47"/>
<path d="M5.8278 15.1547C5.59892 14.9258 5.22791 14.9258 4.99902 15.1547L3.33414 16.8196C3.22427 16.9295 3.16248 17.0785 3.16248 17.2339C3.16248 17.3893 3.22427 17.5383 3.33414 17.6481L10.7643 25.0783C10.8785 25.1926 11.0287 25.2498 11.1786 25.2498C11.3285 25.2498 11.4784 25.1926 11.5929 25.0783L22.7019 13.9691C22.9308 13.7402 22.9308 13.3692 22.7019 13.1403L15.2719 5.71036C15.1621 5.60049 15.0131 5.5387 14.8577 5.5387C14.7022 5.5387 14.5532 5.60049 14.4434 5.71036L8.31369 11.84C8.08481 12.0689 8.08481 12.4399 8.31369 12.6688C8.54234 12.8975 8.91336 12.8975 9.14224 12.6688L14.8577 6.95341L21.4591 13.5548L11.1786 23.8353L4.57719 17.2339L5.8278 15.9833C6.05646 15.7544 6.05669 15.3836 5.8278 15.1547Z" fill="#FF8D47"/>
<path d="M22.595 16.639C22.4407 16.639 22.2896 16.7018 22.1807 16.8107C22.0717 16.9196 22.009 17.0709 22.009 17.225C22.009 17.379 22.0717 17.5303 22.1807 17.6393C22.2896 17.7482 22.4407 17.8109 22.595 17.8109C22.749 17.8109 22.9001 17.7482 23.0092 17.6393C23.1182 17.5303 23.1809 17.379 23.1809 17.225C23.1809 17.0709 23.1182 16.9196 23.0092 16.8107C22.9001 16.7018 22.749 16.639 22.595 16.639Z" fill="#FF8D47"/>
<path d="M7.4846 14.3257C7.59424 14.2168 7.65649 14.0662 7.65649 13.9114C7.65649 13.7574 7.59424 13.6068 7.4846 13.4972C7.37566 13.3882 7.22505 13.3255 7.07056 13.3255C6.91629 13.3255 6.76523 13.3882 6.65628 13.4972C6.5471 13.6061 6.48462 13.7574 6.48462 13.9114C6.48462 14.0662 6.5471 14.2168 6.65628 14.3257C6.76569 14.4353 6.91629 14.4974 7.07056 14.4974C7.22505 14.4974 7.37566 14.4353 7.4846 14.3257Z" fill="#FF8D47"/>
</g>
<defs>
<clipPath id="clip0">
<rect width="30" height="30" fill="white"/>
</clipPath>
</defs>
</svg>
