<svg width="100" height="100" viewBox="0 0 100 100" fill="none" xmlns="http://www.w3.org/2000/svg">
<path d="M98.5434 80.0431L59.7556 43.0716C65.4985 30.674 63.7101 18.1219 54.8576 9.26932C48.6159 3.02769 39.9644 -0.366681 31.1528 0.0315623C22.2053 0.405613 14.0767 4.40479 8.2631 11.2847C-2.29407 23.7866 -1.41942 42.6138 10.2562 54.1461C18.4053 62.1966 29.8911 64.8689 41.1777 61.3982L45.6347 65.9427C45.9846 66.2981 46.4628 66.501 46.9634 66.501H54.4575V72.0838C54.4575 73.1129 55.2912 73.9448 56.3184 73.9448H61.9013V79.5276C61.9013 80.5567 62.735 81.3886 63.7622 81.3886H71.206V88.8324C71.206 89.8615 72.0397 90.6933 73.067 90.6933H76.7889V93.9984C76.7889 95.7942 76.9433 96.7954 78.3577 98.2097C79.3923 99.2481 80.7676 99.879 82.3717 99.9981H97.2593C98.2866 99.9981 99.1203 99.1662 99.1203 98.1371V81.3886C99.1203 80.8805 98.9118 80.3948 98.5434 80.0431ZM95.3984 96.278L82.515 96.2836C81.94 96.2408 81.3984 95.9914 80.9909 95.582C80.5108 95.1019 80.5108 95.1019 80.5108 94.0002V88.8342C80.5108 87.8051 79.6771 86.9733 78.6498 86.9733H74.9279V79.5295C74.9279 78.5004 74.0942 77.6685 73.067 77.6685H65.6232V72.0857C65.6232 71.0566 64.7895 70.2247 63.7622 70.2247H58.1794V64.6419C58.1794 63.6128 57.3457 62.7809 56.3184 62.7809H47.745L43.0294 57.9704C42.5288 57.4586 41.7751 57.28 41.0958 57.5144C30.8141 61.0502 20.2644 58.8022 12.8727 51.5017C2.57046 41.3205 1.79444 24.7133 11.1066 13.6872C16.241 7.60935 23.415 4.08099 31.3072 3.74974C39.1028 3.43152 46.7178 6.39415 52.2243 11.9007C60.299 19.9772 61.6128 31.182 55.8271 42.6455C55.4568 43.3768 55.6113 44.2645 56.2049 44.8302L95.3965 82.1888V96.278H95.3984Z" fill="#2B388F"/>
<path d="M16.6964 15.8489C14.588 17.9592 13.4268 20.7637 13.4268 23.7449C13.4268 26.7262 14.588 29.5306 16.6964 31.6391C18.8049 33.7494 21.6094 34.9106 24.5925 34.9106C27.5756 34.9106 30.3781 33.7494 32.4885 31.6391C34.5969 29.5306 35.7582 26.7262 35.7582 23.7449C35.7582 20.7637 34.5969 17.9592 32.4885 15.8489C28.1338 11.4943 21.0492 11.4943 16.6964 15.8489ZM29.8552 29.0077C27.0415 31.8214 22.1397 31.8214 19.3278 29.0077C17.9228 27.6008 17.1487 25.7324 17.1487 23.7449C17.1487 21.7574 17.9228 19.8872 19.3278 18.4803C20.7794 17.0306 22.685 16.3048 24.5925 16.3048C26.4999 16.3048 28.4055 17.0306 29.8571 18.4803C31.2621 19.8872 32.0363 21.7574 32.0363 23.7449C32.0363 25.7324 31.2621 27.6008 29.8552 29.0077Z" fill="#2B388F"/>
</svg>
