<svg width="100" height="100" viewBox="0 0 100 100" fill="none" xmlns="http://www.w3.org/2000/svg">
<g clip-path="url(#clip0)">
<path d="M41.9295 78.677C37.0801 78.677 33.1348 82.6223 33.1348 87.4717C33.1348 92.3212 37.0801 96.2665 41.9295 96.2665C46.7789 96.2665 50.7243 92.3212 50.7243 87.4717C50.7241 82.6223 46.7787 78.677 41.9295 78.677ZM41.9295 91.3555C39.7877 91.3555 38.0453 89.6129 38.0453 87.4713C38.0453 85.3295 39.7879 83.5871 41.9295 83.5871C44.0711 83.5871 45.8137 85.3297 45.8137 87.4713C45.8137 89.6133 44.0711 91.3555 41.9295 91.3555Z" fill="#2B388F"/>
<path d="M72.7791 78.677C67.9297 78.677 63.9844 82.6223 63.9844 87.4717C63.9844 92.3212 67.9297 96.2665 72.7791 96.2665C77.6285 96.2665 81.5739 92.3212 81.5739 87.4717C81.5737 82.6223 77.6283 78.677 72.7791 78.677ZM72.7791 91.3555C70.6373 91.3555 68.8949 89.6129 68.8949 87.4713C68.8949 85.3295 70.6375 83.5871 72.7791 83.5871C74.9209 83.5871 76.6633 85.3297 76.6633 87.4713C76.6633 89.6133 74.9207 91.3555 72.7791 91.3555Z" fill="#2B388F"/>
<path d="M74.9454 32.3732H39.76C38.4039 32.3732 37.3047 33.4724 37.3047 34.8285C37.3047 36.1845 38.4041 37.2838 39.76 37.2838H74.9454C76.3014 37.2838 77.4007 36.1845 77.4007 34.8285C77.4007 33.4722 76.3014 32.3732 74.9454 32.3732Z" fill="#2B388F"/>
<path d="M73.0292 45.1244H41.674C40.318 45.1244 39.2188 46.2237 39.2188 47.5797C39.2188 48.9358 40.318 50.035 41.674 50.035H73.029C74.385 50.035 75.4842 48.9358 75.4842 47.5797C75.4842 46.2239 74.385 45.1244 73.0292 45.1244Z" fill="#2B388F"/>
<path d="M98.8949 21.4341C97.9586 20.2849 96.5711 19.6259 95.0885 19.6259H18.6091L17.0646 12.128C16.7421 10.564 15.6753 9.25067 14.2103 8.61454L3.43349 3.9368C2.18935 3.39637 0.743448 3.96726 0.203799 5.21102C-0.336436 6.45516 0.234463 7.90126 1.47802 8.44091L12.255 13.1188L24.1351 70.7871C24.603 73.0582 26.6257 74.7067 28.9446 74.7067H87.7662C89.1222 74.7067 90.2215 73.6074 90.2215 72.2514C90.2215 70.8953 89.1222 69.7961 87.7662 69.7961H28.9448L27.4997 62.7812H88.2209C90.5396 62.7812 92.5625 61.1328 93.0303 58.8617L99.898 25.5267C100.197 24.0751 99.8314 22.5831 98.8949 21.4341ZM88.2209 57.8711H26.4882L19.6208 24.5363L95.0883 24.5364L88.2209 57.8711Z" fill="#2B388F"/>
</g>
<defs>
<clipPath id="clip0">
<rect width="100" height="100" fill="white"/>
</clipPath>
</defs>
</svg>
