<svg width="30" height="30" viewBox="0 0 30 30" fill="none" xmlns="http://www.w3.org/2000/svg">
<g clip-path="url(#clip0)">
<path d="M2.58664 30H3.98633C4.24555 30 4.45508 29.7905 4.45508 29.5312V28.5839H25.5451V29.5312C25.5451 29.7905 25.7546 30 26.0138 30H27.4201C27.6793 30 27.8888 29.7905 27.8888 29.5312V1.17188C27.8888 0.525937 27.3634 0 26.717 0C26.0705 0 25.5451 0.525937 25.5451 1.17188V8.43937H24.1398V1.87875C24.1398 1.62 23.9302 1.41 23.671 1.41H16.1729C15.9137 1.41 15.7041 1.62 15.7041 1.87875V8.43891H14.297V1.87875C14.297 1.62 14.0874 1.41 13.8282 1.41H6.33008C6.07086 1.41 5.86133 1.62 5.86133 1.87875V8.43891H4.45508V1.17188C4.45508 0.525937 3.92961 0 3.2832 0C2.6368 0 2.11133 0.525937 2.11133 1.17188L2.11789 29.5312C2.11789 29.7905 2.32742 30 2.58664 30ZM26.4826 1.17188C26.4826 1.0425 26.588 0.9375 26.717 0.9375C26.8459 0.9375 26.9513 1.0425 26.9513 1.17188V29.0625H26.4826V1.17188ZM19.4523 2.3475H20.3907V2.82H19.4523V2.3475ZM16.6416 2.3475H18.5148V3.28875C18.5148 3.5475 18.7243 3.7575 18.9835 3.7575H20.8595C21.1187 3.7575 21.3282 3.5475 21.3282 3.28875V2.3475H23.2023V8.43891H16.6416V2.3475ZM9.60945 2.3475H10.547V2.82H9.60945V2.3475ZM6.79883 2.3475H8.67195V3.28875C8.67195 3.5475 8.88148 3.7575 9.1407 3.7575H11.0157C11.2749 3.7575 11.4845 3.5475 11.4845 3.28875V2.3475H13.3595V8.43891H6.79883V2.3475ZM4.45508 9.37641H6.33008H13.8282H16.1729H23.671H25.5451V9.84516H4.45508V9.37641ZM4.45508 10.7827H25.5451V17.3316H24.1407V12.18C24.1407 11.9212 23.9312 11.7112 23.672 11.7112H6.3282C6.06898 11.7112 5.85945 11.9212 5.85945 12.18V17.332H4.45508V10.7827ZM13.8282 14.055H16.172C16.4312 14.055 16.6407 13.845 16.6407 13.5862V12.6487H23.2032V17.332H6.79695V12.6487H13.3595V13.5862C13.3595 13.845 13.569 14.055 13.8282 14.055ZM14.297 13.1175V12.6487H15.7032V13.1175H14.297ZM4.45508 18.2695H6.3282H23.672H25.5451V18.7392H4.45508V18.2695ZM4.45508 19.6767H25.5451V26.2392H24.1416V20.6189C24.1416 20.3597 23.9321 20.1502 23.6729 20.1502H17.1095C16.8502 20.1502 16.6407 20.3597 16.6407 20.6189V26.2392H15.2373V22.0261C15.2373 21.7669 15.0277 21.5573 14.7685 21.5573H11.4901C11.4882 21.5573 11.4873 21.5564 11.4854 21.5564C11.4835 21.5564 11.4826 21.5573 11.4807 21.5573H9.61414C9.61227 21.5573 9.61133 21.5564 9.60945 21.5564C9.60758 21.5564 9.60664 21.5573 9.60477 21.5573H6.33008C6.07086 21.5573 5.86133 21.7669 5.86133 22.0261V26.2392H4.45508V19.6767ZM19.4532 22.4972H21.3291C21.5884 22.4972 21.7979 22.2877 21.7979 22.0284V21.0872H23.2041V26.2388H17.5782V21.0872H18.9845V22.0284C18.9845 22.2877 19.194 22.4972 19.4532 22.4972ZM19.922 21.5597V21.0872H20.8604V21.5597H19.922ZM9.60945 23.9034H11.4854C11.7446 23.9034 11.9541 23.6939 11.9541 23.4347V22.4944H14.2998V26.2388H6.79883V22.4944H9.1407V23.4347C9.1407 23.6939 9.35023 23.9034 9.60945 23.9034ZM10.0782 22.9659V22.4944H11.0166V22.9659H10.0782ZM4.45508 27.1767H6.33008H14.7685H17.1095H23.6729H25.5451V27.6464H4.45508V27.1767ZM3.2832 0.9375C3.41211 0.9375 3.51758 1.0425 3.51758 1.17188V29.0625H3.05539L3.04883 1.17188C3.04883 1.0425 3.1543 0.9375 3.2832 0.9375Z" fill="black"/>
</g>
<defs>
<clipPath id="clip0">
<rect width="30" height="30" fill="white"/>
</clipPath>
</defs>
</svg>
