<svg width="30" height="30" viewBox="0 0 30 30" fill="none" xmlns="http://www.w3.org/2000/svg">
<g clip-path="url(#clip0)">
<path d="M28.4999 18.0009H23.9999V10.501H28.4999C28.776 10.501 28.9999 10.2771 28.9999 10.001V7.53597L29.9949 0.572005C30.0341 0.298693 29.8443 0.0452569 29.5709 0.00606957C29.5474 0.00269459 29.5236 0.00100709 29.4999 0.00100709H15.4999C15.2238 0.000944593 14.9999 0.224819 14.9999 0.500942C14.9999 0.524692 15.0016 0.548442 15.0049 0.572005L15.9999 7.53597V10.001C15.9999 10.2771 16.2238 10.501 16.4999 10.501H20.9999V18.0009H20.4999C19.6715 18.0009 18.9999 18.6725 18.9999 19.5009C18.9999 20.3294 19.6715 21.0009 20.4999 21.0009H20.9999V22.0009H17.4999L17.9664 15.0009H18.4999C18.776 15.0009 18.9999 14.7771 18.9999 14.5009V12.501C18.9999 12.2248 18.776 12.001 18.4999 12.001H14.9624C14.8044 10.9175 14.1493 9.97002 13.1914 9.43946C13.9842 7.67653 13.1977 5.60473 11.4347 4.81199C9.67177 4.01924 7.59997 4.80574 6.80722 6.56873C6.66966 6.8746 6.57679 7.19866 6.53147 7.53104C3.79048 7.23454 1.32806 9.21615 1.03156 11.9571C1.03 11.9718 1.02843 11.9864 1.027 12.001H0.499998C0.223874 12.001 0 12.2249 0 12.501V14.501C0 14.7771 0.223874 15.001 0.499998 15.001H1.0325L1.99999 29.5339C2.01743 29.7971 2.23624 30.0014 2.49999 30.0009H29.4999C29.776 30.0009 29.9999 29.777 29.9999 29.5009V19.5009C29.9999 18.6725 29.3283 18.0009 28.4999 18.0009ZM16.0764 1.001H17.9999V4.00099H18.9999V1.001H19.9999V2.001H20.9999V1.001H23.9999V2.501H24.9999V1.001H25.9999V4.00099H26.9999V1.001H28.9234L28.0664 7.00098H16.9334L16.0764 1.001ZM16.9999 9.50096V8.00097H27.9999V9.50096H16.9999ZM22.9999 10.501V18.0009H21.9999V10.501H22.9999ZM17.9999 13.0009V14.0009H10.5V13.0009H17.9999ZM6.48516 8.53247C6.6226 8.54953 6.75903 8.57372 6.89397 8.60497C6.89947 8.60497 6.90497 8.60497 6.91047 8.60497C7.49703 8.74297 8.04503 9.01103 8.51396 9.38946L9.14296 8.61197C8.66178 8.22616 8.11359 7.93228 7.52597 7.74497C7.66953 6.37535 8.89621 5.38142 10.2658 5.52498C11.6355 5.66854 12.6294 6.89523 12.4858 8.26484C12.4434 8.66934 12.3027 9.05734 12.076 9.39496C11.9224 9.6244 11.9838 9.93496 12.2133 10.0886C12.2484 10.112 12.2863 10.131 12.326 10.145C13.1533 10.437 13.767 11.1414 13.943 12.001H9.99996C9.72383 12.001 9.49996 12.2248 9.49996 12.501V17.0009C9.49996 17.2771 9.27609 17.5009 8.99996 17.5009C8.72384 17.5009 8.49996 17.2771 8.49996 17.0009V16.0009C8.49996 15.1725 7.8284 14.5009 6.99997 14.5009C6.17154 14.5009 5.49998 15.1725 5.49998 16.0009V19.5009C5.49998 19.777 5.2761 20.0009 4.99998 20.0009C4.72386 20.0009 4.49998 19.777 4.49998 19.5009V12.501C4.49998 12.2248 4.27611 12.001 3.99998 12.001H2.03349C2.30499 9.81384 4.29804 8.26097 6.48516 8.53247ZM0.999996 14.0009V13.0009H3.49999V14.0009H0.999996ZM13.9999 23.5009V29.0009H2.96799L2.03449 15.0009H3.49999V19.5009C3.49999 20.3294 4.17155 21.0009 4.99998 21.0009C5.82841 21.0009 6.49997 20.3294 6.49997 19.5009V16.0009C6.49997 15.7248 6.72385 15.5009 6.99997 15.5009C7.27609 15.5009 7.49997 15.7248 7.49997 16.0009V17.0009C7.49997 17.8294 8.17153 18.5009 8.99996 18.5009C9.8284 18.5009 10.5 17.8294 10.5 17.0009V15.0009H16.9654L16.4999 22.0009H15.4999C14.6715 22.0009 13.9999 22.6725 13.9999 23.5009ZM28.9999 29.0009H27.4999V26.5009H26.4999V29.0009H24.9999V26.5009H23.9999V29.0009H22.4999V26.5009H21.4999V29.0009H19.9999V26.5009H18.9999V29.0009H17.4999V26.5009H16.4999V29.0009H14.9999V25.0009H28.9999V29.0009ZM28.9999 24.0009H14.9999V23.5009C14.9999 23.2248 15.2238 23.0009 15.4999 23.0009H26.4999C27.3283 23.0009 27.9999 22.3293 27.9999 21.5009C27.9999 20.6725 27.3283 20.0009 26.4999 20.0009H20.4999C20.2238 20.0009 19.9999 19.777 19.9999 19.5009C19.9999 19.2248 20.2238 19.0009 20.4999 19.0009H28.4999C28.776 19.0009 28.9999 19.2248 28.9999 19.5009V24.0009ZM21.9999 22.0009V21.0009H22.9999V22.0009H21.9999ZM23.9999 22.0009V21.0009H26.4999C26.776 21.0009 26.9999 21.2248 26.9999 21.5009C26.9999 21.777 26.776 22.0009 26.4999 22.0009H23.9999Z" fill="black"/>
<path d="M1.99999 5.00003V4.00003H0.999996V5.00003H0V6.00002H0.999996V7.00002H1.99999V6.00002H2.99999V5.00003H1.99999Z" fill="black"/>
<path d="M28.4999 14V13H27.4999V14H26.4999V15H27.4999V16H28.4999V15H29.4999V14H28.4999Z" fill="black"/>
<path d="M9.49999 1.00006V6.10352e-05H8.5V1.00006H7.5V2.00005H8.5V3.00005H9.49999V2.00005H10.5V1.00006H9.49999Z" fill="black"/>
<path d="M18.9999 5.00003H17.9999V6.00003H18.9999V5.00003Z" fill="black"/>
</g>
<defs>
<clipPath id="clip0">
<rect width="30" height="30" fill="white"/>
</clipPath>
</defs>
</svg>
