<svg width="30" height="30" viewBox="0 0 30 30" fill="none" xmlns="http://www.w3.org/2000/svg">
<path d="M14.0625 8.90625H12.1875C12.0632 8.90625 11.944 8.95564 11.856 9.04354C11.7681 9.13145 11.7188 9.25068 11.7188 9.375C11.7188 9.49932 11.7681 9.61855 11.856 9.70646C11.944 9.79436 12.0632 9.84375 12.1875 9.84375H14.0625C14.1868 9.84375 14.306 9.79436 14.394 9.70646C14.4819 9.61855 14.5312 9.49932 14.5312 9.375C14.5312 9.25068 14.4819 9.13145 14.394 9.04354C14.306 8.95564 14.1868 8.90625 14.0625 8.90625Z" fill="black"/>
<path d="M16.4062 8.90625H15.9375C15.8132 8.90625 15.694 8.95564 15.606 9.04354C15.5181 9.13145 15.4688 9.25068 15.4688 9.375C15.4688 9.49932 15.5181 9.61855 15.606 9.70646C15.694 9.79436 15.8132 9.84375 15.9375 9.84375H16.4062C16.5306 9.84375 16.6498 9.79436 16.7377 9.70646C16.8256 9.61855 16.875 9.49932 16.875 9.375C16.875 9.25068 16.8256 9.13145 16.7377 9.04354C16.6498 8.95564 16.5306 8.90625 16.4062 8.90625Z" fill="black"/>
<path d="M7.96875 3.28124C7.96875 3.00311 7.88627 2.73123 7.73175 2.49997C7.57723 2.26872 7.3576 2.08847 7.10065 1.98204C6.84369 1.8756 6.56094 1.84775 6.28815 1.90201C6.01537 1.95627 5.7648 2.09021 5.56813 2.28687C5.37146 2.48354 5.23753 2.73411 5.18327 3.0069C5.12901 3.27968 5.15686 3.56243 5.26329 3.81939C5.36973 4.07635 5.54997 4.29598 5.78123 4.4505C6.01249 4.60502 6.28437 4.68749 6.5625 4.68749C6.93546 4.68749 7.29314 4.53934 7.55687 4.27561C7.82059 4.01189 7.96875 3.6542 7.96875 3.28124ZM6.09375 3.28124C6.09375 3.18853 6.12124 3.0979 6.17275 3.02082C6.22425 2.94373 6.29746 2.88365 6.38312 2.84817C6.46877 2.8127 6.56302 2.80341 6.65395 2.8215C6.74488 2.83959 6.8284 2.88423 6.89395 2.94979C6.95951 3.01534 7.00415 3.09887 7.02224 3.18979C7.04033 3.28072 7.03105 3.37497 6.99557 3.46063C6.96009 3.54628 6.90001 3.61949 6.82292 3.67099C6.74584 3.7225 6.65521 3.74999 6.5625 3.74999C6.43818 3.74999 6.31895 3.70061 6.23104 3.6127C6.14314 3.52479 6.09375 3.40556 6.09375 3.28124Z" fill="black"/>
<path d="M9.84375 4.68749C10.1219 4.68749 10.3938 4.60502 10.625 4.4505C10.8563 4.29598 11.0365 4.07635 11.143 3.81939C11.2494 3.56243 11.2772 3.27968 11.223 3.0069C11.1687 2.73411 11.0348 2.48354 10.8381 2.28687C10.6414 2.09021 10.3909 1.95627 10.1181 1.90201C9.84531 1.84775 9.56256 1.8756 9.3056 1.98204C9.04864 2.08847 8.82902 2.26872 8.6745 2.49997C8.51997 2.73123 8.4375 3.00311 8.4375 3.28124C8.4375 3.6542 8.58566 4.01189 8.84938 4.27561C9.1131 4.53934 9.47079 4.68749 9.84375 4.68749ZM9.84375 2.81249C9.93646 2.81249 10.0271 2.83998 10.1042 2.89149C10.1813 2.943 10.2413 3.01621 10.2768 3.10186C10.3123 3.18751 10.3216 3.28176 10.3035 3.37269C10.2854 3.46362 10.2408 3.54714 10.1752 3.6127C10.1096 3.67825 10.0261 3.7229 9.9352 3.74099C9.84427 3.75907 9.75002 3.74979 9.66437 3.71431C9.57871 3.67883 9.5055 3.61875 9.454 3.54167C9.40249 3.46458 9.375 3.37395 9.375 3.28124C9.375 3.15692 9.42438 3.03769 9.51229 2.94979C9.6002 2.86188 9.71943 2.81249 9.84375 2.81249Z" fill="black"/>
<path d="M19.2188 4.6875H23.4375C23.5618 4.6875 23.681 4.63811 23.769 4.55021C23.8569 4.4623 23.9062 4.34307 23.9062 4.21875C23.9062 4.09443 23.8569 3.9752 23.769 3.88729C23.681 3.79939 23.5618 3.75 23.4375 3.75H19.2188C19.0944 3.75 18.9752 3.79939 18.8873 3.88729C18.7994 3.9752 18.75 4.09443 18.75 4.21875C18.75 4.34307 18.7994 4.4623 18.8873 4.55021C18.9752 4.63811 19.0944 4.6875 19.2188 4.6875Z" fill="black"/>
<path d="M17.3438 4.6875H17.8125C17.9368 4.6875 18.056 4.63811 18.144 4.55021C18.2319 4.4623 18.2812 4.34307 18.2812 4.21875C18.2812 4.09443 18.2319 3.9752 18.144 3.88729C18.056 3.79939 17.9368 3.75 17.8125 3.75H17.3438C17.2194 3.75 17.1002 3.79939 17.0123 3.88729C16.9244 3.9752 16.875 4.09443 16.875 4.21875C16.875 4.34307 16.9244 4.4623 17.0123 4.55021C17.1002 4.63811 17.2194 4.6875 17.3438 4.6875Z" fill="black"/>
<path d="M29.0625 7.5H24.8438V6.09375H25.7812C25.9056 6.09375 26.0248 6.04436 26.1127 5.95646C26.2006 5.86855 26.25 5.74932 26.25 5.625V0.9375C26.25 0.81318 26.2006 0.693951 26.1127 0.606044C26.0248 0.518136 25.9056 0.46875 25.7812 0.46875H4.21875C4.09443 0.46875 3.9752 0.518136 3.88729 0.606044C3.79939 0.693951 3.75 0.81318 3.75 0.9375V5.625C3.75 5.74932 3.79939 5.86855 3.88729 5.95646C3.9752 6.04436 4.09443 6.09375 4.21875 6.09375H5.15625V22.9688H4.21875C4.09443 22.9688 3.9752 23.0181 3.88729 23.106C3.79939 23.194 3.75 23.3132 3.75 23.4375V27.6562C3.75 27.7806 3.79939 27.8998 3.88729 27.9877C3.9752 28.0756 4.09443 28.125 4.21875 28.125H6.09375V29.0625C6.09375 29.1868 6.14314 29.306 6.23104 29.394C6.31895 29.4819 6.43818 29.5312 6.5625 29.5312H9.84375C9.96807 29.5312 10.0873 29.4819 10.1752 29.394C10.2631 29.306 10.3125 29.1868 10.3125 29.0625V28.125H19.6875V29.0625C19.6875 29.1868 19.7369 29.306 19.8248 29.394C19.9127 29.4819 20.0319 29.5312 20.1562 29.5312H23.4375C23.5618 29.5312 23.681 29.4819 23.769 29.394C23.8569 29.306 23.9062 29.1868 23.9062 29.0625V28.125H25.7812C25.9056 28.125 26.0248 28.0756 26.1127 27.9877C26.2006 27.8998 26.25 27.7806 26.25 27.6562V23.4375C26.25 23.3132 26.2006 23.194 26.1127 23.106C26.0248 23.0181 25.9056 22.9688 25.7812 22.9688H24.8438V11.25H29.0625C29.1868 11.25 29.306 11.2006 29.394 11.1127C29.4819 11.0248 29.5312 10.9056 29.5312 10.7812V7.96875C29.5312 7.84443 29.4819 7.7252 29.394 7.63729C29.306 7.54939 29.1868 7.5 29.0625 7.5ZM23.9062 7.5H21.0938C20.9694 7.5 20.8502 7.54939 20.7623 7.63729C20.6744 7.7252 20.625 7.84443 20.625 7.96875H19.6875V7.5C19.6875 7.37568 19.6381 7.25645 19.5502 7.16854C19.4623 7.08064 19.3431 7.03125 19.2188 7.03125H18.2812V6.09375H23.9062V7.5ZM13.5938 12.1875H16.4062V12.6562H13.5938V12.1875ZM11.25 11.25V7.96875H18.75V11.25H11.25ZM12.6562 6.09375H17.3438V7.03125H12.6562V6.09375ZM19.6875 8.90625H20.625V9.375H19.6875V8.90625ZM4.6875 1.40625H25.3125V5.15625H4.6875V1.40625ZM9.375 28.5938H7.03125V28.125H9.375V28.5938ZM22.9688 28.5938H20.625V28.125H22.9688V28.5938ZM25.3125 27.1875H4.6875V23.9062H25.3125V27.1875ZM18.75 17.3438H20.1562C20.2806 17.3438 20.3998 17.3931 20.4877 17.481C20.5756 17.569 20.625 17.6882 20.625 17.8125V19.2188C20.625 19.3431 20.5756 19.4623 20.4877 19.5502C20.3998 19.6381 20.2806 19.6875 20.1562 19.6875H18.75V17.3438ZM17.8125 21.0938C17.8125 21.4667 17.6643 21.8244 17.4006 22.0881C17.1369 22.3518 16.7792 22.5 16.4062 22.5H13.5938C13.2208 22.5 12.8631 22.3518 12.5994 22.0881C12.3357 21.8244 12.1875 21.4667 12.1875 21.0938V16.875H17.8125V21.0938ZM23.9062 22.9688H17.798C18.0922 22.7524 18.3316 22.4701 18.497 22.1445C18.6623 21.8188 18.749 21.459 18.75 21.0938V20.625H20.1562C20.5292 20.625 20.8869 20.4768 21.1506 20.2131C21.4143 19.9494 21.5625 19.5917 21.5625 19.2188V17.8125C21.5625 17.4395 21.4143 17.0819 21.1506 16.8181C20.8869 16.5544 20.5292 16.4062 20.1562 16.4062H18.75C18.75 16.2819 18.7006 16.1627 18.6127 16.0748C18.5248 15.9869 18.4056 15.9375 18.2812 15.9375H11.7188C11.5944 15.9375 11.4752 15.9869 11.3873 16.0748C11.2994 16.1627 11.25 16.2819 11.25 16.4062V21.0938C11.251 21.459 11.3377 21.8188 11.503 22.1445C11.6684 22.4701 11.9078 22.7524 12.202 22.9688H6.09375V6.09375H11.7188V7.03125H10.7812C10.6569 7.03125 10.5377 7.08064 10.4498 7.16854C10.3619 7.25645 10.3125 7.37568 10.3125 7.5V11.7188C10.3125 11.8431 10.3619 11.9623 10.4498 12.0502C10.5377 12.1381 10.6569 12.1875 10.7812 12.1875H12.6562V13.125C12.6562 13.2493 12.7056 13.3685 12.7935 13.4565C12.8815 13.5444 13.0007 13.5938 13.125 13.5938H16.875C16.9993 13.5938 17.1185 13.5444 17.2065 13.4565C17.2944 13.3685 17.3438 13.2493 17.3438 13.125V12.1875H19.2188C19.3431 12.1875 19.4623 12.1381 19.5502 12.0502C19.6381 11.9623 19.6875 11.8431 19.6875 11.7188V10.3125H20.625V10.7812C20.625 10.9056 20.6744 11.0248 20.7623 11.1127C20.8502 11.2006 20.9694 11.25 21.0938 11.25H23.9062V22.9688ZM28.5938 10.3125H21.5625V8.4375H28.5938V10.3125Z" fill="black"/>
<path d="M8.90625 25.3125H5.625C5.50068 25.3125 5.38145 25.3619 5.29354 25.4498C5.20564 25.5377 5.15625 25.6569 5.15625 25.7812C5.15625 25.9056 5.20564 26.0248 5.29354 26.1127C5.38145 26.2006 5.50068 26.25 5.625 26.25H8.90625C9.03057 26.25 9.1498 26.2006 9.23771 26.1127C9.32561 26.0248 9.375 25.9056 9.375 25.7812C9.375 25.6569 9.32561 25.5377 9.23771 25.4498C9.1498 25.3619 9.03057 25.3125 8.90625 25.3125Z" fill="black"/>
<path d="M11.25 25.3125H10.3125C10.1882 25.3125 10.069 25.3619 9.98104 25.4498C9.89314 25.5377 9.84375 25.6569 9.84375 25.7812C9.84375 25.9056 9.89314 26.0248 9.98104 26.1127C10.069 26.2006 10.1882 26.25 10.3125 26.25H11.25C11.3743 26.25 11.4935 26.2006 11.5815 26.1127C11.6694 26.0248 11.7188 25.9056 11.7188 25.7812C11.7188 25.6569 11.6694 25.5377 11.5815 25.4498C11.4935 25.3619 11.3743 25.3125 11.25 25.3125Z" fill="black"/>
</svg>
