<svg width="30" height="30" viewBox="0 0 30 30" fill="none" xmlns="http://www.w3.org/2000/svg">
<path d="M28.3594 0H1.64062C1.38141 0 1.17188 0.209531 1.17188 0.46875V17.3438V27.1875C1.17188 27.4467 1.38141 27.6562 1.64062 27.6562H2.57859V29.5312C2.57859 29.7905 2.78813 30 3.04734 30H26.9527C27.2119 30 27.4214 29.7905 27.4214 29.5312V27.6562H28.3594C28.6186 27.6562 28.8281 27.4467 28.8281 27.1875V17.3438V0.46875C28.8281 0.209531 28.6186 0 28.3594 0ZM20.8673 12.6558H22.2872C22.5375 12.6558 22.7414 12.8597 22.7414 13.11C22.7414 13.1123 22.7428 13.1142 22.7428 13.117C22.7428 13.1198 22.7409 13.1227 22.7409 13.1259C22.7409 13.9013 23.3719 14.5322 24.1472 14.5322L25.0856 14.5312C25.3444 14.5312 25.5544 14.7413 25.5544 15C25.5544 15.2587 25.3439 15.4692 25.0852 15.4692H20.8673C20.092 15.4692 19.4611 14.8383 19.4611 14.063C19.4611 13.2872 20.0916 12.6558 20.8673 12.6558ZM20.8538 16.875H20.8486C20.273 16.8675 19.7803 16.5141 19.5698 16.0125C19.9416 16.2605 20.3869 16.4067 20.8669 16.4067H25.0852C25.087 16.4067 25.088 16.4058 25.0898 16.4058C25.2534 16.4053 25.4081 16.372 25.5539 16.3195V16.4072C25.5539 16.6636 25.3472 16.8713 25.0917 16.875H20.8538ZM26.4919 16.4072V15C26.4919 14.2247 25.8609 13.5938 25.0856 13.5938L24.1472 13.5942C23.8884 13.5942 23.6784 13.3842 23.6784 13.1255C23.6784 13.1231 23.677 13.1213 23.677 13.1184C23.677 13.1156 23.6789 13.1128 23.6789 13.1095C23.6789 12.3422 23.0545 11.7178 22.2872 11.7178H20.8673C19.575 11.7178 18.5236 12.7697 18.5236 14.0625V15.4702C18.5236 15.9989 18.7064 16.4817 19.0027 16.8745H16.1255C16.7353 16.2787 17.115 15.4481 17.115 14.5303C17.115 12.7214 15.6427 11.2495 13.8337 11.2495C12.0248 11.2495 10.5525 12.7214 10.5525 14.5303C10.5525 15.4481 10.9327 16.2783 11.542 16.8745H10.0519C10.0673 16.7986 10.0758 16.7203 10.0758 16.6402C10.0758 16.3753 9.98438 16.1334 9.83531 15.937C9.98391 15.7406 10.0758 15.4988 10.0758 15.2339C10.0758 14.9691 9.98438 14.7272 9.83531 14.5308C9.98391 14.3344 10.0758 14.0925 10.0758 13.8277C10.0758 13.1813 9.55031 12.6558 8.90391 12.6558H4.6875C4.04109 12.6558 3.51562 13.1813 3.51562 13.8277C3.51562 14.0925 3.60703 14.3344 3.75609 14.5308C3.60703 14.7277 3.51562 14.9695 3.51562 15.2344C3.51562 15.4992 3.60703 15.7411 3.75609 15.9375C3.60703 16.1339 3.51562 16.3758 3.51562 16.6406C3.51562 16.7208 3.52406 16.7991 3.53953 16.875H2.10938V10.7794H5.37234C5.37891 10.7794 5.38406 10.7812 5.39062 10.7812C5.40328 10.7812 5.41641 10.7794 5.42859 10.7794H13.3383C13.3448 10.7794 13.35 10.7812 13.3566 10.7812C13.3598 10.7812 13.3627 10.7794 13.3659 10.7794H15.2227C15.2259 10.7794 15.2287 10.7812 15.232 10.7812C15.2386 10.7812 15.2438 10.7794 15.2503 10.7794H18.4955C18.502 10.7794 18.5072 10.7812 18.5138 10.7812C18.517 10.7812 18.5198 10.7794 18.5231 10.7794H20.3798C20.3831 10.7794 20.3859 10.7812 20.3892 10.7812C20.3958 10.7812 20.4009 10.7794 20.4075 10.7794H23.6527C23.6592 10.7794 23.6644 10.7812 23.6709 10.7812C23.6742 10.7812 23.677 10.7794 23.6803 10.7794H25.537C25.5403 10.7794 25.5431 10.7812 25.5464 10.7812C25.553 10.7812 25.5581 10.7794 25.5647 10.7794H27.8906V16.875H26.4056C26.4577 16.7283 26.4919 16.5722 26.4919 16.4072ZM11.4905 14.5308C11.4905 13.2384 12.5419 12.1875 13.8342 12.1875C15.1266 12.1875 16.178 13.2384 16.178 14.5308C16.178 15.8236 15.1266 16.875 13.8342 16.875C12.5419 16.875 11.4905 15.8236 11.4905 14.5308ZM4.6875 16.875C4.55859 16.875 4.45312 16.7695 4.45312 16.6406C4.45312 16.5117 4.55859 16.4062 4.6875 16.4062H8.90438C9.03328 16.4062 9.13875 16.5117 9.13875 16.6406C9.13875 16.7695 9.03328 16.875 8.90438 16.875H4.6875ZM4.45312 13.8281C4.45312 13.6992 4.55859 13.5938 4.6875 13.5938H8.90438C9.03328 13.5938 9.13875 13.6992 9.13875 13.8281C9.13875 13.957 9.03328 14.0625 8.90438 14.0625H4.6875C4.55859 14.0625 4.45312 13.957 4.45312 13.8281ZM4.6875 15.4688C4.55859 15.4688 4.45312 15.3633 4.45312 15.2344C4.45312 15.1055 4.55859 15 4.6875 15H8.90438C9.03328 15 9.13875 15.1055 9.13875 15.2344C9.13875 15.3633 9.03328 15.4688 8.90438 15.4688H4.6875ZM23.6611 9.84188C23.407 9.83672 23.2017 9.63047 23.2017 9.375C23.2017 9.11625 23.4117 8.90625 23.6705 8.90625H25.5455C25.8042 8.90625 26.0142 9.11625 26.0142 9.375C26.0142 9.63047 25.8089 9.83672 25.5548 9.84188H23.6611ZM18.5044 9.84188C18.2503 9.83672 18.045 9.63047 18.045 9.375C18.045 9.11625 18.255 8.90625 18.5138 8.90625H20.3888C20.6475 8.90625 20.8575 9.11625 20.8575 9.375C20.8575 9.63047 20.6522 9.83672 20.3981 9.84188H18.5044ZM13.3477 9.84188C13.0936 9.83672 12.8883 9.63047 12.8883 9.375C12.8883 9.11625 13.0983 8.90625 13.357 8.90625H15.232C15.4908 8.90625 15.7008 9.11625 15.7008 9.375C15.7008 9.63047 15.4955 9.83672 15.2414 9.84188H13.3477ZM15.7073 7.03125H17.5823C17.8411 7.03125 18.0511 7.24125 18.0511 7.5C18.0511 7.75875 17.8411 7.96875 17.5823 7.96875H15.7073C15.4486 7.96875 15.2386 7.75875 15.2386 7.5C15.2386 7.24125 15.4486 7.03125 15.7073 7.03125ZM18.5203 5.15625H20.3953C20.6541 5.15625 20.8641 5.36625 20.8641 5.625C20.8641 5.88375 20.6541 6.09375 20.3953 6.09375H18.5203C18.2616 6.09375 18.0516 5.88375 18.0516 5.625C18.0516 5.36625 18.2616 5.15625 18.5203 5.15625ZM23.2083 7.03125C23.467 7.03125 23.677 7.24125 23.677 7.5C23.677 7.75875 23.467 7.96875 23.2083 7.96875H21.3333C21.0745 7.96875 20.8645 7.75875 20.8645 7.5C20.8645 7.24125 21.0745 7.03125 21.3333 7.03125H23.2083ZM18.9019 7.96875C18.9544 7.82156 18.9886 7.66547 18.9886 7.5C18.9886 7.33453 18.9548 7.17844 18.9019 7.03125H20.0133C19.9608 7.17844 19.9266 7.33453 19.9266 7.5C19.9266 7.66547 19.9603 7.82156 20.0133 7.96875H18.9019ZM16.5516 8.90625H17.1938C17.1413 9.05344 17.107 9.20953 17.107 9.375C17.107 9.53953 17.1408 9.69516 17.1928 9.84188H16.5525C16.6041 9.69516 16.6383 9.53906 16.6383 9.375C16.6378 9.20953 16.6041 9.05344 16.5516 8.90625ZM21.7083 8.90625H22.3505C22.298 9.05344 22.2638 9.20953 22.2638 9.375C22.2638 9.53953 22.2975 9.69516 22.35 9.84188H21.7092C21.7608 9.69516 21.795 9.53906 21.795 9.375C21.7945 9.20953 21.7608 9.05344 21.7083 8.90625ZM25.545 7.96875H24.5278C24.5803 7.82156 24.6145 7.66547 24.6145 7.5C24.6145 6.72469 23.9836 6.09375 23.2083 6.09375H21.7148C21.7673 5.94656 21.8016 5.79047 21.8016 5.625C21.8016 4.84969 21.1706 4.21875 20.3953 4.21875H18.5203C17.745 4.21875 17.1141 4.84969 17.1141 5.625C17.1141 5.79047 17.1478 5.94656 17.2008 6.09375H15.7073C14.932 6.09375 14.3011 6.72469 14.3011 7.5C14.3011 7.66547 14.3348 7.82156 14.3878 7.96875H13.357C12.5817 7.96875 11.9508 8.59969 11.9508 9.375C11.9508 9.53953 11.9845 9.69516 12.037 9.84188H7.575C7.83938 9.57094 8.04141 9.25453 8.13844 8.90625H10.0772C10.0772 9.16547 10.2867 9.375 10.5459 9.375C10.8052 9.375 11.0147 9.16547 11.0147 8.90625V7.96875C11.0147 7.70953 10.8052 7.5 10.5459 7.5C10.2867 7.5 10.0772 7.70953 10.0772 7.96875H8.13844C7.83656 6.88312 6.5325 6.09375 5.39062 6.09375C4.09828 6.09375 3.04688 7.14516 3.04688 8.4375C3.04688 8.96625 3.22969 9.44906 3.52594 9.84188H2.10938V0.9375H27.8906V9.84188H26.8655C26.917 9.69516 26.9513 9.53906 26.9513 9.375C26.9513 8.59969 26.3203 7.96875 25.545 7.96875ZM5.37234 9.84188C4.60547 9.83203 3.98438 9.20672 3.98438 8.4375C3.98438 7.66219 4.61531 7.03125 5.39062 7.03125C6.20953 7.03125 7.26609 7.71328 7.26609 8.4375C7.26609 9.15609 6.22547 9.83203 5.40938 9.84188H5.37234ZM26.4839 29.0625H3.51609V27.6562H26.4839V29.0625ZM27.8906 26.7188H2.10938V17.8125H19.2188H20.8491C20.8556 17.8125 20.8608 17.8144 20.8673 17.8144C20.8687 17.8144 20.8702 17.8134 20.872 17.8134H25.0856C25.0889 17.8134 25.0917 17.8125 25.095 17.8125H27.8906V26.7188Z" fill="black"/>
<path d="M12.9029 14.0602H12.8977C12.6389 14.0602 12.4318 14.2697 12.4318 14.5289C12.4318 14.7881 12.6436 14.9977 12.9029 14.9977C13.1616 14.9977 13.3716 14.7881 13.3716 14.5289C13.3716 14.2697 13.1616 14.0602 12.9029 14.0602Z" fill="black"/>
<path d="M14.7797 14.0602H14.775C14.5163 14.0602 14.3091 14.2697 14.3091 14.5289C14.3091 14.7881 14.521 14.9977 14.7802 14.9977C15.0389 14.9977 15.2489 14.7881 15.2489 14.5289C15.2489 14.2697 15.0385 14.0602 14.7797 14.0602Z" fill="black"/>
<path d="M13.8394 14.9967H13.8342C13.5755 14.9967 13.3683 15.2062 13.3683 15.4655C13.3683 15.7247 13.5802 15.9342 13.8394 15.9342C14.0981 15.9342 14.3081 15.7247 14.3081 15.4655C14.3081 15.2062 14.0981 14.9967 13.8394 14.9967Z" fill="black"/>
<path d="M13.8394 13.1236H13.8342C13.5755 13.1236 13.3683 13.3331 13.3683 13.5923C13.3683 13.8516 13.5802 14.0611 13.8394 14.0611C14.0981 14.0611 14.3081 13.8516 14.3081 13.5923C14.3081 13.3331 14.0981 13.1236 13.8394 13.1236Z" fill="black"/>
<path d="M21.3502 14.528C21.609 14.528 21.819 14.3184 21.819 14.0592C21.819 13.8 21.609 13.5905 21.3502 13.5905H21.3451C21.0863 13.5905 20.8792 13.8 20.8792 14.0592C20.8792 14.3184 21.091 14.528 21.3502 14.528Z" fill="black"/>
<path d="M9.14005 2.3447C7.99771 2.3447 6.69365 3.13407 6.39224 4.2197H4.45349C4.45349 3.96048 4.24396 3.75095 3.98474 3.75095C3.72552 3.75095 3.51599 3.96048 3.51599 4.2197V5.1572C3.51599 5.41641 3.72552 5.62595 3.98474 5.62595C4.24396 5.62595 4.45349 5.41641 4.45349 5.1572H6.39224C6.69412 6.24282 7.99818 7.0322 9.14005 7.0322C10.4324 7.0322 11.4838 5.98079 11.4838 4.68845C11.4838 3.3961 10.4324 2.3447 9.14005 2.3447ZM9.14005 6.0947C8.32115 6.0947 7.26458 5.41266 7.26458 4.68845C7.26458 3.96423 8.32115 3.2822 9.14005 3.2822C9.91537 3.2822 10.5463 3.91313 10.5463 4.68845C10.5463 5.46376 9.91537 6.0947 9.14005 6.0947Z" fill="black"/>
</svg>
