<svg width="30" height="30" viewBox="0 0 30 30" fill="none" xmlns="http://www.w3.org/2000/svg">
<path d="M21.244 10.111L20.923 9.0545C20.5153 7.85438 19.2118 7.21207 18.0117 7.61982C17.3366 7.84919 16.8064 8.37938 16.577 9.0545L16.256 10.111C15.9859 11.002 15.9292 11.9441 16.0905 12.861C16.2376 13.633 16.7277 14.2963 17.4225 14.6635L17.063 22.7C17.0149 23.1486 17.1604 23.5964 17.463 23.931C18.1138 24.6429 19.2186 24.6924 19.9304 24.0416C19.9689 24.0064 20.0058 23.9695 20.041 23.931C20.3369 23.6059 20.4821 23.1712 20.441 22.7335L20.0795 14.6625C20.7733 14.2951 21.2626 13.6323 21.4095 12.861C21.5708 11.9441 21.5141 11.002 21.244 10.111ZM20.4245 12.687C20.3162 13.2416 19.921 13.6967 19.387 13.8815C19.1843 13.9577 19.0537 14.1557 19.0635 14.372L19.4435 22.8125C19.461 22.9781 19.4064 23.1431 19.2935 23.2655C18.9924 23.5636 18.5076 23.5636 18.2065 23.2655C18.088 23.1333 18.0342 22.9553 18.0595 22.7795L18.4365 14.372C18.4462 14.1557 18.3157 13.9577 18.113 13.8815C17.579 13.6967 17.1837 13.2416 17.0755 12.687C16.9417 11.9258 16.9889 11.1437 17.213 10.404L17.534 9.347C17.7824 8.67544 18.5281 8.33238 19.1997 8.58075C19.5548 8.71207 19.8347 8.992 19.966 9.347L20.287 10.404C20.5109 11.1438 20.558 11.9258 20.4245 12.687Z" fill="black"/>
<path d="M13.5 7.5C13.2239 7.5 13 7.72387 13 8V12.293L11.6465 13.6465C11.5464 13.7462 11.4931 13.8838 11.5 14.025L11.9375 22.775C11.9479 22.9637 11.8794 23.1483 11.7485 23.2845C11.4748 23.5606 11.0291 23.5626 10.7529 23.2889C10.7514 23.2874 10.7499 23.2859 10.7485 23.2845C10.6175 23.1483 10.5491 22.9637 10.5595 22.775L11 14.025C11.007 13.8839 10.9539 13.7464 10.854 13.6465L9.5 12.293V8C9.5 7.72387 9.27613 7.5 9 7.5C8.72387 7.5 8.5 7.72387 8.5 8V12.5C8.5 12.6326 8.55275 12.7598 8.6465 12.8535L9.9895 14.197L9.563 22.7265C9.51762 23.6582 10.2361 24.4503 11.1678 24.4957C12.0995 24.5411 12.8916 23.8226 12.937 22.8909C12.9397 22.8361 12.9397 22.7813 12.937 22.7266L12.5105 14.1971L13.8535 12.8536C13.9473 12.7598 14 12.6327 14 12.5001V8.00006C14 7.72388 13.7761 7.5 13.5 7.5Z" fill="black"/>
<path d="M10.5 7.5C10.2239 7.5 10 7.72387 10 8V12C10 12.2761 10.2239 12.5 10.5 12.5C10.7761 12.5 11 12.2761 11 12V8C11 7.72387 10.7761 7.5 10.5 7.5Z" fill="black"/>
<path d="M12 7.5C11.7239 7.5 11.5 7.72387 11.5 8V12C11.5 12.2761 11.7239 12.5 12 12.5C12.2761 12.5 12.5 12.2761 12.5 12V8C12.5 7.72387 12.2761 7.5 12 7.5Z" fill="black"/>
<path d="M15 0C6.71575 0 0 6.71575 0 15C0 23.2843 6.71575 30 15 30C23.2843 30 30 23.2843 30 15C29.9906 6.71963 23.2804 0.009375 15 0ZM15 29C7.268 29 1 22.732 1 15C1 7.268 7.268 1 15 1C22.732 1 29 7.268 29 15C28.9912 22.7283 22.7283 28.9912 15 29Z" fill="black"/>
<path d="M16.6231 24.3858C16.5963 24.1109 16.3517 23.9099 16.0768 23.9367C16.0704 23.9373 16.064 23.9381 16.0575 23.9389L16.0595 23.9384C15.3556 24.0202 14.6445 24.0202 13.9405 23.9384C13.6662 23.9063 13.4177 24.1026 13.3855 24.3769C13.3533 24.6513 13.5497 24.8998 13.824 24.9319C14.6047 25.0231 15.3933 25.0231 16.174 24.9319C16.4488 24.9052 16.6499 24.6606 16.6231 24.3858Z" fill="black"/>
<path d="M22.6499 8.55699C22.4725 8.34543 22.1571 8.31774 21.9455 8.49524C21.9448 8.49581 21.9441 8.49643 21.9434 8.49699C21.7323 8.67499 21.7055 8.99037 21.8834 9.20149C24.8981 12.7802 24.6675 18.0721 21.3529 21.375C21.1573 21.5699 21.1567 21.8866 21.3516 22.0823C21.5466 22.2779 21.8633 22.2784 22.0589 22.0835C25.7425 18.4139 25.9993 12.5338 22.6499 8.55699Z" fill="black"/>
<path d="M11.6496 6.60901C11.6493 6.60901 11.649 6.60895 11.6487 6.60895C11.6482 6.60895 11.6477 6.60901 11.6471 6.60901H11.6496Z" fill="black"/>
<path d="M17.3586 5.2795C15.4045 4.81119 13.3551 4.93706 11.4731 5.641C11.2146 5.73819 11.0839 6.02656 11.1811 6.285C11.2543 6.47981 11.4406 6.60875 11.6486 6.60894C11.7084 6.60862 11.7677 6.59769 11.8236 6.5765C13.5184 5.94269 15.3639 5.8295 17.1236 6.2515C17.392 6.31637 17.6622 6.15144 17.7271 5.883C17.7919 5.61456 17.627 5.34438 17.3586 5.2795Z" fill="black"/>
<path d="M8.62447 21.35C6.93891 19.6673 5.99422 17.3818 5.99997 15C5.99503 13.0971 6.59778 11.2424 7.72047 9.706C7.88641 9.48525 7.84197 9.17182 7.62122 9.00588C7.40047 8.83994 7.08703 8.88438 6.9211 9.10513C6.91816 9.10907 6.91528 9.113 6.91247 9.117C4.02166 13.0913 4.44704 18.5769 7.91597 22.058C8.11147 22.2536 8.42859 22.2538 8.62422 22.0583C8.81984 21.8628 8.81997 21.5456 8.62447 21.35Z" fill="black"/>
</svg>
