<svg width="30" height="30" viewBox="0 0 30 30" xmlns="http://www.w3.org/2000/svg">
<path d="M22.9688 9.84375V0.9375C22.9688 0.81318 22.9194 0.693951 22.8315 0.606044C22.7435 0.518136 22.6243 0.46875 22.5 0.46875H7.5C7.37568 0.46875 7.25645 0.518136 7.16854 0.606044C7.08064 0.693951 7.03125 0.81318 7.03125 0.9375V9.84375C7.03204 9.95808 7.075 10.0681 7.15191 10.1527C7.22881 10.2373 7.33424 10.2905 7.44797 10.3022V10.7916C7.33424 10.8032 7.22881 10.8565 7.15191 10.9411C7.075 11.0257 7.03204 11.1357 7.03125 11.25V27.6562C7.03204 27.7706 7.075 27.8806 7.15191 27.9652C7.22881 28.0498 7.33424 28.103 7.44797 28.1147V29.0625C7.44797 29.1868 7.49735 29.306 7.58526 29.394C7.67317 29.4819 7.7924 29.5312 7.91672 29.5312H22.0833C22.2076 29.5312 22.3268 29.4819 22.4147 29.394C22.5026 29.306 22.552 29.1868 22.552 29.0625V28.1147C22.6658 28.103 22.7712 28.0498 22.8481 27.9652C22.925 27.8806 22.968 27.7706 22.9688 27.6562V11.25C22.968 11.1357 22.925 11.0257 22.8481 10.9411C22.7712 10.8565 22.6658 10.8032 22.552 10.7916V10.3022C22.6658 10.2905 22.7712 10.2373 22.8481 10.1527C22.925 10.0681 22.968 9.95808 22.9688 9.84375ZM7.96875 11.7188H22.0312V27.1875H7.96875V11.7188ZM21.6145 10.7812H8.38547V10.3125H21.6145V10.7812ZM7.96875 1.40625H22.0312V9.375H7.96875V1.40625ZM21.6145 28.5938H8.38547V28.125H21.6145V28.5938Z" />
<path d="M9.375 3.75C9.25068 3.75 9.13145 3.79939 9.04354 3.88729C8.95564 3.9752 8.90625 4.09443 8.90625 4.21875V7.03125C8.90625 7.15557 8.95564 7.2748 9.04354 7.36271C9.13145 7.45061 9.25068 7.5 9.375 7.5C9.49932 7.5 9.61855 7.45061 9.70646 7.36271C9.79436 7.2748 9.84375 7.15557 9.84375 7.03125V4.21875C9.84375 4.09443 9.79436 3.9752 9.70646 3.88729C9.61855 3.79939 9.49932 3.75 9.375 3.75Z" />
<path d="M9.375 17.3438C9.25068 17.3438 9.13145 17.3931 9.04354 17.481C8.95564 17.569 8.90625 17.6882 8.90625 17.8125V20.625C8.90625 20.7493 8.95564 20.8685 9.04354 20.9565C9.13145 21.0444 9.25068 21.0938 9.375 21.0938C9.49932 21.0938 9.61855 21.0444 9.70646 20.9565C9.79436 20.8685 9.84375 20.7493 9.84375 20.625V17.8125C9.84375 17.6882 9.79436 17.569 9.70646 17.481C9.61855 17.3931 9.49932 17.3438 9.375 17.3438Z" />
<path d="M19.2188 25.7812H15.9375C15.8132 25.7812 15.694 25.8306 15.606 25.9185C15.5181 26.0065 15.4688 26.1257 15.4688 26.25C15.4688 26.3743 15.5181 26.4935 15.606 26.5815C15.694 26.6694 15.8132 26.7188 15.9375 26.7188H19.2188C19.3431 26.7188 19.4623 26.6694 19.5502 26.5815C19.6381 26.4935 19.6875 26.3743 19.6875 26.25C19.6875 26.1257 19.6381 26.0065 19.5502 25.9185C19.4623 25.8306 19.3431 25.7812 19.2188 25.7812Z"/>
<path d="M21.0938 25.7812H20.625C20.5007 25.7812 20.3815 25.8306 20.2935 25.9185C20.2056 26.0065 20.1562 26.1257 20.1562 26.25C20.1562 26.3743 20.2056 26.4935 20.2935 26.5815C20.3815 26.6694 20.5007 26.7188 20.625 26.7188H21.0938C21.2181 26.7188 21.3373 26.6694 21.4252 26.5815C21.5131 26.4935 21.5625 26.3743 21.5625 26.25C21.5625 26.1257 21.5131 26.0065 21.4252 25.9185C21.3373 25.8306 21.2181 25.7812 21.0938 25.7812Z" />
</svg>
