<svg width="30" height="30" viewBox="0 0 30 30" fill="none" xmlns="http://www.w3.org/2000/svg">
<g clip-path="url(#clip0)">
<path d="M20.4993 6.47401L19.4994 6.4794L19.5048 7.47929L20.5047 7.47389L20.4993 6.47401Z" fill="black"/>
<path d="M29.5002 15.9608H22.401L23.001 6.99495C23.0097 6.85646 22.961 6.72048 22.8665 6.61899C22.7687 6.52263 22.6382 6.46664 22.501 6.46201L21.5011 6.46751L21.5061 7.46739H21.9691L21.8496 9.25567L20.3998 10.0601C18.89 10.8933 17.0775 10.973 15.5004 10.2755V7.49789L18.5025 7.48239L18.4975 6.48251L15.5019 6.49801V4.23679L20.7697 0.887201L20.2328 0.0408058L14.7335 3.54037C14.5892 3.63218 14.5019 3.79134 14.502 3.96232V6.50301L7.50536 6.539C7.22927 6.54057 7.00673 6.76573 7.0083 7.04182C7.00836 7.05207 7.00874 7.06225 7.00942 7.07244L7.56585 15.4164C7.27383 15.9474 7.03917 16.508 6.86594 17.0887C5.98855 15.5191 4.33169 14.5459 2.53347 14.544C2.25738 14.544 2.03353 14.7679 2.03353 15.044C2.03278 16.0141 2.31794 16.9631 2.85343 17.7721C2.6369 17.8787 2.43517 18.0131 2.25351 18.1721L2.10852 18.3001C0.344616 19.8494 -0.39273 22.2621 0.203759 24.5328L0.509221 25.7131C0.892612 27.1955 1.80937 28.4842 3.0839 29.3327C4.18296 30.0704 5.60403 30.1256 6.75695 29.4752L6.72896 29.4252C7.66484 29.7021 8.63066 29.8652 9.6056 29.9111C9.70559 29.9161 9.80558 29.9161 9.90907 29.9181V29.9591H16.5018C23.95 29.9657 29.9935 23.9331 30.0001 16.4848C30.0001 16.4768 30.0001 16.4688 30.0001 16.4608C30.0001 16.1847 29.7762 15.9608 29.5002 15.9608ZM22.21 17.2332V16.9607H27.1889C26.9964 21.0138 24.5327 24.6111 20.8232 26.2556C19.8975 26.6648 18.918 26.9394 17.9145 27.071C18.6646 26.4177 19.3266 25.6697 19.8838 24.8457C21.4044 22.5986 22.2149 19.9465 22.21 17.2332ZM14.502 7.50288V9.92009C12.8622 9.46552 11.1096 9.67062 9.6191 10.4915L8.28827 11.2309L8.04229 7.53588L14.502 7.50288ZM9.07461 14.9325L9.1356 14.8535L8.49718 14.361L8.36169 12.3358L10.1025 11.3654C11.6256 10.5234 13.4567 10.4492 15.0429 11.1654C16.9174 12.0135 19.0823 11.9263 20.8827 10.9305L21.766 10.44L21.5421 13.8016C21.4305 13.7157 21.3086 13.6444 21.1791 13.5891L20.4322 13.2777C20.0334 13.1103 19.5799 13.1342 19.2009 13.3427C18.8123 13.5553 18.5426 13.9343 18.469 14.371C17.9389 17.4423 16.3388 20.2268 13.952 22.2311C13.7762 20.7114 13.0439 19.3107 11.8963 18.2991L11.7513 18.1711C10.7421 17.2726 9.22627 17.2513 8.19221 18.1211L7.56279 18.646C7.72021 17.2939 8.24283 16.0101 9.07461 14.9325ZM6.46699 18.976C4.70189 18.7327 3.31413 17.345 3.07091 15.5799C4.83563 15.8237 6.22308 17.2112 6.46699 18.976ZM3.63827 28.5013C2.56853 27.7888 1.799 26.707 1.47704 25.4627L1.17108 24.2828C0.670639 22.3755 1.291 20.3492 2.77338 19.049L2.91836 18.921C3.0959 18.7696 3.30219 18.6554 3.52479 18.5855C4.45167 19.4993 5.70127 20.0112 7.00286 20.0103C7.03473 20.0071 7.06623 20.0007 7.09685 19.9913C7.38106 19.9732 7.65241 19.8659 7.87225 19.6849L8.82964 18.885C9.4858 18.3335 10.4473 18.3473 11.0874 18.9175L11.2323 19.0455C12.3543 20.0337 12.9963 21.4573 12.9941 22.9525C11.0491 24.3169 8.77208 25.1312 6.40293 25.3097L4.18871 25.4762C3.92736 25.4959 3.72551 25.714 3.72626 25.9761V27.7974C3.72683 27.9754 3.822 28.1398 3.97623 28.2288L4.04572 28.2698C4.45486 28.5074 4.87756 28.7209 5.31157 28.9092C4.7232 28.9745 4.13065 28.8301 3.63827 28.5013ZM9.6526 28.9122L9.6521 28.9127C7.92412 28.8305 6.23864 28.3494 4.7277 27.5069V26.4385L6.47749 26.3066C12.9864 25.8195 18.3325 20.973 19.4539 14.543C19.476 14.4062 19.5599 14.2873 19.6814 14.2206C19.7937 14.1581 19.9285 14.1509 20.0468 14.2011L20.7937 14.513C21.0451 14.6172 21.2089 14.8628 21.2082 15.1349V17.2347C21.2126 19.7485 20.462 22.2057 19.0534 24.2878C16.951 27.3751 13.3813 29.131 9.6526 28.9122ZM16.5018 28.9592H14.9085C15.4607 28.7215 15.9934 28.4409 16.5018 28.1198V28.1663C18.1297 28.1694 19.7401 27.8298 21.2282 27.1695C25.2989 25.3646 27.9957 21.4094 28.1888 16.9607H28.9902C28.7284 23.6666 23.2127 28.966 16.5018 28.9592Z" fill="black"/>
<path d="M24.0007 17.9606H23.0009V18.9605H24.0007V17.9606Z" fill="black"/>
<path d="M22.501 22.96H21.5011V23.9599H22.501V22.96Z" fill="black"/>
<path d="M24.0007 20.9602H23.0009V21.9601H24.0007V20.9602Z" fill="black"/>
</g>
<defs>
<clipPath id="clip0">
<rect width="30" height="30" fill="white"/>
</clipPath>
</defs>
</svg>
