<svg width="30" height="30" viewBox="0 0 30 30" fill="none" xmlns="http://www.w3.org/2000/svg">
<g clip-path="url(#clip0)">
<path d="M29.6454 7.24201C29.3903 6.96357 29.0274 6.8039 28.6499 6.8039H28.2493C27.1987 6.8039 26.3373 7.59304 26.2455 8.63952L25.8121 13.5777C25.7737 14.0154 25.4134 14.3454 24.974 14.3454H21.2225C20.0203 14.3454 19.0424 15.3234 19.0424 16.5255V16.7421C19.0424 17.4684 19.6332 18.0592 20.3594 18.0592H21.1635L20.3717 20.6452C20.3711 20.6472 20.3705 20.6491 20.3699 20.651L19.7646 22.6278C19.6936 22.8598 19.8241 23.1055 20.0561 23.1766C20.099 23.1897 20.1424 23.196 20.185 23.196C20.373 23.196 20.5471 23.0743 20.605 22.8851L21.1155 21.2181H27.143L27.6535 22.8851C27.7114 23.0743 27.8854 23.196 28.0735 23.196C28.1161 23.196 28.1595 23.1897 28.2023 23.1766C28.4344 23.1055 28.5649 22.8598 28.4938 22.6278L27.0573 17.9364C27.3095 17.865 27.5531 17.7634 27.7816 17.6324C27.9922 17.5117 28.065 17.2432 27.9443 17.0327C27.8236 16.8221 27.555 16.7493 27.3445 16.87C26.9903 17.073 26.5863 17.1804 26.1761 17.1804H21.758C21.7565 17.1804 21.7551 17.1804 21.7537 17.1804H20.3595C20.118 17.1804 19.9214 16.9838 19.9214 16.7422V16.5256C19.9214 15.8081 20.5051 15.2244 21.2226 15.2244H24.9741C25.8725 15.2244 26.6092 14.5495 26.6877 13.6546L27.1211 8.71634C27.1728 8.12712 27.6578 7.68275 28.2493 7.68275H28.6499C28.7836 7.68275 28.9071 7.73706 28.9974 7.83568C29.0877 7.93429 29.1311 8.06197 29.1194 8.19521L28.5193 15.0337C28.5045 15.2024 28.4716 15.3692 28.4216 15.5297C28.3495 15.7614 28.4788 16.0078 28.7106 16.0799C28.9426 16.1521 29.1886 16.0227 29.2609 15.7911C29.3295 15.5706 29.3746 15.3417 29.3949 15.1105L29.995 8.27202C30.0278 7.89591 29.9004 7.52044 29.6454 7.24201ZM22.0826 18.0593H26.1756L26.8737 20.3392H21.3844L22.0826 18.0593Z" fill="black"/>
<path d="M8.77745 14.3464H5.02594C4.58654 14.3464 4.22631 14.0164 4.18787 13.5787L3.75452 8.64052C3.6627 7.59404 2.80126 6.8049 1.75073 6.8049H1.35013C0.972548 6.8049 0.609678 6.96457 0.35462 7.24301C0.0995619 7.52144 -0.0278207 7.89691 0.00510896 8.27314L0.605225 15.1117C0.676065 15.9187 1.04403 16.6645 1.64139 17.2117C2.01669 17.5555 2.46229 17.8022 2.94252 17.9381L1.50616 22.6288C1.43509 22.8609 1.56563 23.1066 1.79766 23.1777C1.84055 23.1908 1.88391 23.1971 1.92651 23.1971C2.11454 23.1971 2.28862 23.0754 2.34651 22.8862L2.85698 21.2191H8.88451L9.39497 22.8862C9.45286 23.0754 9.62689 23.1971 9.81497 23.1971C9.85763 23.1971 9.90099 23.1908 9.94382 23.1777C10.1759 23.1066 10.3064 22.8608 10.2353 22.6288L9.63005 20.6521C9.62947 20.6502 9.62888 20.6482 9.62829 20.6463L8.83646 18.0603H9.64054C10.3668 18.0603 10.9575 17.4695 10.9575 16.7432V16.5266C10.9575 15.3244 9.97956 14.3464 8.77745 14.3464ZM3.1261 20.3401L3.82418 18.0602H7.91724L8.61533 20.3401H3.1261ZM10.0786 16.7431C10.0786 16.9848 9.88212 17.1813 9.64054 17.1813H8.24671C8.24496 17.1813 8.24326 17.1813 8.2415 17.1813H3.82395C3.72996 17.1813 3.6375 17.1753 3.54645 17.1647C3.54639 17.1647 3.54627 17.1647 3.54616 17.1647C2.44671 17.0376 1.57987 16.1648 1.48073 15.0347L0.880615 8.19627C0.868896 8.06297 0.912256 7.93529 1.00261 7.83668C1.0929 7.73806 1.2163 7.68375 1.35007 7.68375H1.75067C2.34217 7.68375 2.82721 8.12806 2.87889 8.71734L3.31225 13.6556V13.6555C3.39077 14.5504 4.12746 15.2253 5.02588 15.2253H8.7774C9.49487 15.2253 10.0786 15.809 10.0786 16.5265V16.7431H10.0786Z" fill="black"/>
<path d="M18.3367 21.7465C18.1553 21.0494 17.5257 20.5626 16.8054 20.5626H16.5334V12.5625H21.9447C22.2565 12.5625 22.5482 12.424 22.7452 12.1824C22.9422 11.9407 23.0192 11.627 22.9564 11.3216C22.7674 10.4027 21.9493 9.73569 21.0112 9.73569H11.8748C11.632 9.73569 11.4353 9.93244 11.4353 10.1751C11.4353 10.4178 11.632 10.6146 11.8748 10.6146H21.0112C21.5342 10.6146 21.9902 10.9864 22.0955 11.4987C22.1083 11.561 22.0813 11.6058 22.064 11.627C22.0468 11.6482 22.0083 11.6837 21.9447 11.6837H8.05489C7.99132 11.6837 7.95288 11.6482 7.9356 11.627C7.91837 11.6059 7.8913 11.561 7.90413 11.4987C8.00948 10.9864 8.46546 10.6146 8.98846 10.6146H9.8137C10.0565 10.6146 10.2531 10.4178 10.2531 10.1751C10.2531 9.93244 10.0565 9.73569 9.8137 9.73569H8.98846C8.05026 9.73569 7.23218 10.4027 7.04321 11.3217C6.98046 11.6271 7.05745 11.9408 7.25444 12.1824C7.45144 12.424 7.74317 12.5625 8.05489 12.5625H13.4663V20.5626H13.1943C12.474 20.5626 11.8444 21.0495 11.663 21.7465L11.5598 22.143C11.4938 22.397 11.548 22.6617 11.7084 22.8693C11.869 23.0769 12.1116 23.1961 12.3739 23.1961H17.6257C17.8881 23.1961 18.1307 23.077 18.2912 22.8693C18.4517 22.6617 18.5058 22.397 18.4398 22.143L18.3367 21.7465ZM14.3452 12.5625H15.6545V20.5626H14.3452V12.5625ZM12.4227 22.3171L12.5136 21.9678C12.5942 21.6579 12.8741 21.4415 13.1943 21.4415H16.8053C17.1255 21.4415 17.4054 21.6579 17.4859 21.9678L17.5769 22.3171H12.4227Z" fill="black"/>
</g>
<defs>
<clipPath id="clip0">
<rect width="30" height="30" fill="white"/>
</clipPath>
</defs>
</svg>
