<svg width="30" height="30" viewBox="0 0 30 30" fill="none" xmlns="http://www.w3.org/2000/svg">
<path d="M26.7395 19.5935C26.7105 19.545 26.6799 19.4985 26.6495 19.4575C26.3465 19.034 25.8959 18.754 25.382 18.6695C24.8704 18.585 24.3519 18.7055 23.9299 19.0085L18.3399 23H12.4999C12.2244 23 12 22.776 12 22.5001C12 22.2241 12.2244 22.0001 12.4999 22.0001H15.75C16.7149 22.0001 17.5 21.2151 17.5 20.2501C17.5 20.2446 17.4995 20.1986 17.499 20.1936C17.468 19.2291 16.6545 18.4771 15.71 18.5001H9.20551C8.629 18.5051 8.0675 18.7116 7.625 19.0806L5.18 21.1156C5.06598 21.2111 5 21.3516 5 21.5001V27.5001C5 27.7766 5.224 28.0001 5.49998 28.0001H17.9055C18.7175 27.9991 19.5085 27.7131 20.1335 27.1956L26.1951 22.1871C27.0185 21.6005 27.2575 20.4615 26.7395 19.5935ZM25.587 21.3945L19.4964 26.425C19.0494 26.795 18.4839 26.999 17.9049 27H5.99996V21.7345L8.26543 19.8485C8.53145 19.627 8.86795 19.5029 9.20996 19.4999L15.7259 19.4995C16.1404 19.499 16.4864 19.8125 16.5 20.25C16.5 20.6635 16.1635 21 15.75 21H12.4999C11.6729 21 10.9999 21.673 10.9999 22.5C10.9999 23.327 11.6729 24 12.4999 24H18.4999C18.6039 24 18.7054 23.9675 18.7914 23.907L24.5124 19.8215C24.7184 19.6735 24.9689 19.616 25.2199 19.656C25.4704 19.6975 25.6895 19.8335 25.8399 20.0435C25.8549 20.064 25.8684 20.0849 25.8814 20.1065C26.1345 20.53 26.0169 21.0865 25.587 21.3945Z" fill="black"/>
<path d="M5.48502 20.5H0V21.5H4.98498V29H0V30H5.48502C5.761 30 5.985 29.7765 5.985 29.5V21C5.985 20.7235 5.761 20.5 5.48502 20.5Z" fill="black"/>
<path d="M2.5 25C1.67301 25 1 25.673 1 26.5C1 27.327 1.67301 28 2.5 28C3.32699 28 4 27.327 4 26.5C4 25.673 3.32699 25 2.5 25ZM2.5 27C2.22449 27 2.00002 26.776 2.00002 26.5C2.00002 26.224 2.22449 26 2.5 26C2.77551 26 2.99998 26.224 2.99998 26.5C2.99998 26.776 2.77551 27 2.5 27Z" fill="black"/>
<path d="M29.5 15.5H0.49998C0.224004 15.5 0 15.7235 0 16C0 17.9295 1.57002 19.4999 3.49998 19.4999H26.5C28.4295 19.4999 29.9999 17.9295 29.9999 16C30 15.7235 29.7765 15.5 29.5 15.5ZM26.5 18.5H3.49998C2.29248 18.5 1.2825 17.6395 1.05047 16.5H28.9495C28.7175 17.6395 27.7075 18.5 26.5 18.5Z" fill="black"/>
<path d="M14.9999 2.50003C7.83189 2.50003 1.99988 8.33204 1.99988 15.5001V16C1.99988 16.2765 2.22388 16.5 2.49986 16.5H27.4999C27.7764 16.5 27.9999 16.2765 27.9999 16V15.5001C27.9999 8.33198 22.1684 2.50003 14.9999 2.50003ZM2.9999 15.5C2.9999 8.88347 8.38337 3.49999 14.9999 3.49999C21.6164 3.49999 26.9999 8.88347 26.9999 15.5H2.9999Z" fill="black"/>
<path d="M6.77598 8.20349C6.42646 8.59648 6.1025 9.01701 5.81299 9.454L6.64648 10.0065C6.91051 9.60845 7.20547 9.22496 7.52346 8.86748L6.77598 8.20349Z" fill="black"/>
<path d="M15 4.50002C12.192 4.50154 9.51851 5.5625 7.47253 7.48601L8.15755 8.21451C10.0176 6.46548 12.448 5.5015 15.0005 5.50003L15 4.50002Z" fill="black"/>
<path d="M16.5 0H13.5V1.00002H16.5V0Z" fill="black"/>
<path d="M15.5 0.499954H14.5V2.99997H15.5V0.499954Z" fill="black"/>
</svg>
